<?xml version="1.0" encoding="utf-8"?>
<!-- Generator: Adobe Illustrator 26.0.2, SVG Export Plug-In . SVG Version: 6.00 Build 0)  -->
<svg version="1.1" id="Layer_1" xmlns="http://www.w3.org/2000/svg" xmlns:xlink="http://www.w3.org/1999/xlink" x="0px" y="0px"
	 viewBox="0 0 103.8 84.3" style="enable-background:new 0 0 103.8 84.3;" xml:space="preserve">
<style type="text/css">
	.st0{fill:#5C718E;}
	.st1{fill:#24B1DF;}
	.st2{fill:#E52501;}
	.st3{fill:#FF5105;}
	.st4{fill:#8795A0;}
	.st5{fill:#DAE3EA;}
	.st6{fill:#FF9813;}
	.st7{fill:#FFDF21;}
	.st8{fill:#EBEFF0;}
	.st9{fill:#C3D0D8;}
	.st10{fill:#6F8499;}
	.st11{fill:#24AEF7;}
	.st12{fill:#008EE1;}
	.st13{fill:#9CA9B9;}
	.st14{fill:#4A5460;}
	.st15{fill:#555E6D;}
	.st16{fill:#C3CCD5;}
	.st17{fill:#8A9AAA;}
	.st18{fill:#425C73;}
	.st19{fill:#446783;}
	.st20{fill:#86BAB0;}
	.st21{fill:#424B59;}
	.st22{fill:#97A7B4;}
	.st23{fill:#A0CFC7;}
	.st24{fill:#B6DDD5;}
	.st25{fill:#BFC9D2;}
	.st26{fill:#B0BBC7;}
	.st27{fill:#FFFFFF;}
	.st28{fill:#0079B5;}
	.st29{fill:#2F4556;}
</style>
<g>
	<rect x="8.7" y="15" class="st0" width="85.6" height="60.6"/>
	<g>
		<g>
			<rect x="20.7" y="7.9" class="st1" width="2.3" height="3.2"/>
			<rect x="80" y="7.9" class="st1" width="2.3" height="3.2"/>
		</g>
		<polygon class="st2" points="84.3,7.9 84.3,10.3 78.1,10.3 78.1,7.9 24.9,7.9 24.9,10.3 18.7,10.3 18.7,7.9 11.1,7.9 11.1,12.2 
			91.9,12.2 91.9,7.9 		"/>
		<rect x="6.3" y="11.5" class="st3" width="90.4" height="4.6"/>
		<g>
			<path class="st4" d="M95.4,19.8v4.5c1.2,0,2.3-1,2.3-2.3C97.6,20.8,96.6,19.8,95.4,19.8z"/>
			<path class="st4" d="M5.4,22c0,1.2,1,2.3,2.3,2.3v-4.5C6.4,19.8,5.4,20.8,5.4,22z"/>
		</g>
		<path class="st5" d="M94.4,73.3c0,1.1-0.9,1.9-1.9,1.9c-1.1,0-1.9-0.9-1.9-1.9H59.3c0,1.1-0.9,1.9-1.9,1.9c-1.1,0-1.9-0.9-1.9-1.9
			h-8c0,1.1-0.9,1.9-1.9,1.9c-1.1,0-1.9-0.9-1.9-1.9H12.4c0,1.1-0.9,1.9-1.9,1.9c-1.1,0-1.9-0.9-1.9-1.9H6.3V78h90.4v-4.6H94.4z"/>
		<rect x="8" y="46.4" class="st4" width="87" height="25.7"/>
		<rect x="8" y="17.4" class="st5" width="87" height="27.3"/>
		<g>
			<path class="st6" d="M23.5,30.8h-4.6v-2.8h-2.8v-4.6h2.8v-2.8h4.6v2.8h2.8v4.6h-2.8V30.8z M19.9,29.8h2.6v-2.8h2.8v-2.6h-2.8
				v-2.8h-2.6v2.8h-2.8v2.6h2.8V29.8z"/>
		</g>
		<g>
			<path class="st6" d="M86.9,27.9H76.7v-4.6h10.2V27.9z M77.7,26.9h8.2v-2.6h-8.2V26.9z"/>
		</g>
		<polygon class="st7" points="25.8,27.4 23,27.4 23,30.3 19.4,30.3 19.4,27.4 16.6,27.4 16.6,23.8 19.4,23.8 19.4,21 23,21 
			23,23.8 25.8,23.8 		"/>
		<rect x="77.2" y="23.8" class="st7" width="9.2" height="3.6"/>
	</g>
	<rect x="7.6" y="19.8" class="st0" width="0.4" height="4.5"/>
	<rect x="95" y="19.8" class="st0" width="0.4" height="4.5"/>
</g>
<g>
	<path class="st5" d="M-96.6,0.8c-24.3,0-43.9,19.7-43.9,43.9c0,24.3,19.7,43.9,43.9,43.9c24.3,0,43.9-19.7,43.9-43.9
		C-52.7,20.5-72.3,0.8-96.6,0.8z M-96.6,53.1c-4.5,0-8.1-3.6-8.1-8.1c0-4.5,3.6-8.1,8.1-8.1c4.5,0,8.1,3.6,8.1,8.1
		C-88.5,49.5-92.1,53.1-96.6,53.1z"/>
	<g>
		<g>
			<path class="st8" d="M-67.1,23.1c-0.4,0-0.9-0.2-1.2-0.6c-2.1-2.6-4.5-4.9-7.1-6.9c-0.7-0.5-0.8-1.4-0.3-2.1
				c0.5-0.7,1.4-0.8,2.1-0.3c2.9,2.1,5.5,4.6,7.7,7.4c0.5,0.7,0.4,1.6-0.3,2.1C-66.5,23-66.8,23.1-67.1,23.1z"/>
		</g>
	</g>
	<g>
		<g>
			<path class="st8" d="M-59.3,50.1c-0.1,0-0.1,0-0.2,0c-0.8-0.1-1.4-0.8-1.3-1.6c0.1-1.2,0.2-2.5,0.2-3.7c0-2-0.2-4.1-0.5-6.2
				c-0.1-0.8,0.4-1.6,1.2-1.7c0.8-0.1,1.6,0.4,1.7,1.2c0.4,2.2,0.6,4.5,0.6,6.7c0,1.3-0.1,2.7-0.2,4C-57.9,49.5-58.5,50.1-59.3,50.1
				z"/>
		</g>
	</g>
	<g>
		<g>
			<path class="st8" d="M-119.8,75.7c-0.3,0-0.7-0.1-0.9-0.3c-2.8-2.2-5.3-4.8-7.4-7.7c-0.5-0.7-0.3-1.6,0.3-2.1
				c0.7-0.5,1.6-0.3,2.1,0.3c1.9,2.7,4.3,5.1,6.9,7.1c0.7,0.5,0.8,1.5,0.3,2.1C-118.9,75.5-119.3,75.7-119.8,75.7z"/>
		</g>
	</g>
	<g>
		<g>
			<path class="st8" d="M-73.1,75.4c-0.4,0-0.9-0.2-1.2-0.6c-0.5-0.6-0.4-1.6,0.2-2.1c2.6-2.1,4.9-4.5,6.8-7.2
				c0.5-0.7,1.4-0.8,2.1-0.4c0.7,0.5,0.8,1.4,0.4,2.1c-2.1,2.9-4.6,5.6-7.3,7.8C-72.4,75.3-72.7,75.4-73.1,75.4z"/>
		</g>
	</g>
	<g>
		<g>
			<path class="st8" d="M-96.6,83.8c-1.6,0-3.3-0.1-5-0.3c-0.8-0.1-1.4-0.9-1.3-1.7c0.1-0.8,0.9-1.4,1.7-1.3
				c3.4,0.4,6.6,0.4,9.9-0.1c0.8-0.1,1.6,0.4,1.7,1.3c0.1,0.8-0.4,1.6-1.3,1.7C-92.8,83.6-94.7,83.8-96.6,83.8z"/>
		</g>
	</g>
	<g>
		<g>
			<g>
				<path class="st8" d="M-134.8,38.6c0.1,0,0.1,0,0.2,0c0.8,0.1,1.4,0.8,1.3,1.6c-0.1,1.2-0.2,2.5-0.2,3.7c0,2,0.2,4.1,0.5,6.2
					c0.1,0.8-0.4,1.6-1.2,1.7c-0.8,0.1-1.6-0.4-1.7-1.2c-0.4-2.2-0.6-4.5-0.6-6.7c0-1.3,0.1-2.7,0.2-4
					C-136.2,39.1-135.5,38.6-134.8,38.6z"/>
			</g>
		</g>
		<g>
			<g>
				<path class="st8" d="M-97.5,4.9c1.6,0,3.3,0.1,5,0.3c0.8,0.1,1.4,0.9,1.3,1.7c-0.1,0.8-0.9,1.4-1.7,1.3
					c-3.4-0.4-6.6-0.4-9.9,0.1c-0.8,0.1-1.6-0.4-1.7-1.3c-0.1-0.8,0.4-1.6,1.3-1.7C-101.3,5.1-99.3,4.9-97.5,4.9z"/>
			</g>
		</g>
	</g>
	<path class="st9" d="M-88.4,1.6l-3.7,3.7L-94.8,8l-38.5,38.5l-2.7,2.7l-3.7,3.7c-0.5-2.7-0.8-5.4-0.8-8.2
		c0-24.3,19.7-43.9,43.9-43.9C-93.8,0.8-91.1,1.1-88.4,1.6z"/>
	<g>
		<g>
			<path class="st5" d="M-133.3,40.2c-0.1,1.2-0.2,2.5-0.2,3.7c0,0.9,0,1.7,0.1,2.6l-2.7,2.7c-0.2-1.8-0.4-3.6-0.4-5.3
				c0-1.3,0.1-2.7,0.2-4c0.1-0.8,0.7-1.3,1.5-1.3h0.2C-133.8,38.7-133.2,39.4-133.3,40.2z"/>
		</g>
		<g>
			<g>
				<path class="st5" d="M-92.1,5.3c-0.1,0-0.2-0.1-0.3-0.1c-1.7-0.2-3.4-0.3-5-0.3c-1.9,0-3.8,0.1-5.7,0.4
					c-0.8,0.1-1.4,0.9-1.3,1.7c0.1,0.8,0.9,1.4,1.7,1.3c2.6-0.4,5.2-0.5,7.9-0.3L-92.1,5.3z"/>
			</g>
		</g>
	</g>
	<g>
		<path class="st10" d="M-66.3,45.3c0-16.7-13.6-30.3-30.3-30.3c-16.7,0-30.3,13.6-30.3,30.3c0,16.7,13.6,30.3,30.3,30.3
			C-79.9,75.6-66.3,62.1-66.3,45.3z M-108.1,45.3c0-6.4,5.2-11.5,11.5-11.5c6.4,0,11.5,5.2,11.5,11.5c0,6.4-5.2,11.5-11.5,11.5
			C-103,56.9-108.1,51.7-108.1,45.3z"/>
		<g>
			<g>
				<path class="st4" d="M-77.8,26.2c-10.4-10.4-27.2-10.4-37.6,0c-10.4,10.4-10.4,27.2,0,37.6c10.4,10.4,27.2,10.4,37.6,0
					C-67.5,53.4-67.5,36.5-77.8,26.2z M-71.8,43.7c0.7,0,1.3,0.6,1.3,1.3c0,0.7-0.6,1.3-1.3,1.3c-0.7,0-1.3-0.6-1.3-1.3
					C-73,44.3-72.5,43.7-71.8,43.7z M-78.2,26.5c0.5,0.5,0.5,1.3,0,1.8c-0.5,0.5-1.3,0.5-1.8,0c-0.5-0.5-0.5-1.3,0-1.8
					C-79.5,26-78.7,26-78.2,26.5z M-96.6,18.9c0.7,0,1.3,0.6,1.3,1.3c0,0.7-0.6,1.3-1.3,1.3c-0.7,0-1.3-0.6-1.3-1.3
					C-97.9,19.5-97.3,18.9-96.6,18.9z M-115,28.3c-0.5-0.5-0.5-1.3,0-1.8c0.5-0.5,1.3-0.5,1.8,0c0.5,0.5,0.5,1.3,0,1.8
					C-113.8,28.8-114.6,28.8-115,28.3z M-121.4,46.2c-0.7,0-1.3-0.6-1.3-1.3c0-0.7,0.6-1.3,1.3-1.3c0.7,0,1.3,0.6,1.3,1.3
					C-120.2,45.7-120.7,46.2-121.4,46.2z M-115,63.4c-0.5-0.5-0.5-1.3,0-1.8c0.5-0.5,1.3-0.5,1.8,0c0.5,0.5,0.5,1.3,0,1.8
					C-113.8,63.9-114.6,63.9-115,63.4z M-96.6,71c-0.7,0-1.3-0.6-1.3-1.3c0-0.7,0.6-1.3,1.3-1.3c0.7,0,1.3,0.6,1.3,1.3
					C-95.4,70.5-95.9,71-96.6,71z M-112.9,61.2c-9-9-9-23.6,0-32.5c9-9,23.6-9,32.5,0c9,9,9,23.6,0,32.5
					C-89.3,70.2-103.9,70.2-112.9,61.2z M-79.9,63.4c-0.5-0.5-0.5-1.3,0-1.8c0.5-0.5,1.3-0.5,1.8,0c0.5,0.5,0.5,1.3,0,1.8
					C-78.7,63.9-79.5,63.9-79.9,63.4z"/>
			</g>
		</g>
		<path class="st9" d="M-75.2,45c0-11.8-9.6-21.4-21.4-21.4c-11.8,0-21.4,9.6-21.4,21.4c0,11.8,9.6,21.4,21.4,21.4
			C-84.8,66.3-75.2,56.8-75.2,45z M-79.7,45c0,1.4-1.1,2.5-2.5,2.5c-1.4,0-2.5-1.1-2.5-2.5c0-1.4,1.1-2.5,2.5-2.5
			C-80.8,42.5-79.7,43.6-79.7,45z M-99.1,30.5c0-1.4,1.1-2.5,2.5-2.5c1.4,0,2.5,1.1,2.5,2.5s-1.1,2.5-2.5,2.5
			C-98,32.9-99.1,31.8-99.1,30.5z M-113.5,45c0-1.4,1.1-2.5,2.5-2.5c1.4,0,2.5,1.1,2.5,2.5c0,1.4-1.1,2.5-2.5,2.5
			C-112.4,47.4-113.5,46.3-113.5,45z M-104.7,45c0-4.5,3.6-8.1,8.1-8.1c4.5,0,8.1,3.6,8.1,8.1c0,4.5-3.6,8.1-8.1,8.1
			C-101.1,53.1-104.7,49.5-104.7,45z M-99.1,59.4c0-1.4,1.1-2.5,2.5-2.5c1.4,0,2.5,1.1,2.5,2.5s-1.1,2.5-2.5,2.5
			C-98,61.9-99.1,60.8-99.1,59.4z"/>
		<g>
			<path class="st11" d="M-144.8,47.9c0,2.8,1.8,3.4,3.8,1.5l48.7-48.7c2-2,1.3-3.8-1.5-3.8c-13.2,0-26.2,4.9-36.2,14.9
				C-139.9,21.6-144.8,34.7-144.8,47.9z M-101.8-0.2c0.8,0.8,0.8,2.2,0,3c-0.8,0.8-2.2,0.8-3,0c-0.8-0.8-0.8-2.2,0-3
				C-103.9-1-102.6-1-101.8-0.2z M-129.3,15.3c-0.8-0.8-0.8-2.2,0-3c0.8-0.8,2.2-0.8,3,0c0.8,0.8,0.8,2.2,0,3
				C-127.1,16.1-128.5,16.1-129.3,15.3z M-141.8,39.8c-0.8-0.8-0.8-2.2,0-3c0.8-0.8,2.2-0.8,3,0c0.8,0.8,0.8,2.2,0,3
				C-139.6,40.6-140.9,40.6-141.8,39.8z"/>
		</g>
		<g>
			<path class="st4" d="M-103.9,2c0.3,0.3,0.9,0.3,1.2,0c0.2-0.2,0.3-0.5,0.2-0.7c-0.6,0.1-1.2,0.2-1.7,0.3
				C-104.1,1.7-104,1.8-103.9,2z"/>
			<path class="st4" d="M-128.4,14.4C-128.4,14.4-128.4,14.4-128.4,14.4c0.4,0.4,0.9,0.4,1.3,0c0.3-0.3,0.3-0.9,0-1.2c0,0,0,0,0,0
				c-0.2,0.2-0.4,0.4-0.6,0.6C-128,14-128.2,14.2-128.4,14.4z"/>
			<path class="st4" d="M-139.6,38.9c0.3-0.3,0.3-0.9,0-1.2c-0.1-0.1-0.3-0.2-0.5-0.2c-0.1,0.6-0.2,1.2-0.3,1.7
				C-140.1,39.2-139.8,39.1-139.6,38.9z"/>
		</g>
	</g>
	<path class="st12" d="M-134,35.7l-0.2-0.5c-0.6-1.3-1.7-2.4-3-3l-0.3-0.2l0.1-0.3c1.5-4.2,3.6-8.2,6.3-11.7l0.2-0.2l0.3,0.1
		c2.6,1.2,5.6,0.6,7.6-1.4c2-2,2.5-5,1.4-7.6l-0.1-0.3l0.2-0.2c3.6-2.7,7.5-4.8,11.7-6.3l0.3-0.1l0.1,0.3c0.7,1.3,1.7,2.3,3,3
		l0.5,0.2L-134,35.7z"/>
</g>
<g>
	<g>
		<g>
			<polygon class="st13" points="-240.7,68.8 -243.1,71.1 -224.3,89.8 -222,87.5 			"/>
			<polygon class="st13" points="-224.4,52.4 -226.7,54.7 -208,73.5 -205.6,71.2 			"/>
		</g>
	</g>
	
		<rect x="-289.9" y="8.3" transform="matrix(0.7071 -0.7071 0.7071 0.7071 -96.3458 -185.2556)" class="st14" width="36.2" height="30.7"/>
	<g>
		<g>
			<g>
				<path class="st13" d="M-235.2,53.9l-23.8-23.8c-1.3,0.7-2.5,1.7-3.6,2.8c-1.1,1.1-2,2.3-2.8,3.6l23.4,23.4c3.8,3.8,4.2,9.8,1,14
					l4,4l2.7-2.7c-1.7-3.9-0.9-8.6,2.3-11.8c3.2-3.2,7.9-4,11.8-2.3l2.7-2.7l-3.6-3.6C-225.3,58.1-231.3,57.7-235.2,53.9z"/>
			</g>
			<g>
				<path class="st15" d="M-233.5,62c-1.6,1.6-2.7,3.5-3.3,5.6c0-3.3-1.3-6.6-3.7-9.1l-22.2-22.2c1-1.4,2.1-2.5,3.5-3.5l22.6,22.6
					c2.1,2.1,4.9,3.4,7.7,3.7C-230.6,59.6-232.2,60.6-233.5,62z"/>
			</g>
			
				<rect x="-300.8" y="10.6" transform="matrix(0.7071 -0.7071 0.7071 0.7071 -92.3937 -194.8334)" class="st16" width="38.9" height="7"/>
			
				<rect x="-296.9" y="16.8" transform="matrix(0.7071 -0.7071 0.7071 0.7071 -94.0171 -190.8919)" class="st16" width="38.9" height="2.5"/>
			
				<rect x="-294.6" y="19.1" transform="matrix(0.7071 -0.7071 0.7071 0.7071 -94.9829 -188.5707)" class="st16" width="38.9" height="2.5"/>
			
				<rect x="-222" y="78.3" transform="matrix(0.7071 -0.7071 0.7071 0.7071 -119.7761 -128.7015)" class="st16" width="13.5" height="3.9"/>
			<g>
				
					<rect x="-235.4" y="67.5" transform="matrix(0.7069 -0.7073 0.7073 0.7069 -124.0926 -141.5852)" class="st16" width="5.1" height="23"/>
				
					<rect x="-219.1" y="51.1" transform="matrix(0.707 -0.7072 0.7072 0.707 -107.7066 -134.7961)" class="st16" width="5.1" height="23"/>
			</g>
			<g>
				
					<rect x="-225.2" y="87.1" transform="matrix(0.7067 -0.7075 0.7075 0.7067 -128.0166 -132.326)" class="st16" width="3.3" height="2.2"/>
				
					<rect x="-208.9" y="70.8" transform="matrix(0.7074 -0.7068 0.7068 0.7074 -111.4463 -125.4537)" class="st16" width="3.3" height="2.2"/>
			</g>
			<g>
				
					<rect x="-243.8" y="68.6" transform="matrix(0.7074 -0.7068 0.7068 0.7074 -120.0887 -150.791)" class="st16" width="3.3" height="2.2"/>
				
					<rect x="-227.5" y="52.2" transform="matrix(0.7073 -0.707 0.707 0.7073 -103.7898 -144.0437)" class="st16" width="3.3" height="2.2"/>
			</g>
			<g>
				<g>
					<path class="st13" d="M-232.3,63.1c-4.8,4.8-4.8,12.7,0,17.5c4.8,4.8,12.7,4.8,17.5,0c4.8-4.8,4.8-12.7,0-17.5
						C-219.6,58.3-227.5,58.3-232.3,63.1z M-217.8,77.7c-3.2,3.2-8.4,3.2-11.6,0c-3.2-3.2-3.2-8.4,0-11.6c3.2-3.2,8.4-3.2,11.6,0
						C-214.6,69.3-214.6,74.5-217.8,77.7z"/>
				</g>
			</g>
			<g>
				<path class="st16" d="M-270,25.5c-1.6,1.6-1.6,4.2,0,5.8c1.6,1.6,4.2,1.6,5.8,0c1.6-1.6,1.6-4.2,0-5.8
					C-265.8,23.9-268.4,23.9-270,25.5z"/>
				<path class="st16" d="M-287.3,35.6l18.7,18.7l3.8-3.8c-1.1-5.4,0.5-11.1,4.7-15.3c4.2-4.2,9.9-5.7,15.3-4.7l3.8-3.8l-18.7-18.7
					L-287.3,35.6z M-263.1,32.4c-2.2,2.2-5.8,2.2-8,0c-2.2-2.2-2.2-5.8,0-8c2.2-2.2,5.8-2.2,8,0C-260.9,26.6-260.9,30.2-263.1,32.4z
					"/>
				
					<rect x="-300.8" y="10.6" transform="matrix(0.7071 -0.7071 0.7071 0.7071 -92.3937 -194.8334)" class="st16" width="38.9" height="7"/>
				
					<rect x="-296.9" y="16.8" transform="matrix(0.7071 -0.7071 0.7071 0.7071 -94.0171 -190.8919)" class="st16" width="38.9" height="2.5"/>
				
					<rect x="-294.6" y="19.1" transform="matrix(0.7071 -0.7071 0.7071 0.7071 -94.9829 -188.5707)" class="st16" width="38.9" height="2.5"/>
				<path class="st16" d="M-287.3,35.6l18.7,18.7l3.8-3.8c-1.1-5.4,0.5-11.1,4.7-15.3c4.2-4.2,9.9-5.7,15.3-4.7l3.8-3.8l-18.7-18.7
					L-287.3,35.6z M-263.1,32.4c-2.2,2.2-5.8,2.2-8,0c-2.2-2.2-2.2-5.8,0-8c2.2-2.2,5.8-2.2,8,0C-260.9,26.6-260.9,30.2-263.1,32.4z
					"/>
			</g>
		</g>
	</g>
	
		<rect x="-291.3" y="10.6" transform="matrix(0.7071 -0.7071 0.7071 0.7071 -92.3937 -194.8337)" class="st16" width="19.8" height="7"/>
	
		<rect x="-287.4" y="16.8" transform="matrix(0.7072 -0.7071 0.7071 0.7072 -94.0016 -190.8784)" class="st16" width="19.8" height="2.5"/>
	
		<rect x="-285" y="19.1" transform="matrix(0.7071 -0.7072 0.7072 0.7071 -94.9932 -188.5797)" class="st16" width="19.8" height="2.5"/>
	
		<rect x="-290.9" y="12.5" transform="matrix(0.7071 -0.7072 0.7072 0.7071 -92.5468 -194.4861)" class="st8" width="19.8" height="4"/>
	
		<rect x="-287.4" y="17.8" transform="matrix(0.7072 -0.7071 0.7071 0.7072 -94.0017 -190.8783)" class="st8" width="19.8" height="0.5"/>
	
		<rect x="-285" y="20.1" transform="matrix(0.7071 -0.7072 0.7072 0.7071 -94.9932 -188.5797)" class="st8" width="19.8" height="0.5"/>
	<path class="st8" d="M-265.9,15.6l-7,7l-7,7l13.5,13.5c0.6-3.4,2.1-6.7,4.8-9.3c2.6-2.6,5.9-4.2,9.3-4.8L-265.9,15.6z M-263.1,32.4
		c-2.2,2.2-5.8,2.2-8,0c-2.2-2.2-2.2-5.8,0-8c2.2-2.2,5.8-2.2,8,0C-260.9,26.6-260.9,30.2-263.1,32.4z"/>
</g>
<g>
	<g>
		<g>
			<path class="st17" d="M-251.5,162.1c-19.6,0-35.6,16-35.6,35.6c0,19.6,16,35.6,35.6,35.6c19.6,0,35.6-16,35.6-35.6
				C-215.9,178-231.9,162.1-251.5,162.1z M-252,222.6c-13.8-0.3-24.8-11.7-24.5-25.5c0.3-13.8,11.7-24.8,25.5-24.5
				c13.8,0.3,24.8,11.7,24.5,25.5C-226.7,211.9-238.2,222.9-252,222.6z"/>
		</g>
	</g>
	<path class="st18" d="M-205.4,196.3l-0.7-0.7c0-0.8-0.1-1.5-0.2-2.3c0.1,0.1,0.2,0.1,0.3,0.1c0.2,0,0.4-0.2,0.4-0.4
		c0,0,0-0.1,0-0.1l-0.3-2c0-0.1-0.1-0.2-0.2-0.3l-0.7-0.6c-0.1-0.7-0.3-1.5-0.5-2.2c0.1,0.1,0.2,0.1,0.2,0.1c0.2,0,0.4-0.2,0.4-0.4
		c0-0.1,0-0.1,0-0.2l-0.5-2c0-0.1-0.1-0.2-0.2-0.3l-0.8-0.5c-0.2-0.7-0.5-1.5-0.7-2.2c0.1,0,0.1,0,0.2,0.1c0.2,0,0.4-0.2,0.4-0.4
		c0-0.1,0-0.2-0.1-0.2l-0.8-1.9c0-0.1-0.1-0.2-0.2-0.2l-0.9-0.4c-0.3-0.7-0.6-1.4-1-2.1l0,0c0.1,0,0.1,0,0.2,0c0,0,0,0,0,0
		c0.2,0,0.4-0.2,0.4-0.4c0-0.1,0-0.2-0.1-0.3l-1-1.8c-0.1-0.1-0.1-0.2-0.2-0.2l-0.9-0.3c-0.4-0.7-0.8-1.3-1.2-1.9l0,0
		c0,0,0.1,0,0.1,0c0.2,0,0.4-0.2,0.4-0.4c0-0.1-0.1-0.2-0.1-0.3l-1.2-1.7c-0.1-0.1-0.2-0.1-0.3-0.2l-1-0.2c-0.5-0.6-1-1.2-1.5-1.7
		l0,0c0,0,0,0,0.1,0c0.2,0,0.4-0.2,0.4-0.4c0-0.1-0.1-0.3-0.2-0.3l-1.4-1.5c-0.1-0.1-0.2-0.1-0.3-0.1l-1-0.1c-0.5-0.5-1.1-1-1.7-1.5
		h0c0.2,0,0.3-0.1,0.4-0.3c0.1-0.2,0-0.4-0.1-0.5l-1.6-1.4c-0.1-0.1-0.2-0.1-0.3-0.1l-1,0.1c-0.6-0.5-1.2-0.9-1.9-1.3
		c0.2,0,0.3-0.2,0.4-0.3c0-0.2,0-0.4-0.2-0.5l-1.8-1.1c-0.1-0.1-0.2-0.1-0.3-0.1l-1,0.2c-0.7-0.4-1.3-0.7-2-1.1
		c0.2,0,0.3-0.2,0.3-0.4c0-0.2-0.1-0.4-0.2-0.4l-1.9-0.9c-0.1,0-0.2-0.1-0.3,0l-0.9,0.3c-0.7-0.3-1.4-0.6-2.1-0.8
		c0.2-0.1,0.3-0.2,0.3-0.4c0-0.2-0.1-0.3-0.3-0.4l-2-0.7c-0.1,0-0.2,0-0.3,0l-0.9,0.4c-0.7-0.2-1.5-0.4-2.2-0.5l0,0
		c0.2-0.1,0.2-0.3,0.2-0.4c0-0.2-0.2-0.3-0.3-0.4l-2.1-0.4c-0.1,0-0.2,0-0.3,0.1l-0.8,0.5c-0.5-0.1-1-0.1-1.5-0.2
		c-0.3,0-0.5,0-0.8-0.1l0,0c0.1-0.1,0.2-0.3,0.2-0.5c-0.1-0.2-0.2-0.3-0.4-0.3l-2.1-0.1c-0.1,0-0.2,0-0.3,0.1l-0.8,0.6
		c-0.8,0-1.5,0-2.3,0l0,0c0.1-0.1,0.2-0.3,0.1-0.5c-0.1-0.2-0.2-0.3-0.4-0.3l-2.1,0.1c-0.1,0-0.2,0.1-0.3,0.1l-0.7,0.7
		c-0.8,0.1-1.5,0.2-2.3,0.3c0.1-0.1,0.1-0.3,0-0.5c-0.1-0.2-0.3-0.2-0.5-0.2l-2.1,0.4c-0.1,0-0.2,0.1-0.3,0.2l-0.6,0.8
		c-0.7,0.2-1.5,0.4-2.2,0.6c0.1-0.2,0.1-0.3,0-0.5c-0.1-0.1-0.3-0.2-0.5-0.1l-2,0.7c-0.1,0-0.2,0.1-0.2,0.2l-0.5,0.8
		c-0.7,0.3-1.4,0.6-2.1,0.9c0.1-0.2,0-0.4-0.1-0.5c-0.1-0.1-0.3-0.2-0.5-0.1l-1.9,0.9c-0.1,0-0.2,0.1-0.2,0.2l-0.4,0.9
		c-0.7,0.4-1.3,0.7-2,1.1v0c0.1-0.2,0-0.4-0.1-0.5c-0.1-0.1-0.3-0.1-0.5,0l-1.8,1.1c-0.1,0.1-0.2,0.2-0.2,0.3l-0.2,1
		c-0.6,0.4-1.2,0.9-1.8,1.4v0c0-0.2-0.1-0.4-0.2-0.4c-0.2-0.1-0.4-0.1-0.5,0l-1.6,1.4c-0.1,0.1-0.1,0.2-0.2,0.3l-0.1,1
		c-0.6,0.5-1.1,1-1.7,1.6v0c0-0.2-0.1-0.3-0.3-0.4c-0.2-0.1-0.4,0-0.5,0.1l-1.5,1.6c-0.1,0.1-0.1,0.2-0.1,0.3v1
		c-0.5,0.6-1,1.2-1.4,1.8c0-0.2-0.1-0.3-0.3-0.4c-0.2,0-0.4,0-0.5,0.2l-1.3,1.7c-0.1,0.1-0.1,0.2-0.1,0.3l0.1,1
		c-0.4,0.6-0.8,1.3-1.2,1.9c0-0.2-0.2-0.3-0.4-0.3c-0.2,0-0.4,0.1-0.4,0.2l-1,1.9c-0.1,0.1-0.1,0.2,0,0.3l0.2,0.9
		c-0.3,0.7-0.7,1.4-1,2.1c-0.1-0.2-0.2-0.3-0.4-0.3c-0.2,0-0.3,0.1-0.4,0.3l-0.8,2c0,0.1,0,0.2,0,0.3l0.4,0.9
		c-0.2,0.7-0.5,1.5-0.7,2.2c-0.1-0.2-0.3-0.3-0.4-0.2c-0.2,0-0.3,0.1-0.4,0.3l-0.5,2.1c0,0.1,0,0.2,0,0.3l0.5,0.9
		c-0.2,0.7-0.3,1.5-0.4,2.3l0,0c-0.1-0.2-0.3-0.2-0.5-0.2c-0.2,0-0.3,0.2-0.3,0.4l-0.3,2.1c0,0.1,0,0.2,0.1,0.3l0.6,0.8
		c-0.1,0.8-0.1,1.5-0.1,2.3l0,0c-0.1-0.1-0.3-0.2-0.5-0.1c-0.2,0.1-0.3,0.2-0.3,0.4v2.1c0,0.1,0,0.2,0.1,0.3l0.7,0.7
		c0,0.8,0.1,1.5,0.2,2.3c-0.1-0.1-0.3-0.1-0.5-0.1c-0.2,0.1-0.3,0.3-0.2,0.4l0.3,2.1c0,0.1,0.1,0.2,0.2,0.3l0.7,0.6
		c0.1,0.7,0.3,1.5,0.5,2.2c-0.1-0.1-0.3-0.1-0.5,0c-0.1,0.1-0.2,0.3-0.2,0.5l0.5,2.1c0,0.1,0.1,0.2,0.2,0.3l0.8,0.5
		c0.2,0.7,0.5,1.5,0.7,2.2c-0.2-0.1-0.4-0.1-0.5,0.1c-0.1,0.1-0.2,0.3-0.1,0.5l0.8,2c0,0.1,0.1,0.2,0.2,0.2l0.9,0.4
		c0.3,0.7,0.7,1.4,1,2.1l0,0c-0.2-0.1-0.4,0-0.5,0.1c-0.1,0.1-0.1,0.3-0.1,0.5l1,1.9c0.1,0.1,0.1,0.2,0.2,0.2l0.9,0.3
		c0.4,0.7,0.8,1.3,1.2,1.9l0,0c-0.2,0-0.4,0-0.5,0.2c-0.1,0.2-0.1,0.3,0,0.5l1.3,1.7c0.1,0.1,0.2,0.1,0.3,0.2l1,0.2
		c0.5,0.6,1,1.2,1.5,1.7l0,0c-0.2,0-0.4,0.1-0.4,0.2c-0.1,0.2-0.1,0.4,0.1,0.5l1.5,1.6c0.1,0.1,0.2,0.1,0.3,0.1l1,0.1
		c0.5,0.5,1.1,1,1.7,1.5h0c-0.2,0-0.3,0.1-0.4,0.3c-0.1,0.2,0,0.4,0.1,0.5l1.6,1.4c0.1,0.1,0.2,0.1,0.3,0.1l1-0.1
		c0.6,0.5,1.2,0.9,1.9,1.3c-0.2,0-0.3,0.2-0.4,0.3c0,0.2,0,0.4,0.2,0.5l1.8,1.1c0.1,0.1,0.2,0.1,0.3,0.1l1-0.2
		c0.7,0.4,1.3,0.7,2,1.1c-0.2,0-0.3,0.2-0.3,0.4c0,0.2,0.1,0.4,0.2,0.4l1.9,0.9c0.1,0,0.2,0.1,0.3,0l0.9-0.3
		c0.7,0.3,1.4,0.6,2.1,0.8c-0.2,0.1-0.3,0.2-0.3,0.4c0,0.2,0.1,0.3,0.3,0.4l2,0.7c0.1,0,0.2,0,0.3,0l0.9-0.4
		c0.7,0.2,1.5,0.4,2.2,0.5l0,0c-0.2,0.1-0.2,0.3-0.2,0.4c0,0.2,0.2,0.3,0.3,0.4l2.1,0.4c0.1,0,0.2,0,0.3-0.1l0.8-0.5
		c0.5,0.1,1,0.1,1.5,0.2c0.3,0,0.5,0,0.8,0.1l0,0c-0.1,0.1-0.2,0.3-0.2,0.5c0.1,0.2,0.2,0.3,0.4,0.3l2.1,0.1c0.1,0,0.2,0,0.3-0.1
		l0.8-0.6c0.3,0,0.6,0,0.8,0c0.5,0,1,0,1.5,0l0,0c-0.1,0.1-0.2,0.3-0.1,0.5c0.1,0.2,0.2,0.3,0.4,0.3c0,0,0,0,0,0l2.1-0.1
		c0.1,0,0.2-0.1,0.3-0.1l0.7-0.7c0.8-0.1,1.5-0.2,2.3-0.3c-0.1,0.1-0.1,0.3,0,0.5c0.1,0.2,0.3,0.2,0.4,0.2l2.1-0.4
		c0.1,0,0.2-0.1,0.3-0.2l0.6-0.8c0.7-0.2,1.5-0.4,2.2-0.6c-0.1,0.2-0.1,0.3,0,0.5c0.1,0.1,0.3,0.2,0.5,0.1l2-0.7
		c0.1,0,0.2-0.1,0.2-0.2l0.5-0.8c0.7-0.3,1.4-0.6,2.1-0.9c-0.1,0.2,0,0.4,0.1,0.5c0.1,0.1,0.3,0.2,0.5,0.1l1.9-0.9
		c0.1,0,0.2-0.1,0.2-0.2l0.4-0.9c0.7-0.4,1.3-0.7,2-1.1l0,0c-0.1,0.2,0,0.4,0.1,0.5c0.1,0.1,0.3,0.1,0.5,0l1.8-1.1
		c0.1-0.1,0.2-0.1,0.2-0.3l0.2-1c0.6-0.4,1.2-0.9,1.8-1.4l0,0c0,0.2,0.1,0.4,0.2,0.4c0.2,0.1,0.4,0.1,0.5,0l1.6-1.4
		c0.1-0.1,0.1-0.2,0.2-0.3l0.1-1c0.6-0.5,1.1-1,1.7-1.6v0c0,0.2,0.1,0.3,0.3,0.4c0.2,0.1,0.4,0,0.5-0.1l1.5-1.6
		c0.1-0.1,0.1-0.2,0.1-0.3v-1c0.5-0.6,1-1.2,1.4-1.8c0,0.2,0.1,0.3,0.3,0.4c0.2,0,0.4,0,0.5-0.2l1.3-1.7c0.1-0.1,0.1-0.2,0.1-0.3
		l-0.1-1c0.4-0.6,0.8-1.3,1.2-1.9c0,0.2,0.2,0.3,0.4,0.3c0.2,0,0.4-0.1,0.4-0.2l1-1.9c0.1-0.1,0.1-0.2,0-0.3l-0.2-0.9
		c0.3-0.7,0.7-1.4,1-2.1c0.1,0.2,0.2,0.3,0.4,0.3c0.2,0,0.3-0.1,0.4-0.3l0.8-2c0-0.1,0-0.2,0-0.3l-0.4-0.9c0.2-0.7,0.5-1.5,0.7-2.2
		c0.1,0.2,0.3,0.3,0.4,0.2c0.2,0,0.3-0.1,0.4-0.3l0.5-2.1c0-0.1,0-0.2,0-0.3l-0.5-0.9c0.2-0.7,0.3-1.5,0.4-2.3l0,0
		c0.1,0.2,0.3,0.2,0.5,0.2c0.2,0,0.3-0.2,0.3-0.4l0.3-2.1c0-0.1,0-0.2-0.1-0.3l-0.6-0.8c0.1-0.8,0.1-1.5,0.1-2.3l0,0
		c0.1,0.1,0.3,0.2,0.5,0.1c0.2-0.1,0.3-0.2,0.3-0.4v-2.1C-205.3,196.5-205.4,196.4-205.4,196.3z M-217.1,200.7
		c-1.6,17.6-16.7,31.4-34.3,31.4c-1,0-2.1,0-3.1-0.1c-9.2-0.8-17.5-5.2-23.4-12.3c-5.9-7.1-8.7-16-7.9-25.2
		c1.6-17.6,16.7-31.4,34.3-31.4c1,0,2.1,0,3.1,0.1C-229.4,165-215.4,181.8-217.1,200.7z"/>
	<g>
		<g>
			<path class="st19" d="M-251.5,153.7c-24.1,0-43.7,19.6-43.7,43.7c0,24.1,19.6,43.7,43.7,43.7c24.1,0,43.7-19.6,43.7-43.7
				C-207.7,173.4-227.4,153.7-251.5,153.7z M-252.2,235.3c-20.9-0.4-37.5-17.7-37.1-38.6c0.4-20.9,17.7-37.5,38.6-37.1
				c20.9,0.4,37.5,17.7,37.1,38.6C-214,219.1-231.3,235.7-252.2,235.3z"/>
		</g>
	</g>
	<path class="st18" d="M-251.3,171.3c-14.6,0-26.4,11.8-26.4,26.4c0,14.6,11.8,26.4,26.4,26.4c14.6,0,26.4-11.8,26.4-26.4
		C-224.9,183.1-236.7,171.3-251.3,171.3z M-251.3,217.7c-11.1,0-20.1-9-20.1-20.1c0-11.1,9-20.1,20.1-20.1c11.1,0,20.1,9,20.1,20.1
		C-231.2,208.7-240.2,217.7-251.3,217.7z"/>
	<g>
		<g>
			<path class="st8" d="M-251.5,230.3c-18,0-32.6-14.6-32.6-32.6s14.6-32.6,32.6-32.6s32.6,14.6,32.6,32.6S-233.5,230.3-251.5,230.3
				z M-251.5,166.3c-17.3,0-31.3,14.1-31.3,31.3s14.1,31.3,31.3,31.3s31.3-14.1,31.3-31.3S-234.2,166.3-251.5,166.3z"/>
		</g>
		<g>
			<path class="st16" d="M-251.5,162.1c-19.6,0-35.6,16-35.6,35.6c0,19.6,16,35.6,35.6,35.6c19.6,0,35.6-16,35.6-35.6
				C-215.9,178-231.9,162.1-251.5,162.1z M-252.1,230.8c-18.3-0.4-32.9-15.5-32.5-33.8c0.4-18.3,15.5-32.9,33.8-32.5
				c18.3,0.4,32.9,15.5,32.5,33.8C-218.6,216.6-233.8,231.2-252.1,230.8z"/>
		</g>
	</g>
	<g>
		<g>
			<path class="st13" d="M-255.8,223.6c0-1.5,0-3.7-0.1-6.3c-5.5-1.2-10.2-4.7-13-9.5l-6,1.9C-271.1,217.1-264,222.3-255.8,223.6z"
				/>
			<path class="st13" d="M-251.5,171.3c-4.1,0-8.1,0.9-11.7,2.8l3.8,5.1c2.4-1,5.1-1.6,7.9-1.6c2.8,0,5.5,0.6,7.9,1.6l3.8-5.1
				C-243.4,172.2-247.4,171.3-251.5,171.3z"/>
			<path class="st13" d="M-271.6,197.6c0-5.1,1.9-9.8,5.1-13.4l-3.7-5.2c-4.9,4.9-7.6,11.6-7.6,18.5c0,1.3,0.1,2.5,0.3,3.8l6-2
				C-271.6,198.8-271.6,198.2-271.6,197.6z"/>
			<path class="st13" d="M-228,209.7l-6-1.9c-2.8,4.8-7.5,8.3-13,9.5l-0.1,6.3C-238.9,222.3-231.8,217.1-228,209.7z"/>
			<path class="st13" d="M-225.4,201.4c0.2-1.3,0.3-2.5,0.3-3.8c0-6.9-2.8-13.6-7.6-18.5l-3.7,5.2c3.2,3.6,5.1,8.2,5.1,13.4
				c0,0.6,0,1.2-0.1,1.8L-225.4,201.4z"/>
		</g>
		<path class="st16" d="M-251.5,227.1c-16.3,0-29.5-13.2-29.5-29.5s13.2-29.5,29.5-29.5c16.3,0,29.5,13.2,29.5,29.5
			S-235.2,227.1-251.5,227.1z M-276.3,209.1c4,8.6,12.1,14.6,21.5,15.7c0-1.7-0.1-6-0.1-11.1c-0.1-5-3.2-8.4-7.8-8.4
			c-1,0-2,0.2-3.1,0.5L-276.3,209.1z M-240.3,205.3c-4.6,0-7.7,3.4-7.8,8.4l-0.1,11.1c9.4-1.1,17.6-7.1,21.5-15.7l-10.5-3.3
			C-238.2,205.4-239.3,205.3-240.3,205.3z M-270,177.6c-5.6,5.2-8.8,12.5-8.8,20.1c0,1.7,0.2,3.4,0.5,5.1l10.4-3.5
			c2.9-1,4.9-2.8,5.6-5.2c0.8-2.4,0.2-5.1-1.5-7.5L-270,177.6z M-232.9,177.6l-6.3,8.9c-1.7,2.5-2.3,5.1-1.5,7.5
			c0.8,2.4,2.8,4.3,5.6,5.2l10.4,3.5c0.3-1.7,0.5-3.4,0.5-5.1C-224.1,190-227.3,182.8-232.9,177.6z M-264.7,173.7l6.5,8.7
			c1.8,2.4,4.2,3.8,6.7,3.8c2.5,0,4.9-1.3,6.7-3.8l6.5-8.7c-4-2.2-8.6-3.4-13.2-3.4C-256.1,170.3-260.6,171.5-264.7,173.7z"/>
		<path class="st13" d="M-251.5,190.8c-3.8,0-6.8,3.1-6.8,6.8c0,3.8,3.1,6.8,6.8,6.8c3.8,0,6.8-3.1,6.8-6.8
			C-244.6,193.9-247.7,190.8-251.5,190.8z M-251.5,201.5c-2.1,0-3.8-1.7-3.8-3.8c0-2.1,1.7-3.8,3.8-3.8c2.1,0,3.8,1.7,3.8,3.8
			C-247.6,199.7-249.3,201.5-251.5,201.5z"/>
	</g>
	<path class="st16" d="M-251.5,191.8c-3.2,0-5.8,2.6-5.8,5.8c0,3.2,2.6,5.8,5.8,5.8c3.2,0,5.8-2.6,5.8-5.8
		C-245.6,194.4-248.2,191.8-251.5,191.8z M-251.5,202.5c-2.7,0-4.8-2.2-4.8-4.8c0-2.7,2.2-4.8,4.8-4.8c2.7,0,4.8,2.2,4.8,4.8
		C-246.6,200.3-248.8,202.5-251.5,202.5z"/>
	<g>
		<g>
			<g>
				<path class="st18" d="M-285,221.9c5.2,7.2,12.5,12.6,20.9,15.3l0-1c-8-2.7-15-7.8-20-14.6L-285,221.9z"/>
			</g>
			<g>
				<path class="st18" d="M-264.2,158.6l0.5,0.7c7.8-2.5,16.5-2.5,24.3,0l0.5-0.7C-247,156-256,156-264.2,158.6z"/>
			</g>
			<g>
				<path class="st18" d="M-284.7,173.5c-5.1,7-8,15.6-8,24.3l0.9-0.3c0.1-8.4,2.8-16.5,7.7-23.2L-284.7,173.5z"/>
			</g>
			<g>
				<path class="st18" d="M-238.8,236.3l0,1c8.4-2.7,15.7-8.1,20.9-15.3l-0.9-0.3C-223.8,228.5-230.8,233.6-238.8,236.3z"/>
			</g>
			<g>
				<path class="st18" d="M-211,197.5l0.9,0.3c0-8.7-2.9-17.3-8-24.3l-0.5,0.8C-213.8,181-211.1,189.1-211,197.5z"/>
			</g>
		</g>
	</g>
	<path class="st13" d="M-249.9,208.1c0,0.9-0.7,1.6-1.6,1.6c-0.9,0-1.6-0.7-1.6-1.6c0-0.9,0.7-1.6,1.6-1.6
		C-250.6,206.5-249.9,207.2-249.9,208.1z"/>
	<path class="st13" d="M-256.4,189.1c0,0.9-0.7,1.6-1.6,1.6c-0.9,0-1.6-0.7-1.6-1.6c0-0.9,0.7-1.6,1.6-1.6
		C-257.2,187.5-256.4,188.2-256.4,189.1z"/>
	<path class="st13" d="M-243.3,189.1c0,0.9-0.7,1.6-1.6,1.6c-0.9,0-1.6-0.7-1.6-1.6c0-0.9,0.7-1.6,1.6-1.6
		C-244,187.5-243.3,188.2-243.3,189.1z"/>
	<path class="st13" d="M-259.9,200.7c0,0.9-0.7,1.6-1.6,1.6c-0.9,0-1.6-0.7-1.6-1.6c0-0.9,0.7-1.6,1.6-1.6
		C-260.6,199.1-259.9,199.9-259.9,200.7z"/>
	<path class="st13" d="M-239.8,200.7c0,0.9-0.7,1.6-1.6,1.6c-0.9,0-1.6-0.7-1.6-1.6c0-0.9,0.7-1.6,1.6-1.6
		C-240.5,199.1-239.8,199.9-239.8,200.7z"/>
</g>
<g>
	
		<rect x="-105.5" y="-111.2" transform="matrix(0.7072 -0.7071 0.7071 0.7072 48.5747 -101.5265)" class="st20" width="14.4" height="3.6"/>
	
		<rect x="-116.4" y="-123.2" transform="matrix(0.7071 -0.7071 0.7071 0.7071 51.4709 -108.5284)" class="st21" width="22.3" height="13.6"/>
	
		<rect x="-113.5" y="-113.5" transform="matrix(0.7071 -0.7071 0.7071 0.7071 49.8138 -104.5231)" class="st21" width="24.4" height="2.2"/>
	
		<rect x="-126.8" y="-128" transform="matrix(0.7071 -0.7071 0.7071 0.7071 54.9916 -117.0276)" class="st22" width="26" height="6.3"/>
	
		<rect x="-134.2" y="-151.2" transform="matrix(0.7071 -0.7071 0.7071 0.7071 60.039 -129.2124)" class="st22" width="16.4" height="28.2"/>
	
		<rect x="-118.5" y="-118.4" transform="matrix(0.7071 -0.7071 0.7071 0.7071 50.7566 -106.8031)" class="st8" width="30" height="7.4"/>
	<g>
		
			<rect x="-83.4" y="-98.6" transform="matrix(0.7072 -0.7071 0.7071 0.7072 39.9867 -80.7932)" class="st20" width="11.6" height="19.8"/>
		
			<rect x="-138.9" y="-150.5" transform="matrix(0.7068 -0.7074 0.7074 0.7068 65.0348 -141.3584)" class="st3" width="1.7" height="2.8"/>
		
			<rect x="-126.5" y="-126.4" transform="matrix(0.7072 -0.707 0.707 0.7072 54.0683 -114.7844)" class="st16" width="30" height="7.4"/>
		
			<rect x="-98.8" y="-112" transform="matrix(0.7071 -0.7072 0.7072 0.7071 45.8004 -94.8449)" class="st23" width="14.4" height="18.6"/>
		
			<rect x="-138.7" y="-149.8" transform="matrix(0.707 -0.7072 0.7072 0.707 64.3259 -139.5866)" class="st22" width="4.8" height="4.8"/>
		
			<rect x="-142.1" y="-153.3" transform="matrix(0.7071 -0.7071 0.7071 0.7071 66.376 -144.512)" class="st3" width="1.7" height="1.8"/>
		<g>
			
				<rect x="-109.8" y="-118.4" transform="matrix(0.707 -0.7072 0.7072 0.707 50.7579 -106.8248)" class="st16" width="12.4" height="7.4"/>
			
				<rect x="-115.2" y="-110.3" transform="matrix(0.7071 -0.7071 0.7071 0.7071 42.6991 -110.139)" class="st13" width="7.2" height="7.4"/>
			
				<rect x="-99.1" y="-126.4" transform="matrix(0.707 -0.7072 0.7072 0.707 58.8182 -103.4939)" class="st13" width="7.2" height="7.4"/>
		</g>
		<path class="st23" d="M-85.4-87.8c-0.8,0.8-2.1,0.8-2.9,0l0,0c-0.8-0.8-0.8-2.1,0-2.9l8.7-8.7c0.8-0.8,2.1-0.8,2.9,0l0,0
			c0.8,0.8,0.8,2.1,0,2.9L-85.4-87.8z"/>
		<path class="st23" d="M-81.4-83.8c-0.8,0.8-2.1,0.8-2.9,0l0,0c-0.8-0.8-0.8-2.1,0-2.9l8.7-8.7c0.8-0.8,2.1-0.8,2.9,0l0,0
			c0.8,0.8,0.8,2.1,0,2.9L-81.4-83.8z"/>
		<path class="st23" d="M-77.4-79.9c-0.8,0.8-2.1,0.8-2.9,0l0,0c-0.8-0.8-0.8-2.1,0-2.9l8.7-8.7c0.8-0.8,2.1-0.8,2.9,0l0,0
			c0.8,0.8,0.8,2.1,0,2.9L-77.4-79.9z"/>
		<path class="st23" d="M-73.4-75.9c-0.8,0.8-2.1,0.8-2.9,0l0,0c-0.8-0.8-0.8-2.1,0-2.9l8.7-8.7c0.8-0.8,2.1-0.8,2.9,0l0,0
			c0.8,0.8,0.8,2.1,0,2.9L-73.4-75.9z"/>
		
			<rect x="-65.8" y="-75.7" transform="matrix(0.7072 -0.707 0.707 0.7072 33.7553 -65.7486)" class="st15" width="6.6" height="4.2"/>
		<path class="st23" d="M-68.6-72.7l-3.6-3.6l7-7l3.6,3.6c1.2,1.2,1.2,3.2,0,4.5l-2.5,2.5C-65.3-71.5-67.3-71.5-68.6-72.7z"/>
		
			<rect x="-95.2" y="-112" transform="matrix(0.7071 -0.7071 0.7071 0.7071 45.7999 -94.8424)" class="st24" width="7.2" height="18.6"/>
		<path class="st24" d="M-83.2-90c-0.4,0.4-1.4,0.1-2.2-0.7l0,0c-0.8-0.8-1.1-1.8-0.7-2.2l4.3-4.3c0.4-0.4,1.4-0.1,2.2,0.7l0,0
			c0.8,0.8,1.1,1.8,0.7,2.2L-83.2-90z"/>
		<path class="st24" d="M-79.2-86c-0.4,0.4-1.4,0.1-2.2-0.7l0,0c-0.8-0.8-1.1-1.8-0.7-2.2l4.3-4.3c0.4-0.4,1.4-0.1,2.2,0.7l0,0
			c0.8,0.8,1.1,1.8,0.7,2.2L-79.2-86z"/>
		<path class="st24" d="M-75.2-82c-0.4,0.4-1.4,0.1-2.2-0.7l0,0c-0.8-0.8-1.1-1.8-0.7-2.2l4.3-4.3c0.4-0.4,1.4-0.1,2.2,0.7l0,0
			c0.8,0.8,1.1,1.8,0.7,2.2L-75.2-82z"/>
		<path class="st24" d="M-71.3-78.1c-0.4,0.4-1.4,0.1-2.2-0.7l0,0c-0.8-0.8-1.1-1.8-0.7-2.2l4.3-4.3c0.4-0.4,1.4-0.1,2.2,0.7l0,0
			c0.8,0.8,1.1,1.8,0.7,2.2L-71.3-78.1z"/>
		<path class="st24" d="M-66.8-74.5l-3.6-3.6l3.5-3.5l3.6,3.6c1.2,1.2,1.7,2.7,1.1,3.3l-1.2,1.2C-64.1-72.7-65.6-73.2-66.8-74.5z"/>
		<path class="st16" d="M-58.7-74.5l-4.6,4.6c-0.2,1.6,0.3,3.3,1.5,4.5c1,1,2.2,1.5,3.5,1.6l5.7-5.7c-0.1-1.3-0.6-2.5-1.6-3.5
			C-55.4-74.2-57.1-74.7-58.7-74.5z"/>
		<g>
			<g>
				<path class="st22" d="M-141.5-141.5l-1.3-1.3c-2.8-2.8-2.8-7.3,0-10.1l2.2-2.2l1.1,1.1l-2.2,2.2c-2.2,2.2-2.2,5.7,0,7.8l1.3,1.3
					L-141.5-141.5z"/>
			</g>
			
				<rect x="-145.2" y="-148.5" transform="matrix(0.7071 -0.7071 0.7071 0.7071 63.9471 -138.6509)" class="st25" width="19.7" height="3.9"/>
			
				<rect x="-126.5" y="-126.4" transform="matrix(0.7072 -0.707 0.707 0.7072 54.0683 -114.7844)" class="st16" width="30" height="7.4"/>
			
				<rect x="-118.5" y="-125.7" transform="matrix(0.7071 -0.7071 0.7071 0.7071 54.0686 -114.8004)" class="st8" width="14" height="6"/>
			
				<rect x="-140" y="-148" transform="matrix(0.7071 -0.7071 0.7071 0.7071 63.9467 -138.6518)" class="st8" width="9.2" height="3"/>
		</g>
		<g>
			<polygon class="st25" points="-106.3,-135.7 -104.5,-136.8 -105.6,-135 -123.9,-116.7 -125.7,-115.6 -124.6,-117.4 			"/>
			<polygon class="st25" points="-107.2,-136.6 -105.4,-137.7 -106.5,-135.9 -124.8,-117.6 -126.6,-116.5 -125.5,-118.4 			"/>
		</g>
		<g>
			<polygon class="st25" points="-126.4,-149.3 -124.7,-150.4 -125.8,-148.7 -137.5,-136.9 -139.2,-135.8 -138.1,-137.5 			"/>
			<polygon class="st25" points="-127.4,-150.3 -125.8,-151.4 -126.9,-149.7 -138.6,-138 -140.3,-136.9 -139.2,-138.6 			"/>
			<polygon class="st25" points="-123.2,-146.1 -121.5,-147.2 -122.6,-145.5 -134.4,-133.7 -136.1,-132.6 -135,-134.3 			"/>
			<polygon class="st25" points="-125.3,-148.2 -123.6,-149.3 -124.7,-147.6 -136.5,-135.9 -138.2,-134.8 -137.1,-136.5 			"/>
			<polygon class="st25" points="-122.2,-145 -120.5,-146.1 -121.6,-144.4 -133.3,-132.7 -135,-131.6 -133.9,-133.3 			"/>
			<polygon class="st25" points="-124.3,-147.1 -122.6,-148.3 -123.7,-146.6 -135.4,-134.8 -137.1,-133.7 -136,-135.4 			"/>
			<polygon class="st25" points="-120,-142.9 -118.3,-144 -119.4,-142.3 -131.2,-130.6 -132.9,-129.5 -131.8,-131.2 			"/>
			<polygon class="st25" points="-121.1,-144 -119.4,-145.1 -120.5,-143.4 -132.3,-131.6 -133.9,-130.5 -132.8,-132.2 			"/>
			<polygon class="st25" points="-117.9,-140.8 -116.2,-141.9 -117.3,-140.2 -129.1,-128.5 -130.8,-127.3 -129.7,-129 			"/>
			<polygon class="st25" points="-119,-141.8 -117.3,-143 -118.4,-141.3 -130.1,-129.5 -131.8,-128.4 -130.7,-130.1 			"/>
			<polygon class="st25" points="-114.7,-137.6 -113,-138.7 -114.1,-137 -125.9,-125.3 -127.6,-124.2 -126.5,-125.9 			"/>
			<polygon class="st25" points="-116.9,-139.7 -115.2,-140.8 -116.3,-139.1 -128,-127.4 -129.7,-126.3 -128.6,-128 			"/>
			<polygon class="st25" points="-113.7,-136.6 -112,-137.7 -113.1,-136 -124.8,-124.2 -126.5,-123.1 -125.4,-124.8 			"/>
			<polygon class="st25" points="-115.8,-138.7 -114.1,-139.8 -115.2,-138.1 -127,-126.3 -128.6,-125.2 -127.5,-126.9 			"/>
			<polygon class="st25" points="-111.6,-134.4 -109.9,-135.5 -111,-133.8 -122.7,-122.1 -124.4,-121 -123.3,-122.7 			"/>
			<polygon class="st25" points="-112.6,-135.5 -110.9,-136.6 -112,-134.9 -123.8,-123.2 -125.5,-122 -124.4,-123.7 			"/>
		</g>
		<path class="st15" d="M-114.5-109.9c-0.5,0.5-1.4,0.5-1.9,0l0,0c-0.5-0.5-0.5-1.4,0-1.9l15.7-15.7c0.5-0.5,1.4-0.5,1.9,0l0,0
			c0.5,0.5,0.5,1.4,0,1.9L-114.5-109.9z"/>
		<path class="st15" d="M-91.8-120.2l-17.3,17.3c1,1,2.7,1,3.7,0l13.6-13.6C-90.8-117.6-90.8-119.2-91.8-120.2z"/>
	</g>
	<polygon class="st20" points="-80.4,-99.8 -88.6,-91.6 -90.1,-91 -79.9,-101.2 	"/>
	<polygon class="st20" points="-65.2,-83.2 -72.1,-76.3 -73.4,-75.9 -64.8,-84.6 	"/>
	<path class="st8" d="M-54-70.8c0.6,0.6,0.6,1.5,0,2l-3.6,3.6c-0.6,0.6-1.5,0.6-2,0l0,0c-0.6-0.6-0.6-1.5,0-2l3.6-3.6
		C-55.5-71.3-54.6-71.3-54-70.8L-54-70.8z"/>
</g>
<g>
	
		<rect x="-275.3" y="-115.2" transform="matrix(0.707 -0.7072 0.7072 0.707 -0.4254 -223.1599)" class="st15" width="11.5" height="8.3"/>
	
		<rect x="-258.5" y="-98.4" transform="matrix(0.707 -0.7072 0.7072 0.707 -7.3947 -206.3312)" class="st15" width="11.5" height="8.3"/>
	
		<rect x="-292" y="-148.3" transform="matrix(0.7072 -0.707 0.707 0.7072 18.3518 -244.6936)" class="st15" width="11.5" height="7.6"/>
	
		<rect x="-224.9" y="-81.5" transform="matrix(0.7072 -0.7071 0.7071 0.7072 -9.441 -177.6058)" class="st15" width="11.5" height="8.3"/>
	
		<rect x="-258.5" y="-115.2" transform="matrix(0.7071 -0.7072 0.7072 0.7071 4.4737 -211.2715)" class="st15" width="11.5" height="8.3"/>
	
		<rect x="-241.7" y="-98.3" transform="matrix(0.707 -0.7072 0.7072 0.707 -2.4972 -194.4465)" class="st15" width="11.5" height="8.3"/>
	
		<rect x="-275.3" y="-132" transform="matrix(0.707 -0.7072 0.7072 0.707 11.4418 -228.1015)" class="st15" width="11.5" height="8.3"/>
	
		<rect x="-275.4" y="-148.8" transform="matrix(0.7072 -0.707 0.707 0.7072 23.3308 -232.9717)" class="st15" width="11.5" height="8.3"/>
	
		<rect x="-224.9" y="-98.3" transform="matrix(0.7072 -0.707 0.707 0.7072 2.4151 -182.5227)" class="st15" width="11.5" height="8.3"/>
	<g>
		<g>
			
				<rect x="-214.6" y="-72" transform="matrix(0.7073 -0.7069 0.7069 0.7073 -12.8902 -169.2133)" class="st16" width="7.6" height="5.8"/>
			
				<rect x="-295.1" y="-155.2" transform="matrix(0.7071 -0.7071 0.7071 0.7071 20.8368 -250.735)" class="st16" width="5.7" height="9.5"/>
			
				<rect x="-221.5" y="-75.8" transform="matrix(0.7072 -0.707 0.707 0.7072 -11.7174 -172.1054)" class="st16" width="15.8" height="7.7"/>
		</g>
		<g>
			<g>
				<g>
					<g>
						<g>
							
								<rect x="-275.3" y="-114.5" transform="matrix(0.707 -0.7072 0.7072 0.707 -0.4378 -223.1891)" class="st13" width="11.5" height="6.9"/>
						</g>
					</g>
				</g>
				<g>
					<g>
						
							<rect x="-258.5" y="-97.7" transform="matrix(0.707 -0.7072 0.7072 0.707 -7.4071 -206.3584)" class="st13" width="11.5" height="6.9"/>
					</g>
				</g>
			</g>
			<g>
				<g>
					<g>
						<g>
							
								<rect x="-292.2" y="-148.2" transform="matrix(0.7072 -0.707 0.707 0.7072 18.4637 -244.9032)" class="st13" width="11.5" height="6.9"/>
						</g>
					</g>
				</g>
				<g>
					<g>
						<g>
							
								<rect x="-224.9" y="-80.8" transform="matrix(0.7072 -0.707 0.707 0.7072 -9.4383 -177.6004)" class="st13" width="11.5" height="6.9"/>
						</g>
					</g>
				</g>
				<g>
					<g>
						
							<rect x="-258.5" y="-114.5" transform="matrix(0.7071 -0.7071 0.7071 0.7071 4.4811 -211.2516)" class="st13" width="11.5" height="6.9"/>
					</g>
				</g>
				<g>
					<g>
						<g>
							
								<rect x="-241.7" y="-97.7" transform="matrix(0.7071 -0.7071 0.7071 0.7071 -2.4886 -194.4266)" class="st13" width="11.5" height="6.9"/>
						</g>
					</g>
				</g>
				<g>
					<g>
						<g>
							
								<rect x="-275.3" y="-131.3" transform="matrix(0.7072 -0.707 0.707 0.7072 11.4608 -228.0484)" class="st13" width="11.5" height="6.9"/>
						</g>
					</g>
				</g>
			</g>
			<g>
				<g>
					<g>
						<g>
							
								<rect x="-275.4" y="-148.1" transform="matrix(0.7072 -0.707 0.707 0.7072 23.3334 -232.9623)" class="st13" width="11.5" height="6.9"/>
						</g>
					</g>
				</g>
				<g>
					<g>
						
							<rect x="-224.9" y="-97.6" transform="matrix(0.7072 -0.707 0.707 0.7072 2.4169 -182.5188)" class="st13" width="11.5" height="6.9"/>
					</g>
				</g>
			</g>
		</g>
		<g>
			<polygon class="st16" points="-260.7,-145.4 -262,-146.7 -274.5,-134.2 -278.5,-127.1 -277.2,-125.7 -264.7,-138.2 			"/>
			<polygon class="st16" points="-260.6,-128.6 -262,-130 -274.5,-117.5 -278.5,-110.3 -277.1,-109 -264.6,-121.5 			"/>
			<polygon class="st16" points="-235.2,-103.2 -233.8,-101.8 -246.3,-89.3 -253.5,-85.3 -254.8,-86.7 -242.3,-99.2 			"/>
			<polygon class="st16" points="-218.4,-103.1 -217.1,-101.8 -229.6,-89.3 -236.7,-85.3 -238.1,-86.6 -225.6,-99.1 			"/>
			<polygon class="st16" points="-268.9,-153.6 -267.5,-152.2 -271.1,-148.6 -285.6,-134.1 -288.5,-137.1 -276,-149.6 			"/>
			<polygon class="st16" points="-270.3,-102.2 -271.6,-103.5 -268,-107.1 -245.2,-129.9 -242.3,-127 -263.1,-106.1 			"/>
			<polygon class="st16" points="-210.2,-94.9 -211.6,-96.3 -215.2,-92.7 -238,-69.9 -235.1,-66.9 -214.2,-87.8 			"/>
			<polygon class="st16" points="-261.6,-93.5 -260.3,-92.2 -256.7,-95.8 -233.9,-118.6 -236.8,-121.5 -257.7,-100.7 			"/>
		</g>
		<g>
			<g>
				<g>
					<path class="st8" d="M-290.2-148l0.5-0.5c0.4-0.4,0.4-1,0-1.4l-3.1-3.1c-0.4-0.4-1-0.4-1.4,0l-0.5,0.5c-0.4,0.4-0.4,1,0,1.4
						l3.1,3.1C-291.2-147.6-290.6-147.6-290.2-148z"/>
				</g>
				<g>
					<path class="st8" d="M-215.8-66.4l7.6-7.6c0.4-0.4,0.4-1,0-1.4l-1.9-1.9c-0.4-0.4-1-0.4-1.4,0l-7.6,7.6c-0.4,0.4-0.4,1,0,1.4
						l1.9,1.9C-216.8-66-216.2-66-215.8-66.4z"/>
				</g>
				<g>
					<g>
						<path class="st8" d="M-275.4-129.7l9.5-9.5l2-3.6l-9.5,9.5L-275.4-129.7z"/>
					</g>
					<g>
						<path class="st8" d="M-275.3-112.9l9.5-9.5l2-3.6l-9.5,9.5L-275.3-112.9z"/>
					</g>
					<g>
						<path class="st8" d="M-250.9-88.5l3.6-2l9.5-9.5l-3.6,2L-250.9-88.5z"/>
					</g>
					<g>
						<path class="st8" d="M-234.1-88.4l3.6-2l9.5-9.5l-3.6,2L-234.1-88.4z"/>
					</g>
					<g>
						<path class="st8" d="M-285.6-136.3l14.1-14.1l-3.6,2l-11.3,11.3L-285.6-136.3z"/>
					</g>
					<g>
						<path class="st8" d="M-264.1-107.4l19.6-19.6l-0.8-0.8l-22.5,22.4L-264.1-107.4z"/>
					</g>
					<g>
						<path class="st8" d="M-235.9-69.9l0.8,0.8l19.6-19.6l2-3.6L-235.9-69.9z"/>
					</g>
					<g>
						<path class="st8" d="M-258.5-96.1l22.4-22.5l-0.8-0.8l-19.6,19.6L-258.5-96.1z"/>
					</g>
				</g>
			</g>
		</g>
	</g>
	<path class="st16" d="M-271.1-108.5l-1-1c-0.4-0.4-0.4-1,0-1.4l2.6-2.6c0.4-0.4,1-0.4,1.4,0l1,1c0.4,0.4,0.4,1,0,1.4l-2.6,2.6
		C-270.1-108.1-270.7-108.1-271.1-108.5z"/>
	<path class="st16" d="M-254.2-91.7l-1-1c-0.4-0.4-0.4-1,0-1.4l2.6-2.6c0.4-0.4,1-0.4,1.4,0l1,1c0.4,0.4,0.4,1,0,1.4l-2.6,2.6
		C-253.2-91.3-253.9-91.3-254.2-91.7z"/>
	<path class="st16" d="M-288-142.2l-1-1c-0.4-0.4-0.4-1,0-1.4l2.6-2.6c0.4-0.4,1-0.4,1.4,0l1,1c0.4,0.4,0.4,1,0,1.4l-2.6,2.6
		C-287-141.8-287.6-141.8-288-142.2z"/>
	<path class="st16" d="M-220.7-74.9l-1-1c-0.4-0.4-0.4-1,0-1.4l2.6-2.6c0.4-0.4,1-0.4,1.4,0l1,1c0.4,0.4,0.4,1,0,1.4l-2.6,2.6
		C-219.6-74.5-220.3-74.5-220.7-74.9z"/>
	<path class="st16" d="M-254.3-108.5l-1-1c-0.4-0.4-0.4-1,0-1.4l2.6-2.6c0.4-0.4,1-0.4,1.4,0l1,1c0.4,0.4,0.4,1,0,1.4l-2.6,2.6
		C-253.3-108.1-253.9-108.1-254.3-108.5z"/>
	<path class="st16" d="M-237.5-91.7l-1-1c-0.4-0.4-0.4-1,0-1.4l2.6-2.6c0.4-0.4,1-0.4,1.4,0l1,1c0.4,0.4,0.4,1,0,1.4l-2.6,2.6
		C-236.4-91.3-237.1-91.3-237.5-91.7z"/>
	<path class="st16" d="M-271.1-125.3l-1-1c-0.4-0.4-0.4-1,0-1.4l2.6-2.6c0.4-0.4,1-0.4,1.4,0l1,1c0.4,0.4,0.4,1,0,1.4l-2.6,2.6
		C-270.1-124.9-270.7-124.9-271.1-125.3z"/>
	<path class="st16" d="M-271.1-142.1l-1-1c-0.4-0.4-0.4-1,0-1.4l2.6-2.6c0.4-0.4,1-0.4,1.4,0l1,1c0.4,0.4,0.4,1,0,1.4l-2.6,2.6
		C-270.1-141.7-270.7-141.7-271.1-142.1z"/>
	<path class="st16" d="M-220.7-91.6l-1-1c-0.4-0.4-0.4-1,0-1.4l2.6-2.6c0.4-0.4,1-0.4,1.4,0l1,1c0.4,0.4,0.4,1,0,1.4l-2.6,2.6
		C-219.6-91.3-220.3-91.2-220.7-91.6z"/>
</g>
<g>
	
		<rect x="39.4" y="-125.1" transform="matrix(0.7071 -0.7071 0.7071 0.7071 96.805 -5.9684)" class="st4" width="3.6" height="10.6"/>
	<path class="st13" d="M7.3-153.8c-2.6,2.6-2.6,6.7,0,9.2L26.8-125c2.6,2.6,6.7,2.6,9.2,0c2.6-2.6,2.6-6.7,0-9.2l-19.5-19.5
		C14-156.3,9.8-156.3,7.3-153.8z M14.5-146.6c-1.2,1.2-3.2,1.2-4.5,0c-1.2-1.2-1.2-3.2,0-4.5c1.2-1.2,3.2-1.2,4.5,0
		C15.7-149.8,15.7-147.8,14.5-146.6z"/>
	<path class="st16" d="M44-129.1l-12,12c-0.9,0.9-2.3,0.9-3.2,0l-11.3-11.3c-0.9-0.9-0.9-2.3,0-3.2l12-12c0.9-0.9,2.3-0.9,3.2,0
		L44-132.3C44.9-131.4,44.9-129.9,44-129.1z"/>
	<path class="st8" d="M40.8-125.8l-5.6,5.6c-0.4,0.4-1.5,0-2.3-0.9l-11.3-11.3c-0.9-0.9-1.3-1.9-0.9-2.3l5.6-5.6
		c0.4-0.4,1.5,0,2.3,0.9l11.3,11.3C40.8-127.3,41.2-126.2,40.8-125.8z"/>
	<path class="st8" d="M19.2-129.3c-0.2-0.2-0.2-0.5,0-0.7l0,0c0.2-0.2,0.5-0.2,0.7,0l10.5,10.5c0.2,0.2,0.2,0.5,0,0.7l0,0
		c-0.2,0.2-0.5,0.2-0.7,0L19.2-129.3z"/>
	<path class="st8" d="M40.2-110.6c0.4,0.4,0.4,1,0,1.4c-0.4,0.4-1,0.4-1.4,0c-0.4-0.4-0.4-1,0-1.4C39.1-110.9,39.8-110.9,40.2-110.6
		z"/>
	<path class="st8" d="M45.5-105.2c0.4,0.4,0.4,1,0,1.4c-0.4,0.4-1,0.4-1.4,0c-0.4-0.4-0.4-1,0-1.4C44.5-105.6,45.1-105.6,45.5-105.2
		z"/>
	<path class="st8" d="M50.9-99.9c0.4,0.4,0.4,1,0,1.4c-0.4,0.4-1,0.4-1.4,0c-0.4-0.4-0.4-1,0-1.4C49.8-100.2,50.5-100.2,50.9-99.9z"
		/>
	<path class="st8" d="M56.2-94.5c0.4,0.4,0.4,1,0,1.4c-0.4,0.4-1,0.4-1.4,0c-0.4-0.4-0.4-1,0-1.4C55.2-94.9,55.8-94.9,56.2-94.5z"/>
	<path class="st8" d="M61.5-89.2c0.4,0.4,0.4,1,0,1.4c-0.4,0.4-1,0.4-1.4,0c-0.4-0.4-0.4-1,0-1.4C60.5-89.6,61.2-89.6,61.5-89.2z"/>
	<path class="st8" d="M66.9-83.8c0.4,0.4,0.4,1,0,1.4c-0.4,0.4-1,0.4-1.4,0c-0.4-0.4-0.4-1,0-1.4C65.9-84.2,66.5-84.2,66.9-83.8z"/>
	<g>
		<g>
			<rect x="85" y="-76.5" transform="matrix(0.707 -0.7072 0.7072 0.707 77.6506 40.3062)" class="st4" width="5" height="5.9"/>
			<path class="st13" d="M88.6-76.7l-4.3,4.3c-0.9,0.9-2.3,0.9-3.2,0l-42-42c-0.9-0.9-0.9-2.3,0-3.2l4.3-4.3c0.9-0.9,2.3-0.9,3.2,0
				l42,42C89.5-79.1,89.5-77.6,88.6-76.7z"/>
			<path class="st26" d="M87.5-75.6l-2,2c-0.4,0.4-1.5,0-2.4-0.9l-42-42c-0.9-0.9-1.3-1.9-0.9-2.4l2-2c0.4-0.4,1.5,0,2.4,0.9l42,42
				C87.5-77.1,87.9-76,87.5-75.6z"/>
			<path class="st16" d="M47.7-127.4c0.8,0.4,1.2,1.4,0.8,2.2L40.9-109c-0.4,0.8-1.4,1.2-2.2,0.8l0,0c-0.8-0.4-1.2-1.4-0.8-2.2
				l7.5-16.2C45.9-127.5,46.8-127.8,47.7-127.4L47.7-127.4z"/>
			<path class="st16" d="M53-122.1c0.8,0.4,1.2,1.4,0.8,2.2l-7.5,16.2c-0.4,0.8-1.4,1.2-2.2,0.8l0,0c-0.8-0.4-1.2-1.4-0.8-2.2
				l7.5-16.2C51.2-122.1,52.2-122.5,53-122.1L53-122.1z"/>
			<path class="st16" d="M63.7-111.4c0.8,0.4,1.2,1.4,0.8,2.2L57-93c-0.4,0.8-1.4,1.2-2.2,0.8l0,0c-0.8-0.4-1.2-1.4-0.8-2.2
				l7.6-16.2C61.9-111.4,62.9-111.8,63.7-111.4L63.7-111.4z"/>
			<path class="st16" d="M58.4-116.7c0.8,0.4,1.2,1.4,0.8,2.2l-7.5,16.2c-0.4,0.8-1.4,1.2-2.2,0.8l0,0c-0.8-0.4-1.2-1.4-0.8-2.2
				l7.5-16.2C56.6-116.8,57.5-117.1,58.4-116.7L58.4-116.7z"/>
			<path class="st16" d="M69.1-106c0.8,0.4,1.2,1.4,0.8,2.2l-7.5,16.2c-0.4,0.8-1.4,1.2-2.2,0.8l0,0c-0.8-0.4-1.2-1.4-0.8-2.2
				l7.5-16.2C67.3-106.1,68.2-106.4,69.1-106L69.1-106z"/>
			<path class="st16" d="M74.4-100.7c0.8,0.4,1.2,1.4,0.8,2.2l-7.5,16.2c-0.4,0.8-1.4,1.2-2.2,0.8l0,0c-0.8-0.4-1.2-1.4-0.8-2.2
				l7.5-16.2C72.6-100.7,73.6-101.1,74.4-100.7L74.4-100.7z"/>
			<path class="st16" d="M79.1-93.9c0.8,0.4,1.2,1.4,0.8,2.2l-6.2,13.4c-0.4,0.8-1.4,1.2-2.2,0.8l0,0c-0.8-0.4-1.2-1.4-0.8-2.2
				l6.2-13.4C77.3-94,78.2-94.3,79.1-93.9L79.1-93.9z"/>
			<path class="st16" d="M86.4-86c0.6,0.6,0.6,1.7,0,2.3l-9,9c-0.6,0.6-1.7,0.6-2.4,0l0,0c-0.6-0.6-0.6-1.7,0-2.3l9-9
				C84.6-86.7,85.7-86.7,86.4-86L86.4-86z"/>
			<path class="st13" d="M88.5-72.5c-2.1,2.1-2.1,5.5,0,7.5c2.1,2.1,5.5,2.1,7.5,0c2.1-2.1,2.1-5.5,0-7.5
				C94-74.6,90.6-74.6,88.5-72.5z M94.5-66.6c-1.2,1.2-3.1,1.2-4.3,0c-1.2-1.2-1.2-3.1,0-4.3c1.2-1.2,3.1-1.2,4.3,0
				C95.7-69.7,95.7-67.8,94.5-66.6z"/>
		</g>
		<path class="st27" d="M25.1-134c-0.5-0.5-0.5-1.4,0-1.9l0,0c0.5-0.5,1.4-0.5,1.9,0l9.3,9.3c0.5,0.5,0.5,1.4,0,1.9l0,0
			c-0.5,0.5-1.4,0.5-1.9,0L25.1-134z"/>
		<path class="st8" d="M73-79.9c0.4,0.4,0.4,1,0,1.4c-0.4,0.4-1,0.4-1.4,0c-0.4-0.4-0.4-1,0-1.4C72-80.3,72.6-80.3,73-79.9z"/>
		<path class="st8" d="M76.9-76.6c0.4,0.4,0.4,1,0,1.4c-0.4,0.4-1,0.4-1.4,0c-0.4-0.4-0.4-1,0-1.4C75.9-77,76.5-77,76.9-76.6z"/>
		<g>
			<path class="st16" d="M95.6-65.4c-0.9,0.9-2.2,1.4-3.5,1.3c-0.3,0-0.5-0.3-0.5-0.5c0-0.3,0.3-0.5,0.5-0.5c1,0.1,2-0.3,2.7-1
				c0.2-0.2,0.5-0.2,0.7,0C95.8-65.9,95.8-65.6,95.6-65.4z"/>
		</g>
		<g>
			<path class="st16" d="M15.5-152.7c-0.2-0.2-0.4-0.3-0.6-0.5v0.5c0.2,0.2,0.5,0.3,0.7,0.6c0.9,0.9,1.4,2.1,1.4,3.3
				c0,1.2-0.5,2.4-1.4,3.3l0,0c-0.2,0.2-0.4,0.4-0.7,0.6v5.9l4,4l0-14.2L15.5-152.7z"/>
			<polygon class="st16" points="24.6,-140.4 24.6,-143.5 22.6,-145.6 22.6,-138.4 			"/>
		</g>
		<g>
			<path class="st4" d="M15-146.1l-0.3-0.3L15-146.1c-0.7,0.7-1.7,1.1-2.7,1.1c-1,0-2-0.4-2.7-1.1c-0.7-0.7-1.1-1.7-1.1-2.7
				c0-1,0.4-2,1.1-2.7c0.7-0.7,1.7-1.1,2.7-1.1c1,0,2,0.4,2.7,1.1c0.7,0.7,1.1,1.7,1.1,2.7C16.1-147.8,15.7-146.8,15-146.1z M10-151
				c-0.6,0.6-0.9,1.4-0.9,2.2c0,0.8,0.3,1.6,0.9,2.2c0.6,0.6,1.4,0.9,2.2,0.9c0.8,0,1.6-0.3,2.2-0.9l0,0c0.6-0.6,0.9-1.4,0.9-2.2
				c0-0.8-0.3-1.6-0.9-2.2c-0.6-0.6-1.4-0.9-2.2-0.9C11.4-151.9,10.6-151.6,10-151z"/>
		</g>
	</g>
</g>
<g>
	<rect x="8.4" y="168.8" class="st15" width="89.7" height="58.2"/>
	<rect x="79.3" y="226" class="st15" width="10.4" height="4.1"/>
	<rect x="16.8" y="226" class="st15" width="10.4" height="4.1"/>
	<rect x="78.3" y="228.3" class="st13" width="12.5" height="1.9"/>
	<rect x="15.8" y="228.3" class="st13" width="12.5" height="1.9"/>
	<g>
		<g>
			<g>
				<g>
					<rect x="82.2" y="163.4" class="st6" width="4.7" height="5.4"/>
				</g>
				<g>
					<g>
						<rect x="19.6" y="163.4" class="st6" width="4.7" height="5.4"/>
					</g>
				</g>
			</g>
			<path class="st12" d="M5.9,227c-3.3,0-5.9-2.7-5.9-5.9v-44.3c0-3.3,2.6-5.9,5.9-5.9v2.5c-1.9,0-3.4,1.5-3.4,3.4v44.3
				c0,1.9,1.5,3.4,3.4,3.4V227z"/>
			<g>
				<rect x="98.9" y="223.6" class="st13" width="4.8" height="3.4"/>
			</g>
			<rect x="-0.8" y="177.8" class="st11" width="4.3" height="43.2"/>
			<g>
				<g>
					<rect x="9.9" y="167.9" class="st13" width="86.8" height="1.7"/>
					<rect x="9.9" y="225.3" class="st13" width="86.8" height="1.7"/>
					<rect x="9.9" y="173.1" class="st13" width="86.8" height="1.7"/>
					<rect x="9.9" y="220.1" class="st13" width="86.8" height="1.7"/>
				</g>
			</g>
		</g>
		<g>
			<g>
				<g>
					<path class="st2" d="M59,182.4c0,2.9-7.2,8.9-9.3,11c-2.1,2.1-1.4-8-1.4-11c0-2.9,2.4-5.3,5.3-5.3
						C56.6,177.1,59,179.4,59,182.4z"/>
					<path class="st2" d="M47.6,212.5c0-2.9,7.2-8.9,9.3-11c2.1-2.1,1.4,8,1.4,11c0,2.9-2.4,5.3-5.3,5.3
						C50,217.8,47.6,215.5,47.6,212.5z"/>
					<path class="st2" d="M68.4,203.2c-2.9,0-8.9-7.2-11-9.3c-2.1-2.1,8-1.4,11-1.4c2.9,0,5.3,2.4,5.3,5.3
						C73.7,200.8,71.3,203.2,68.4,203.2z"/>
					<path class="st2" d="M38.2,191.7c2.9,0,8.9,7.2,11,9.3c2.1,2.1-8,1.4-11,1.4c-2.9,0-5.3-2.4-5.3-5.3
						C32.9,194.1,35.3,191.7,38.2,191.7z"/>
				</g>
			</g>
			<path class="st3" d="M53.3,191.4c-3.4,0-6.1,2.7-6.1,6.1s2.7,6.1,6.1,6.1c3.4,0,6.1-2.7,6.1-6.1S56.7,191.4,53.3,191.4z"/>
			<path class="st16" d="M53.3,199.1c-0.9,0-1.7-0.8-1.7-1.7s0.8-1.7,1.7-1.7c0.9,0,1.7,0.8,1.7,1.7S54.2,199.1,53.3,199.1z"/>
		</g>
		<g>
			<path class="st13" d="M36.5,183.6H9.9v1.7h25.6C35.8,184.7,36.2,184.1,36.5,183.6z"/>
			<path class="st13" d="M70,183.6c0.4,0.5,0.7,1.1,1.1,1.7h25.6v-1.7H70z"/>
		</g>
		<g>
			<path class="st13" d="M41.5,178.4H9.9v1.7h29.7C40.2,179.4,40.9,178.9,41.5,178.4z"/>
			<path class="st13" d="M65,178.4c0.7,0.5,1.3,1.1,1.9,1.7h29.7v-1.7H65z"/>
		</g>
		<g>
			<path class="st13" d="M32.7,188.8H9.9v1.7h22.3C32.3,189.9,32.5,189.3,32.7,188.8z"/>
			<path class="st13" d="M73.8,188.8c0.2,0.5,0.4,1.1,0.6,1.7h22.3v-1.7H73.8z"/>
		</g>
		<g>
			<path class="st13" d="M31.4,194H9.9v1.7h21.3C31.2,195.1,31.3,194.6,31.4,194z"/>
			<path class="st13" d="M75.2,194c0.1,0.5,0.1,1.1,0.2,1.7h21.3V194H75.2z"/>
		</g>
		<g>
			<path class="st13" d="M31.2,199.2H9.9v1.7h21.5C31.3,200.3,31.2,199.8,31.2,199.2z"/>
			<path class="st13" d="M75.4,199.2c0,0.6-0.1,1.1-0.2,1.7h21.5v-1.7H75.4z"/>
		</g>
		<g>
			<path class="st13" d="M32.2,204.4H9.9v1.7h22.8C32.5,205.6,32.3,205,32.2,204.4z"/>
			<path class="st13" d="M74.4,204.4c-0.2,0.6-0.4,1.1-0.6,1.7h22.8v-1.7H74.4z"/>
		</g>
		<g>
			<path class="st13" d="M35.5,209.7H9.9v1.7h26.6C36.2,210.8,35.8,210.2,35.5,209.7z"/>
			<path class="st13" d="M71.1,209.7c-0.3,0.6-0.7,1.1-1.1,1.7h26.6v-1.7H71.1z"/>
		</g>
		<g>
			<path class="st13" d="M39.6,214.9H9.9v1.7h31.6C40.9,216,40.2,215.5,39.6,214.9z"/>
			<path class="st13" d="M67,214.9c-0.6,0.6-1.3,1.1-1.9,1.7h31.6v-1.7H67z"/>
		</g>
	</g>
	<path class="st16" d="M53.3,174.8c-12.5,0-22.7,10.1-22.7,22.7s10.1,22.7,22.7,22.7c12.5,0,22.7-10.1,22.7-22.7
		S65.8,174.8,53.3,174.8z M53.3,218.4c-11.6,0-21-9.4-21-21c0-11.6,9.4-21,21-21c11.6,0,21,9.4,21,21
		C74.3,209,64.9,218.4,53.3,218.4z"/>
	<rect x="5.9" y="224.5" class="st28" width="0.8" height="2.5"/>
	<rect x="5.9" y="170.9" class="st28" width="0.8" height="2.5"/>
	<rect x="96.5" y="165.8" class="st16" width="3.3" height="61.2"/>
	<rect x="6.8" y="165.8" class="st16" width="3.3" height="61.2"/>
</g>
<g>
	<g>
		<path class="st29" d="M-98.7,149.1c-26.3,0-47.6,21.4-47.6,47.6c0,26.3,21.4,47.6,47.6,47.6s47.6-21.4,47.6-47.6
			C-51.1,170.5-72.5,149.1-98.7,149.1z M-98.7,234.8c-21,0-38-17.1-38-38c0-21,17.1-38,38-38s38,17.1,38,38
			C-60.7,217.7-77.8,234.8-98.7,234.8z"/>
		<g>
			<g>
				<g>
					<path class="st19" d="M-64.9,223.4c-8.2,10.4-20.6,16.4-33.8,16.4c-13.2,0-25.6-6-33.8-16.4c-1-1.3-2.9-1.6-4.3-0.6
						c8.3,12.1,22.3,20.1,38,20.1c15.8,0,29.7-8,38.1-20.1C-62,221.8-63.9,222.1-64.9,223.4z"/>
					<path class="st19" d="M-98.7,150.6c-23.7,0-43.3,18-45.8,41c1.6,0.2,3.2-0.9,3.5-2.5c3.7-20.5,21.5-35.4,42.4-35.4
						c20.8,0,38.7,14.9,42.4,35.4c0.3,1.5,1.6,2.5,3,2.5c0.1,0,0.3,0,0.4,0C-55.4,168.6-75,150.6-98.7,150.6z"/>
				</g>
				<path class="st18" d="M-53.3,193.4c-2.4,0-4.4-1.7-4.8-4c-3.5-19.7-20.6-33.9-40.6-33.9c-20,0-37.1,14.3-40.6,33.9
					c-0.4,2.3-2.4,4-4.8,4c-0.2,0-0.4,0-0.6,0c-0.1,1.1-0.1,2.3-0.1,3.4c0,9,2.6,17.5,7.1,24.6c0.8-0.6,1.8-0.9,2.8-0.9
					c1.5,0,2.9,0.7,3.8,1.8c7.9,10,19.7,15.7,32.4,15.7s24.5-5.7,32.4-15.7c0.9-1.2,2.3-1.8,3.8-1.8c1,0,2,0.3,2.8,0.9
					c4.5-7.1,7.1-15.6,7.1-24.6c0-1.1,0-2.3-0.1-3.4C-52.9,193.4-53.1,193.4-53.3,193.4z M-98.7,236.3c-21.8,0-39.5-17.7-39.5-39.5
					c0-21.8,17.7-39.5,39.5-39.5c21.8,0,39.5,17.7,39.5,39.5C-59.2,218.6-76.9,236.3-98.7,236.3z"/>
			</g>
			<path class="st29" d="M-61.6,206c-1.2,0.5-2.9,0-4.6-1.4c-0.9-0.7-1.8-1.4-2.8-2c-1.6-1-2.3-6.2-5-10.3c-1.6-2.4-4-4.5-7-5.4
				c-1.9-0.6-3.8-1.1-5.8-1.5c-3.2-0.7-5.9-5-5.9-10v-8.2c0-3.4,1.9-6.1,4.5-6.9c-3.3-1-6.9-1.5-10.5-1.5c-3.6,0-7.2,0.5-10.5,1.5
				c2.6,0.8,4.5,3.5,4.5,6.9v8.2c0,5-2.7,9.3-5.9,10c-1.9,0.4-3.9,0.9-5.8,1.5c-3,1-5.4,3-7,5.4c-2.7,4.2-3.4,9.3-5,10.3
				c-1,0.6-1.9,1.3-2.8,2c-1.7,1.4-3.4,1.9-4.6,1.4c1.6,6.5,4.9,12.4,9.3,17.1c-0.6-1.8-0.4-3.4,0.7-4.1c1.2-0.8,2.4-1.7,3.7-2.4
				c6.2-3.5,14.5-4.6,23.4-4.6c8.9,0,17.2,1,23.4,4.6c1.2,0.7,2.5,1.5,3.7,2.4c1,0.7,1.3,2.3,0.7,4.1
				C-66.5,218.4-63.2,212.5-61.6,206z"/>
			<g>
				<g>
					<path class="st19" d="M-132.5,208.3c1.1,3.3,2.7,6.3,4.7,9.2c0.2-0.2,0.4-0.4,0.6-0.5c1.5-1,2.7-1.8,3.9-2.5
						c5.8-3.3,13.7-4.9,24.6-4.9c11,0,18.8,1.6,24.7,4.9c1.2,0.7,2.4,1.5,3.9,2.5c0.2,0.2,0.4,0.3,0.6,0.5c2-2.8,3.6-5.9,4.7-9.2
						c-1-0.4-2-0.9-2.9-1.7c-0.8-0.6-1.7-1.3-2.6-1.9c-1.5-1-2.2-2.9-3.1-5.3c-0.7-1.9-1.4-4-2.6-5.8c-1.4-2.1-3.4-3.7-5.6-4.4
						c-1.8-0.6-3.7-1.1-5.5-1.5c-4.5-1-7.9-6.3-7.9-12.4v-8.2c0-2,0.5-3.9,1.5-5.5c-3.3-0.5-6.7-0.5-10,0c1,1.6,1.5,3.5,1.5,5.5v8.2
						c0,6.1-3.4,11.5-7.9,12.4c-1.9,0.4-3.7,0.9-5.5,1.5c-2.3,0.7-4.3,2.3-5.6,4.4c-1.2,1.8-1.9,3.9-2.6,5.8
						c-0.9,2.4-1.6,4.3-3.1,5.3c-0.9,0.6-1.8,1.2-2.6,1.9C-130.6,207.4-131.6,207.9-132.5,208.3z"/>
				</g>
			</g>
			<ellipse class="st29" cx="-98.7" cy="196.6" rx="14.2" ry="7.9"/>
			<ellipse class="st19" cx="-98.7" cy="196.6" rx="11.7" ry="6.5"/>
			<polygon class="st29" points="-98.9,198.1 -106.3,198.1 -107.5,195.9 -100.2,195.9 			"/>
			<polygon class="st29" points="-91.8,198.1 -96.6,198.1 -97.8,195.9 -93,195.9 			"/>
		</g>
	</g>
	<polygon class="st27" points="-98.6,197.7 -105.9,197.7 -107.2,195.5 -99.8,195.5 	"/>
	<polygon class="st27" points="-91.4,197.7 -96.2,197.7 -97.5,195.5 -92.7,195.5 	"/>
</g>
</svg>
