<?xml version="1.0" encoding="utf-8"?>
<!-- Generator: Adobe Illustrator 26.0.2, SVG Export Plug-In . SVG Version: 6.00 Build 0)  -->
<svg version="1.1" id="Layer_3" xmlns="http://www.w3.org/2000/svg" xmlns:xlink="http://www.w3.org/1999/xlink" x="0px" y="0px"
	 viewBox="0 0 22.3 27.3" style="enable-background:new 0 0 22.3 27.3;" xml:space="preserve">
<style type="text/css">
	.st0{opacity:0.6;fill:url(#SVGID_1_);}
	.st1{opacity:0.6;fill:url(#SVGID_00000115510750954102792510000005503027835777287306_);}
	.st2{opacity:0.6;fill:url(#SVGID_00000036242590127535252090000009238478914938058885_);}
	.st3{opacity:0.6;fill:url(#SVGID_00000112626939540765487090000008900720758493315471_);}
	.st4{opacity:0.6;fill:url(#SVGID_00000155868212672254626790000012598727326758491286_);}
	.st5{opacity:0.6;fill:url(#SVGID_00000033353669325332194890000001238263692840704409_);}
	.st6{opacity:0.6;fill:url(#SVGID_00000170276710721558446500000007060472552209445791_);}
	.st7{opacity:0.6;fill:url(#SVGID_00000158027560303333255470000010289181091587378092_);}
	.st8{opacity:0.6;fill:url(#SVGID_00000065785651960318407440000010182855521817043078_);}
	.st9{opacity:0.6;fill:url(#SVGID_00000158019931537489998780000014676806234510773681_);}
	.st10{opacity:0.6;fill:url(#SVGID_00000129910527816217531940000003185111882437232257_);}
	.st11{opacity:0.6;fill:url(#SVGID_00000111176889824869850090000007762715626221859254_);}
	.st12{opacity:0.6;fill:url(#SVGID_00000052063867435962100280000009738060484710385845_);}
	.st13{opacity:0.6;fill:url(#SVGID_00000096029698675339731200000014888658021949990282_);}
	.st14{opacity:0.6;fill:url(#SVGID_00000014623905128486645200000005798510324575360897_);}
	.st15{opacity:0.6;fill:url(#SVGID_00000115483716109740464910000007591748524679692950_);}
	.st16{fill:#575756;}
	.st17{fill:#B2B2B2;}
	.st18{fill:#DADADA;}
	.st19{fill:#878787;}
	.st20{opacity:0.15;}
	.st21{fill:#3C3C3B;}
	.st22{fill:#9D9D9C;}
	.st23{fill:#C6C6C6;}
	.st24{fill:#1D1D1B;}
	.st25{fill:#FF7122;}
	.st26{fill-rule:evenodd;clip-rule:evenodd;fill:#31A0CF;}
	.st27{fill-rule:evenodd;clip-rule:evenodd;fill:#2780A6;}
	.st28{opacity:0.15;fill:#1D1D1B;}
	.st29{fill:#838769;}
	.st30{fill:#969D79;}
	.st31{fill:#ADB28B;}
	.st32{fill:#E7EDB9;}
	.st33{fill:#D1A556;}
	.st34{fill:#E8B75F;}
	.st35{opacity:0.46;fill:#FFFFFF;}
	.st36{fill:#BCBCBC;}
	.st37{fill:#A8A8A6;}
	.st38{fill:#CFCFCF;}
	.st39{fill:#E2E2E2;}
	.st40{fill:#F6F6F6;}
	.st41{fill:#706F6F;}
	.st42{fill:#9E9E9E;}
	.st43{fill:#B4B4B3;}
	.st44{fill:#EDEDED;}
	.st45{opacity:0.36;fill:#FFFFFF;}
	.st46{fill:#FFFFFF;}
	.st47{fill:#6D797C;}
	.st48{fill:#838F92;}
	.st49{fill:#585F63;}
	.st50{fill:#CBDCE4;}
	.st51{fill:#D4F4FF;}
	.st52{fill:#E6332A;}
	.st53{fill:#C72C24;}
	.st54{fill:#AD261F;}
	.st55{fill-rule:evenodd;clip-rule:evenodd;fill:#226E8F;}
	.st56{fill-rule:evenodd;clip-rule:evenodd;fill:#2A88B0;}
	.st57{fill:#FFBB4D;}
	.st58{fill:#D49B40;}
	.st59{fill-rule:evenodd;clip-rule:evenodd;fill:#2C90BA;}
	.st60{fill-rule:evenodd;clip-rule:evenodd;fill:#1D1D1B;}
	.st61{fill:#E94E1B;}
	.st62{fill:#BA3E16;}
	.st63{fill:#CED4A5;}
	.st64{fill:#6A6E55;}
	.st65{fill:#4F523F;}
	.st66{fill:#C49B51;}
</style>
<radialGradient id="SVGID_1_" cx="-358.6475" cy="140.1553" r="40.8662" gradientTransform="matrix(1 0 0 0.2222 0 140.4725)" gradientUnits="userSpaceOnUse">
	<stop  offset="0" style="stop-color:#B3B3B3"/>
	<stop  offset="4.409379e-02" style="stop-color:#B9B9B9"/>
	<stop  offset="0.2981" style="stop-color:#D7D7D7"/>
	<stop  offset="0.5464" style="stop-color:#EDEDED"/>
	<stop  offset="0.7842" style="stop-color:#FAFAFA"/>
	<stop  offset="1" style="stop-color:#FFFFFF"/>
</radialGradient>
<ellipse class="st0" cx="-358.6" cy="171.6" rx="40.9" ry="9.1"/>
<radialGradient id="SVGID_00000073708053904571772940000013636732215727713941_" cx="-361.9653" cy="622.8741" r="40.866" gradientTransform="matrix(0.7572 0 0 0.2222 -89.7044 140.4725)" gradientUnits="userSpaceOnUse">
	<stop  offset="0" style="stop-color:#B3B3B3"/>
	<stop  offset="4.409379e-02" style="stop-color:#B9B9B9"/>
	<stop  offset="0.2981" style="stop-color:#D7D7D7"/>
	<stop  offset="0.5464" style="stop-color:#EDEDED"/>
	<stop  offset="0.7842" style="stop-color:#FAFAFA"/>
	<stop  offset="1" style="stop-color:#FFFFFF"/>
</radialGradient>
<ellipse style="opacity:0.6;fill:url(#SVGID_00000073708053904571772940000013636732215727713941_);" cx="-363.8" cy="278.9" rx="30.9" ry="9.1"/>
<radialGradient id="SVGID_00000128462643910036203260000016948289886480479637_" cx="-363.7846" cy="1105.1816" r="40.8661" gradientTransform="matrix(1 0 0 0.2222 0 140.4725)" gradientUnits="userSpaceOnUse">
	<stop  offset="0" style="stop-color:#B3B3B3"/>
	<stop  offset="4.409379e-02" style="stop-color:#B9B9B9"/>
	<stop  offset="0.2981" style="stop-color:#D7D7D7"/>
	<stop  offset="0.5464" style="stop-color:#EDEDED"/>
	<stop  offset="0.7842" style="stop-color:#FAFAFA"/>
	<stop  offset="1" style="stop-color:#FFFFFF"/>
</radialGradient>
<ellipse style="opacity:0.6;fill:url(#SVGID_00000128462643910036203260000016948289886480479637_);" cx="-363.8" cy="386" rx="40.9" ry="9.1"/>
<radialGradient id="SVGID_00000158737431722008480780000002294249496282751905_" cx="-259.9175" cy="1105.1816" r="40.8661" gradientTransform="matrix(1 0 0 0.2222 0 140.4725)" gradientUnits="userSpaceOnUse">
	<stop  offset="0" style="stop-color:#B3B3B3"/>
	<stop  offset="4.409379e-02" style="stop-color:#B9B9B9"/>
	<stop  offset="0.2981" style="stop-color:#D7D7D7"/>
	<stop  offset="0.5464" style="stop-color:#EDEDED"/>
	<stop  offset="0.7842" style="stop-color:#FAFAFA"/>
	<stop  offset="1" style="stop-color:#FFFFFF"/>
</radialGradient>
<ellipse style="opacity:0.6;fill:url(#SVGID_00000158737431722008480780000002294249496282751905_);" cx="-259.9" cy="386" rx="40.9" ry="9.1"/>
<radialGradient id="SVGID_00000003797553150722514780000006880481270747168657_" cx="-163.4804" cy="1105.1816" r="40.8661" gradientTransform="matrix(1 0 0 0.2222 0 140.4725)" gradientUnits="userSpaceOnUse">
	<stop  offset="0" style="stop-color:#B3B3B3"/>
	<stop  offset="4.409379e-02" style="stop-color:#B9B9B9"/>
	<stop  offset="0.2981" style="stop-color:#D7D7D7"/>
	<stop  offset="0.5464" style="stop-color:#EDEDED"/>
	<stop  offset="0.7842" style="stop-color:#FAFAFA"/>
	<stop  offset="1" style="stop-color:#FFFFFF"/>
</radialGradient>
<ellipse style="opacity:0.6;fill:url(#SVGID_00000003797553150722514780000006880481270747168657_);" cx="-163.5" cy="386" rx="40.9" ry="9.1"/>
<radialGradient id="SVGID_00000168829633509991999110000000635473311540639917_" cx="-73.3829" cy="1105.1816" r="40.8661" gradientTransform="matrix(1 0 0 0.2222 0 140.4725)" gradientUnits="userSpaceOnUse">
	<stop  offset="0" style="stop-color:#B3B3B3"/>
	<stop  offset="4.409379e-02" style="stop-color:#B9B9B9"/>
	<stop  offset="0.2981" style="stop-color:#D7D7D7"/>
	<stop  offset="0.5464" style="stop-color:#EDEDED"/>
	<stop  offset="0.7842" style="stop-color:#FAFAFA"/>
	<stop  offset="1" style="stop-color:#FFFFFF"/>
</radialGradient>
<ellipse style="opacity:0.6;fill:url(#SVGID_00000168829633509991999110000000635473311540639917_);" cx="-73.4" cy="386" rx="40.9" ry="9.1"/>
<radialGradient id="SVGID_00000042704261068807058670000013887133844117237420_" cx="-73.3829" cy="1554.8307" r="40.8661" gradientTransform="matrix(1 0 0 0.2222 0 140.4725)" gradientUnits="userSpaceOnUse">
	<stop  offset="0" style="stop-color:#B3B3B3"/>
	<stop  offset="4.409379e-02" style="stop-color:#B9B9B9"/>
	<stop  offset="0.2981" style="stop-color:#D7D7D7"/>
	<stop  offset="0.5464" style="stop-color:#EDEDED"/>
	<stop  offset="0.7842" style="stop-color:#FAFAFA"/>
	<stop  offset="1" style="stop-color:#FFFFFF"/>
</radialGradient>
<ellipse style="opacity:0.6;fill:url(#SVGID_00000042704261068807058670000013887133844117237420_);" cx="-73.4" cy="486" rx="40.9" ry="9.1"/>
<radialGradient id="SVGID_00000022548838980614901210000012804299342928487325_" cx="-162.2242" cy="1554.8307" r="40.8661" gradientTransform="matrix(1 0 0 0.2222 0 140.4725)" gradientUnits="userSpaceOnUse">
	<stop  offset="0" style="stop-color:#B3B3B3"/>
	<stop  offset="4.409379e-02" style="stop-color:#B9B9B9"/>
	<stop  offset="0.2981" style="stop-color:#D7D7D7"/>
	<stop  offset="0.5464" style="stop-color:#EDEDED"/>
	<stop  offset="0.7842" style="stop-color:#FAFAFA"/>
	<stop  offset="1" style="stop-color:#FFFFFF"/>
</radialGradient>
<ellipse style="opacity:0.6;fill:url(#SVGID_00000022548838980614901210000012804299342928487325_);" cx="-162.2" cy="486" rx="40.9" ry="9.1"/>
<radialGradient id="SVGID_00000068675179676584901760000003793222719013957281_" cx="-260.8859" cy="1554.8307" r="40.866" gradientTransform="matrix(0.8372 0 0 0.2222 -42.6171 140.4725)" gradientUnits="userSpaceOnUse">
	<stop  offset="0" style="stop-color:#B3B3B3"/>
	<stop  offset="4.409379e-02" style="stop-color:#B9B9B9"/>
	<stop  offset="0.2981" style="stop-color:#D7D7D7"/>
	<stop  offset="0.5464" style="stop-color:#EDEDED"/>
	<stop  offset="0.7842" style="stop-color:#FAFAFA"/>
	<stop  offset="1" style="stop-color:#FFFFFF"/>
</radialGradient>
<ellipse style="opacity:0.6;fill:url(#SVGID_00000068675179676584901760000003793222719013957281_);" cx="-261" cy="486" rx="34.2" ry="9.1"/>
<radialGradient id="SVGID_00000113341974823609688580000009727590676707106226_" cx="-359.3837" cy="1554.8307" r="40.8661" gradientTransform="matrix(1 0 0 0.2222 0 140.4725)" gradientUnits="userSpaceOnUse">
	<stop  offset="0" style="stop-color:#B3B3B3"/>
	<stop  offset="4.409379e-02" style="stop-color:#B9B9B9"/>
	<stop  offset="0.2981" style="stop-color:#D7D7D7"/>
	<stop  offset="0.5464" style="stop-color:#EDEDED"/>
	<stop  offset="0.7842" style="stop-color:#FAFAFA"/>
	<stop  offset="1" style="stop-color:#FFFFFF"/>
</radialGradient>
<ellipse style="opacity:0.6;fill:url(#SVGID_00000113341974823609688580000009727590676707106226_);" cx="-359.4" cy="486" rx="40.9" ry="9.1"/>
<radialGradient id="SVGID_00000073707673089750574560000001232165927316692887_" cx="-277.0219" cy="622.8741" r="40.8662" gradientTransform="matrix(1 0 0 0.2222 0 140.4725)" gradientUnits="userSpaceOnUse">
	<stop  offset="0" style="stop-color:#B3B3B3"/>
	<stop  offset="4.409379e-02" style="stop-color:#B9B9B9"/>
	<stop  offset="0.2981" style="stop-color:#D7D7D7"/>
	<stop  offset="0.5464" style="stop-color:#EDEDED"/>
	<stop  offset="0.7842" style="stop-color:#FAFAFA"/>
	<stop  offset="1" style="stop-color:#FFFFFF"/>
</radialGradient>
<ellipse style="opacity:0.6;fill:url(#SVGID_00000073707673089750574560000001232165927316692887_);" cx="-277" cy="278.9" rx="40.9" ry="9.1"/>
<radialGradient id="SVGID_00000134229840928254678420000016026155660807332029_" cx="-161.4052" cy="622.8741" r="40.8662" gradientTransform="matrix(1 0 0 0.2222 0 140.4725)" gradientUnits="userSpaceOnUse">
	<stop  offset="0" style="stop-color:#B3B3B3"/>
	<stop  offset="4.409379e-02" style="stop-color:#B9B9B9"/>
	<stop  offset="0.2981" style="stop-color:#D7D7D7"/>
	<stop  offset="0.5464" style="stop-color:#EDEDED"/>
	<stop  offset="0.7842" style="stop-color:#FAFAFA"/>
	<stop  offset="1" style="stop-color:#FFFFFF"/>
</radialGradient>
<ellipse style="opacity:0.6;fill:url(#SVGID_00000134229840928254678420000016026155660807332029_);" cx="-161.4" cy="278.9" rx="40.9" ry="9.1"/>
<radialGradient id="SVGID_00000145742195942408546230000016960402545409485233_" cx="-71.1773" cy="622.8741" r="40.866" gradientTransform="matrix(0.6813 0 0 0.2222 -17.9876 140.4725)" gradientUnits="userSpaceOnUse">
	<stop  offset="0" style="stop-color:#B3B3B3"/>
	<stop  offset="4.409379e-02" style="stop-color:#B9B9B9"/>
	<stop  offset="0.2981" style="stop-color:#D7D7D7"/>
	<stop  offset="0.5464" style="stop-color:#EDEDED"/>
	<stop  offset="0.7842" style="stop-color:#FAFAFA"/>
	<stop  offset="1" style="stop-color:#FFFFFF"/>
</radialGradient>
<ellipse style="opacity:0.6;fill:url(#SVGID_00000145742195942408546230000016960402545409485233_);" cx="-66.5" cy="278.9" rx="27.8" ry="9.1"/>
<radialGradient id="SVGID_00000140703057431653937500000015268326920053172904_" cx="-253.4727" cy="140.1553" r="40.8659" gradientTransform="matrix(1.1394 0 0 0.2222 35.4859 140.4725)" gradientUnits="userSpaceOnUse">
	<stop  offset="0" style="stop-color:#B3B3B3"/>
	<stop  offset="4.409379e-02" style="stop-color:#B9B9B9"/>
	<stop  offset="0.2981" style="stop-color:#D7D7D7"/>
	<stop  offset="0.5464" style="stop-color:#EDEDED"/>
	<stop  offset="0.7842" style="stop-color:#FAFAFA"/>
	<stop  offset="1" style="stop-color:#FFFFFF"/>
</radialGradient>
<ellipse style="opacity:0.6;fill:url(#SVGID_00000140703057431653937500000015268326920053172904_);" cx="-253.3" cy="171.6" rx="46.6" ry="9.1"/>
<radialGradient id="SVGID_00000033370231858845859570000012669610514305818002_" cx="-161.4052" cy="140.1553" r="40.8662" gradientTransform="matrix(1 0 0 0.2222 0 140.4725)" gradientUnits="userSpaceOnUse">
	<stop  offset="0" style="stop-color:#B3B3B3"/>
	<stop  offset="4.409379e-02" style="stop-color:#B9B9B9"/>
	<stop  offset="0.2981" style="stop-color:#D7D7D7"/>
	<stop  offset="0.5464" style="stop-color:#EDEDED"/>
	<stop  offset="0.7842" style="stop-color:#FAFAFA"/>
	<stop  offset="1" style="stop-color:#FFFFFF"/>
</radialGradient>
<ellipse style="opacity:0.6;fill:url(#SVGID_00000033370231858845859570000012669610514305818002_);" cx="-161.4" cy="171.6" rx="40.9" ry="9.1"/>
<radialGradient id="SVGID_00000039113357343923146230000005023244718090726836_" cx="-206.7612" cy="509.413" r="40.8662" gradientTransform="matrix(1 0 0 0.2222 0 140.4725)" gradientUnits="userSpaceOnUse">
	<stop  offset="0" style="stop-color:#B3B3B3"/>
	<stop  offset="4.409379e-02" style="stop-color:#B9B9B9"/>
	<stop  offset="0.2981" style="stop-color:#D7D7D7"/>
	<stop  offset="0.5464" style="stop-color:#EDEDED"/>
	<stop  offset="0.7842" style="stop-color:#FAFAFA"/>
	<stop  offset="1" style="stop-color:#FFFFFF"/>
</radialGradient>
<ellipse style="opacity:0.6;fill:url(#SVGID_00000039113357343923146230000005023244718090726836_);" cx="-206.8" cy="253.7" rx="40.9" ry="9.1"/>
<g>
	<path class="st16" d="M-37.7,325c0-5-4.1-9-9-9c-2.9,0-5.7,1.4-7.4,3.8l0.8,0.5l-0.8-0.5l-18,25.9c-1,1.4-2.6,2.2-4.3,2.2
		c-0.3,0-0.7,0-1-0.1l-0.2,0.9l0.1-0.9l-18.3-2.9l0,0c-0.7-0.1-1.3-0.2-2-0.2c-6.9,0-12.6,5.6-12.6,12.6c0,6.9,5.6,12.6,12.6,12.6
		h46.1c7.6,0,13.9-6.2,13.9-13.9l-0.9,0h0.9V325z M-51.6,368h-46.1c-5.9,0-10.7-4.8-10.7-10.7c0-5.9,4.8-10.7,10.7-10.7
		c0.6,0,1.1,0,1.7,0.1l0.2-1l-0.2,1l18.3,2.9l0,0c0.4,0.1,0.9,0.1,1.3,0.1c2.3,0,4.5-1.1,5.8-3l-0.8-0.5l0.8,0.5l18-25.9l0,0
		c1.3-1.9,3.5-3,5.8-3c3.9,0,7.1,3.2,7.1,7.1v31C-39.6,362.6-45,368-51.6,368z"/>
	<g>
		
			<ellipse transform="matrix(0.7071 -0.7071 0.7071 0.7071 -281.2672 35.5716)" class="st17" cx="-97.7" cy="357.3" rx="11.6" ry="11.6"/>
		<g>
			<circle class="st18" cx="-97.7" cy="357.3" r="8.4"/>
			<path class="st19" d="M-97.7,366c-4.8,0-8.7-3.9-8.7-8.7c0-4.8,3.9-8.7,8.7-8.7s8.7,3.9,8.7,8.7C-89,362.1-92.9,366-97.7,366z
				 M-97.7,349.1c-4.5,0-8.2,3.7-8.2,8.2c0,4.5,3.7,8.2,8.2,8.2s8.2-3.7,8.2-8.2C-89.5,352.8-93.2,349.1-97.7,349.1z"/>
		</g>
		<g>
			<path class="st19" d="M-94.8,357.3c0,1.6-1.3,2.8-2.8,2.8c-1.6,0-2.8-1.3-2.8-2.8s1.3-2.8,2.8-2.8
				C-96.1,354.5-94.8,355.7-94.8,357.3z"/>
			<path class="st18" d="M-97.7,360.4c-1.7,0-3.1-1.4-3.1-3.1c0-1.7,1.4-3.1,3.1-3.1c1.7,0,3.1,1.4,3.1,3.1
				C-94.6,359-96,360.4-97.7,360.4z M-97.7,354.7c-1.4,0-2.6,1.2-2.6,2.6s1.2,2.6,2.6,2.6c1.4,0,2.6-1.2,2.6-2.6
				S-96.3,354.7-97.7,354.7z"/>
		</g>
	</g>
	<path class="st20" d="M-101.5,358.3c-2.5-3.5-2.7-7.9-1.1-11.6c-0.6,0.3-1.3,0.6-1.9,1.1c-5.3,3.7-6.5,11-2.8,16.2
		c3.7,5.3,11,6.5,16.2,2.8c1.7-1.2,3-2.8,3.9-4.7C-92.1,364.5-98.2,363-101.5,358.3z"/>
	<g>
		<ellipse transform="matrix(0.6735 -0.7392 0.7392 0.6735 -255.5052 71.58)" class="st17" cx="-46.7" cy="325" rx="8.1" ry="8.1"/>
		<g>
			<path class="st18" d="M-41.3,325c0,3-2.4,5.4-5.4,5.4c-3,0-5.4-2.4-5.4-5.4c0-3,2.4-5.4,5.4-5.4C-43.8,319.6-41.3,322-41.3,325z"
				/>
			<path class="st19" d="M-46.7,330.6c-3.1,0-5.6-2.5-5.6-5.6c0-3.1,2.5-5.6,5.6-5.6c3.1,0,5.6,2.5,5.6,5.6
				C-41.1,328.1-43.6,330.6-46.7,330.6z M-46.7,319.8c-2.8,0-5.1,2.3-5.1,5.1c0,2.8,2.3,5.1,5.1,5.1c2.8,0,5.1-2.3,5.1-5.1
				C-41.6,322.1-43.9,319.8-46.7,319.8z"/>
		</g>
		<g>
			<path class="st19" d="M-44.9,325c0,1-0.8,1.8-1.8,1.8c-1,0-1.8-0.8-1.8-1.8c0-1,0.8-1.8,1.8-1.8C-45.7,323.2-44.9,324-44.9,325z"
				/>
			<path class="st18" d="M-46.7,327c-1.1,0-2.1-0.9-2.1-2.1c0-1.1,0.9-2.1,2.1-2.1c1.1,0,2.1,0.9,2.1,2.1
				C-44.7,326.1-45.6,327-46.7,327z M-46.7,323.4c-0.9,0-1.6,0.7-1.6,1.6s0.7,1.6,1.6,1.6s1.6-0.7,1.6-1.6S-45.9,323.4-46.7,323.4z"
				/>
		</g>
	</g>
	<path class="st20" d="M-42.9,328.2c-4.5,0-8.1-3.6-8.1-8.1c0-0.7,0.1-1.5,0.3-2.1c-2.4,1.4-4.1,4-4.1,7c0,4.5,3.6,8.1,8.1,8.1
		c3.7,0,6.9-2.5,7.8-5.9C-40.1,327.8-41.5,328.2-42.9,328.2z"/>
	<g>
		<path class="st17" d="M-77.5,348.7c0,0-0.1,0-0.1,0c-2.8-0.6-5-3.1-5-6.1c0-3.4,2.8-6.2,6.2-6.2c3.4,0,6.2,2.8,6.2,6.2
			c0,3.4-2.8,6.2-6.2,6.2C-76.7,348.8-77.1,348.7-77.5,348.7L-77.5,348.7z"/>
		<g>
			<path class="st19" d="M-74.5,342.6c0,1-0.8,1.8-1.8,1.8c-1,0-1.8-0.8-1.8-1.8c0-1,0.8-1.8,1.8-1.8
				C-75.3,340.7-74.5,341.5-74.5,342.6z"/>
			<path class="st18" d="M-76.3,344.6c-1.1,0-2.1-0.9-2.1-2.1c0-1.2,0.9-2.1,2.1-2.1c1.2,0,2.1,0.9,2.1,2.1
				C-74.3,343.7-75.2,344.6-76.3,344.6z M-76.3,340.9c-0.9,0-1.6,0.7-1.6,1.6c0,0.9,0.7,1.6,1.6,1.6c0.9,0,1.6-0.7,1.6-1.6
				C-74.7,341.7-75.5,340.9-76.3,340.9z"/>
		</g>
	</g>
	<path class="st20" d="M-73.5,345.3c-0.4,0-0.8,0-1.2-0.1c0,0-0.1,0-0.1,0c-2.8-0.6-5-3.1-5-6.1c0-0.7,0.1-1.3,0.3-1.9
		c-1.9,1.1-3.1,3.1-3.1,5.4c0,3,2.1,5.5,5,6.1c0,0,0.1,0,0.1,0c0.4,0.1,0.8,0.1,1.2,0.1c2.8,0,5.1-1.8,5.9-4.3
		C-71.3,345-72.4,345.3-73.5,345.3z"/>
	<g>
		<path class="st17" d="M-51.6,343c-7.2,0-13,5.8-13,13c0,7.2,5.8,13,13,13c7.2,0,13-5.8,13-13C-38.6,348.8-44.4,343-51.6,343z
			 M-55.6,363.3c-1.2,0-2.1-1-2.1-2.1c0-1.2,1-2.1,2.1-2.1c1.2,0,2.1,1,2.1,2.1C-53.5,362.4-54.5,363.3-55.6,363.3z M-54.4,352.1
			c-1.2,0-2.1-1-2.1-2.1c0-1.2,1-2.1,2.1-2.1c1.2,0,2.1,1,2.1,2.1C-52.3,351.1-53.2,352.1-54.4,352.1z M-44.7,358.1
			c-1.2,0-2.1-1-2.1-2.1s1-2.1,2.1-2.1c1.2,0,2.1,1,2.1,2.1S-43.6,358.1-44.7,358.1z"/>
		<path class="st18" d="M-51.6,345.7c-5.7,0-10.3,4.6-10.3,10.3s4.6,10.3,10.3,10.3s10.3-4.6,10.3-10.3S-45.9,345.7-51.6,345.7z
			 M-55.6,363.3c-1.2,0-2.1-1-2.1-2.1c0-1.2,1-2.1,2.1-2.1c1.2,0,2.1,1,2.1,2.1C-53.5,362.4-54.5,363.3-55.6,363.3z M-54.4,352.1
			c-1.2,0-2.1-1-2.1-2.1c0-1.2,1-2.1,2.1-2.1c1.2,0,2.1,1,2.1,2.1C-52.3,351.1-53.2,352.1-54.4,352.1z M-44.7,358.1
			c-1.2,0-2.1-1-2.1-2.1s1-2.1,2.1-2.1c1.2,0,2.1,1,2.1,2.1S-43.6,358.1-44.7,358.1z"/>
		<circle class="st19" cx="-51.6" cy="356" r="2.8"/>
		<path class="st19" d="M-51.6,366.6c-5.8,0-10.6-4.7-10.6-10.6c0-5.8,4.7-10.6,10.6-10.6c5.8,0,10.6,4.7,10.6,10.6
			C-41,361.8-45.8,366.6-51.6,366.6z M-51.6,345.9c-5.6,0-10.1,4.5-10.1,10.1c0,5.6,4.5,10.1,10.1,10.1s10.1-4.5,10.1-10.1
			C-41.5,350.4-46,345.9-51.6,345.9z"/>
	</g>
	<g class="st20">
		<path d="M-47.1,362.5c-2.4,0-4.6-0.6-6.5-1.7c0,0.1,0,0.3,0,0.4c0,1.2-1,2.1-2.1,2.1c-1.2,0-2.1-1-2.1-2.1c0-1.1,0.8-2,1.9-2.1
			c-2.6-2.4-4.2-5.7-4.2-9.5c0-1.3,0.2-2.6,0.6-3.8c-3.1,2.4-5.1,6.1-5.1,10.3c0,7.2,5.8,13,13,13c5.8,0,10.7-3.8,12.4-9.1
			C-41.4,361.5-44.1,362.5-47.1,362.5z"/>
	</g>
</g>
<g>
	<g>
		<path class="st16" d="M-325.9,123.4c0,0,0.3,0.2,0.8,0.6c0.1,0.1,0.2,0.2,0.3,0.3c0.1-0.9,0.1-1.9,0.1-2.8c0-0.3,0-0.6,0-0.9
			c-0.1,0-0.2-0.1-0.2-0.1c0,0-0.1-0.1-0.1-0.1c-0.7-0.5-1.4-0.8-1.4-0.8l-1.7,0.1c0-0.6-0.1-1.3-0.2-1.9l2.3-0.3
			c0,0,0.4,0.2,0.8,0.4c0.1,0.1,0.2,0.1,0.4,0.2c-0.1-1.2-0.3-2.5-0.5-3.7c-0.1,0-0.1-0.1-0.2-0.1c-0.1,0-0.1,0-0.2-0.1
			c-0.8-0.3-1.6-0.6-1.6-0.6l-1.6,0.4c-0.1-0.6-0.3-1.2-0.5-1.8l2.2-0.7c0,0,0.4,0.1,0.9,0.3c0.1,0,0.3,0.1,0.4,0.1
			c-0.3-1.2-0.7-2.4-1.2-3.5c-0.1,0-0.2,0-0.3-0.1c-0.1,0-0.1,0-0.2,0c-0.4-0.1-0.8-0.2-1-0.2c-0.3-0.1-0.6-0.1-0.6-0.1l-1.6,0.7
			c-0.3-0.6-0.5-1.2-0.8-1.7l2-1c0,0,0.4,0,0.9,0.1c0.1,0,0.3,0,0.4,0.1c-0.5-1.1-1.1-2.2-1.8-3.3c-0.1,0-0.2,0-0.3,0
			c-0.1,0-0.1,0-0.2,0c-0.9,0-1.6,0-1.6,0l-1.4,0.9c-0.3-0.5-0.7-1-1.1-1.6l1.8-1.4c0,0,0.4,0,0.9-0.1c0.1,0,0.3,0,0.4,0
			c-0.7-1-1.5-2-2.3-2.9c-0.1,0-0.2,0-0.3,0c-0.1,0-0.1,0-0.2,0c-0.9,0.1-1.6,0.3-1.6,0.3l-1.2,1.2c-0.4-0.5-0.9-0.9-1.3-1.3
			l1.6-1.7c0,0,0.4-0.1,0.9-0.2c0.1,0,0.3-0.1,0.4-0.1c-0.9-0.9-1.8-1.7-2.8-2.5c-0.1,0-0.2,0.1-0.2,0.1c-0.1,0-0.1,0-0.2,0.1
			c-0.8,0.3-1.6,0.6-1.6,0.6l-1,1.3c-0.5-0.4-1-0.7-1.6-1.1l1.3-1.9c0,0,0.2-0.1,0.6-0.3c0.1,0,0.2-0.1,0.2-0.1
			c0.1-0.1,0.3-0.1,0.4-0.2c-1-0.7-2.1-1.4-3.2-2c-0.1,0-0.1,0.1-0.2,0.1c-0.1,0-0.1,0.1-0.2,0.1c-0.8,0.4-1.4,0.8-1.4,0.8l-0.8,1.5
			c-0.6-0.3-1.1-0.6-1.7-0.8l0.9-2.1c0,0,0.3-0.2,0.8-0.5c0.1-0.1,0.2-0.1,0.4-0.2c-1.1-0.5-2.3-1-3.5-1.4c-0.1,0.1-0.1,0.1-0.2,0.2
			c0,0-0.1,0.1-0.1,0.1c-0.3,0.2-0.6,0.5-0.8,0.7c-0.3,0.2-0.4,0.4-0.4,0.4l-0.5,1.6c-0.6-0.2-1.2-0.3-1.8-0.5l0.5-2.2
			c0,0,0.3-0.3,0.7-0.6c0.1-0.1,0.2-0.2,0.3-0.3c-1.2-0.3-2.4-0.6-3.6-0.7c-0.1,0.1-0.1,0.1-0.2,0.2c0,0-0.1,0.1-0.1,0.1
			c-0.6,0.6-1.1,1.2-1.1,1.2l-0.2,1.7c-0.6-0.1-1.3-0.1-1.9-0.2l0.1-2.3c0,0,0.2-0.3,0.6-0.8c0.1-0.1,0.2-0.2,0.3-0.3
			c-0.9-0.1-1.9-0.1-2.8-0.1c-0.3,0-0.6,0-0.9,0c0,0.1-0.1,0.2-0.1,0.2c0,0-0.1,0.1-0.1,0.1c-0.5,0.7-0.8,1.4-0.8,1.4l0.1,1.7
			c-0.6,0-1.3,0.1-1.9,0.2l-0.3-2.3c0,0,0.2-0.4,0.4-0.8c0.1-0.1,0.1-0.2,0.2-0.4c-1.2,0.1-2.5,0.3-3.7,0.5c0,0.1-0.1,0.1-0.1,0.2
			c0,0.1,0,0.1-0.1,0.2c-0.3,0.8-0.6,1.6-0.6,1.6l0.4,1.6c-0.6,0.1-1.2,0.3-1.8,0.5l-0.7-2.2c0,0,0.1-0.4,0.3-0.9
			c0-0.1,0.1-0.3,0.1-0.4c-1.2,0.3-2.4,0.7-3.5,1.2c0,0.1,0,0.2-0.1,0.3c0,0.1,0,0.1,0,0.2c-0.1,0.4-0.2,0.8-0.2,1
			c-0.1,0.3-0.1,0.6-0.1,0.6l0.7,1.6c-0.6,0.3-1.2,0.5-1.7,0.8l-1-2c0,0,0-0.4,0.1-0.9c0-0.1,0-0.3,0.1-0.4
			c-1.1,0.5-2.2,1.1-3.3,1.8c0,0.1,0,0.2,0,0.3c0,0.1,0,0.1,0,0.2c0,0.9,0,1.6,0,1.6l0.9,1.4c-0.5,0.3-1,0.7-1.6,1.1l-1.4-1.8
			c0,0,0-0.4-0.1-0.9c0-0.1,0-0.3,0-0.4c-1,0.7-2,1.5-2.9,2.3c0,0.1,0,0.2,0,0.3c0,0.1,0,0.1,0,0.2c0.1,0.9,0.3,1.6,0.3,1.6l1.2,1.2
			c-0.5,0.4-0.9,0.9-1.3,1.3l-1.7-1.6c0,0-0.1-0.4-0.2-0.9c0-0.1-0.1-0.3-0.1-0.4c-0.9,0.9-1.7,1.8-2.5,2.8c0,0.1,0.1,0.2,0.1,0.2
			c0,0.1,0,0.1,0.1,0.2c0.3,0.8,0.6,1.6,0.6,1.6l1.3,1c-0.4,0.5-0.7,1-1.1,1.6l-1.9-1.3c0,0-0.1-0.2-0.3-0.6c0-0.1-0.1-0.2-0.1-0.2
			c-0.1-0.1-0.1-0.3-0.2-0.4c-0.7,1-1.4,2.1-2,3.2c0,0.1,0.1,0.1,0.1,0.2c0,0.1,0.1,0.1,0.1,0.2c0.4,0.8,0.8,1.4,0.8,1.4l1.5,0.8
			c-0.3,0.6-0.6,1.1-0.8,1.7l-2.1-0.9c0,0-0.2-0.3-0.5-0.8c-0.1-0.1-0.1-0.2-0.2-0.4c-0.5,1.1-1,2.3-1.4,3.5
			c0.1,0.1,0.1,0.1,0.2,0.2c0,0,0.1,0.1,0.1,0.1c0.2,0.3,0.5,0.6,0.7,0.8c0.2,0.3,0.4,0.4,0.4,0.4l1.6,0.5c-0.2,0.6-0.3,1.2-0.5,1.8
			l-2.2-0.5c0,0-0.3-0.3-0.6-0.7c-0.1-0.1-0.2-0.2-0.3-0.3c-0.3,1.2-0.6,2.4-0.7,3.6c0.1,0.1,0.1,0.1,0.2,0.2c0,0,0.1,0.1,0.1,0.1
			c0.6,0.6,1.2,1.1,1.2,1.1l1.7,0.2c-0.1,0.6-0.1,1.3-0.2,1.9l-2.3-0.1c0,0-0.3-0.2-0.8-0.6c-0.1-0.1-0.2-0.2-0.3-0.3
			c-0.1,0.9-0.1,1.9-0.1,2.8c0,0.3,0,0.6,0,0.9c0.1,0,0.2,0.1,0.2,0.1c0,0,0.1,0.1,0.1,0.1c0.7,0.5,1.4,0.8,1.4,0.8l1.7-0.1
			c0,0.6,0.1,1.3,0.2,1.9l-2.3,0.3c0,0-0.4-0.2-0.8-0.4c-0.1-0.1-0.2-0.1-0.4-0.2c0.1,1.2,0.3,2.5,0.5,3.7c0.1,0,0.1,0.1,0.2,0.1
			c0.1,0,0.1,0,0.2,0.1c0.8,0.3,1.6,0.6,1.6,0.6l1.6-0.4c0.1,0.6,0.3,1.2,0.5,1.8l-2.2,0.7c0,0-0.4-0.1-0.9-0.3
			c-0.1,0-0.3-0.1-0.4-0.1c0.3,1.2,0.7,2.4,1.2,3.5c0.1,0,0.2,0,0.3,0.1c0.1,0,0.1,0,0.2,0c0.4,0.1,0.8,0.2,1,0.2
			c0.3,0.1,0.6,0.1,0.6,0.1l1.6-0.7c0.3,0.6,0.5,1.2,0.8,1.7l-2,1c0,0-0.4,0-0.9-0.1c-0.1,0-0.3,0-0.4-0.1c0.5,1.1,1.1,2.2,1.8,3.3
			c0.1,0,0.2,0,0.3,0c0.1,0,0.1,0,0.2,0c0.9,0,1.6,0,1.6,0l1.4-0.9c0.3,0.5,0.7,1,1.1,1.6l-1.8,1.4c0,0-0.4,0-0.9,0.1
			c-0.1,0-0.3,0-0.4,0c0.7,1,1.5,2,2.3,2.9c0.1,0,0.2,0,0.3,0c0.1,0,0.1,0,0.2,0c0.9-0.1,1.6-0.3,1.6-0.3l1.2-1.2
			c0.4,0.5,0.9,0.9,1.3,1.3l-1.6,1.7c0,0-0.4,0.1-0.9,0.2c-0.1,0-0.3,0.1-0.4,0.1c0.9,0.9,1.8,1.7,2.8,2.5c0.1,0,0.2-0.1,0.2-0.1
			c0.1,0,0.1,0,0.2-0.1c0.8-0.3,1.6-0.6,1.6-0.6l1-1.3c0.5,0.4,1,0.7,1.6,1.1l-1.3,1.9c0,0-0.2,0.1-0.6,0.3c-0.1,0-0.2,0.1-0.2,0.1
			c-0.1,0.1-0.3,0.1-0.4,0.2c1,0.7,2.1,1.4,3.2,2c0.1,0,0.1-0.1,0.2-0.1c0.1,0,0.1-0.1,0.2-0.1c0.8-0.4,1.4-0.8,1.4-0.8l0.8-1.5
			c0.6,0.3,1.1,0.6,1.7,0.8l-0.9,2.1c0,0-0.3,0.2-0.8,0.5c-0.1,0.1-0.2,0.1-0.4,0.2c1.1,0.5,2.3,1,3.5,1.4c0.1-0.1,0.1-0.1,0.2-0.2
			c0,0,0.1-0.1,0.1-0.1c0.3-0.2,0.6-0.5,0.8-0.7c0.3-0.2,0.4-0.4,0.4-0.4l0.5-1.6c0.6,0.2,1.2,0.3,1.8,0.5l-0.5,2.2
			c0,0-0.3,0.3-0.7,0.6c-0.1,0.1-0.2,0.2-0.3,0.3c1.2,0.3,2.4,0.6,3.6,0.7c0.1-0.1,0.1-0.1,0.2-0.2c0,0,0.1-0.1,0.1-0.1
			c0.6-0.6,1.1-1.2,1.1-1.2l0.2-1.7c0.6,0.1,1.3,0.1,1.9,0.2l-0.1,2.3c0,0-0.2,0.3-0.6,0.8c-0.1,0.1-0.2,0.2-0.3,0.3
			c0.9,0.1,1.9,0.1,2.8,0.1c0.3,0,0.6,0,0.9,0c0-0.1,0.1-0.2,0.1-0.2c0,0,0.1-0.1,0.1-0.1c0.5-0.7,0.8-1.4,0.8-1.4l-0.1-1.7
			c0.6,0,1.3-0.1,1.9-0.2l0.3,2.3c0,0-0.2,0.4-0.4,0.8c-0.1,0.1-0.1,0.2-0.2,0.4c1.2-0.1,2.5-0.3,3.7-0.5c0-0.1,0.1-0.1,0.1-0.2
			c0-0.1,0-0.1,0.1-0.2c0.3-0.8,0.6-1.6,0.6-1.6l-0.4-1.6c0.6-0.1,1.2-0.3,1.8-0.5l0.7,2.2c0,0-0.1,0.4-0.3,0.9
			c0,0.1-0.1,0.3-0.1,0.4c1.2-0.3,2.4-0.7,3.5-1.2c0-0.1,0-0.2,0.1-0.3c0-0.1,0-0.1,0-0.2c0.1-0.4,0.2-0.8,0.2-1
			c0.1-0.3,0.1-0.6,0.1-0.6l-0.7-1.6c0.6-0.3,1.2-0.5,1.7-0.8l1,2c0,0,0,0.4-0.1,0.9c0,0.1,0,0.3-0.1,0.4c1.1-0.5,2.2-1.1,3.3-1.8
			c0-0.1,0-0.2,0-0.3c0-0.1,0-0.1,0-0.2c0-0.9,0-1.6,0-1.6l-0.9-1.4c0.5-0.3,1-0.7,1.6-1.1l1.4,1.8c0,0,0,0.4,0.1,0.9
			c0,0.1,0,0.3,0,0.4c1-0.7,2-1.5,2.9-2.3c0-0.1,0-0.2,0-0.3c0-0.1,0-0.1,0-0.2c-0.1-0.9-0.3-1.6-0.3-1.6l-1.2-1.2
			c0.5-0.4,0.9-0.9,1.3-1.3l1.7,1.6c0,0,0.1,0.4,0.2,0.9c0,0.1,0.1,0.3,0.1,0.4c0.9-0.9,1.7-1.8,2.5-2.8c0-0.1-0.1-0.2-0.1-0.2
			c0-0.1,0-0.1-0.1-0.2c-0.3-0.8-0.6-1.6-0.6-1.6l-1.3-1c0.4-0.5,0.7-1,1.1-1.6l1.9,1.3c0,0,0.1,0.2,0.3,0.6c0,0.1,0.1,0.2,0.1,0.2
			c0.1,0.1,0.1,0.3,0.2,0.4c0.7-1,1.4-2.1,2-3.2c0-0.1-0.1-0.1-0.1-0.2c0-0.1-0.1-0.1-0.1-0.2c-0.4-0.8-0.8-1.4-0.8-1.4l-1.5-0.8
			c0.3-0.6,0.6-1.1,0.8-1.7l2.1,0.9c0,0,0.2,0.3,0.5,0.8c0.1,0.1,0.1,0.2,0.2,0.4c0.5-1.1,1-2.3,1.4-3.5c-0.1-0.1-0.1-0.1-0.2-0.2
			c0,0-0.1-0.1-0.1-0.1c-0.2-0.3-0.5-0.6-0.7-0.8c-0.2-0.3-0.4-0.4-0.4-0.4l-1.6-0.5c0.2-0.6,0.3-1.2,0.5-1.8l2.2,0.5
			c0,0,0.3,0.3,0.6,0.7c0.1,0.1,0.2,0.2,0.3,0.3c0.3-1.2,0.6-2.4,0.7-3.6c-0.1-0.1-0.1-0.1-0.2-0.2c0,0-0.1-0.1-0.1-0.1
			c-0.6-0.6-1.2-1.1-1.2-1.1l-1.7-0.2c0.1-0.6,0.1-1.3,0.2-1.9L-325.9,123.4z M-360.3,146.5c-13.9,0-25.1-11.2-25.1-25.1
			s11.2-25.1,25.1-25.1s25.1,11.2,25.1,25.1S-346.5,146.5-360.3,146.5z"/>
		<path class="st21" d="M-389.1,102.4l1.9,1.3c0.3-0.5,0.7-1,1.1-1.6l-1.3-1c0,0-0.3-0.7-0.6-1.6c-0.5,0.6-1,1.3-1.5,2
			c0,0.1,0.1,0.2,0.1,0.2C-389.3,102.2-389.1,102.4-389.1,102.4z"/>
		<path class="st22" d="M-360.3,95c-14.6,0-26.4,11.8-26.4,26.4c0,14.6,11.8,26.4,26.4,26.4c14.6,0,26.4-11.8,26.4-26.4
			C-333.9,106.8-345.8,95-360.3,95z M-360.3,144.9c-13,0-23.5-10.5-23.5-23.5c0-13,10.5-23.5,23.5-23.5s23.5,10.5,23.5,23.5
			C-336.8,134.4-347.3,144.9-360.3,144.9z"/>
		<path class="st22" d="M-360.3,105.2c-8.9,0-16.2,7.2-16.2,16.2s7.2,16.2,16.2,16.2c8.9,0,16.2-7.2,16.2-16.2
			S-351.4,105.2-360.3,105.2z M-360.3,131.5c-5.6,0-10.2-4.6-10.2-10.2c0-5.6,4.6-10.2,10.2-10.2s10.2,4.6,10.2,10.2
			C-350.2,127-354.7,131.5-360.3,131.5z"/>
		<path class="st21" d="M-360.3,149.6c-15.6,0-28.2-12.7-28.2-28.2c0-15.6,12.7-28.2,28.2-28.2c15.6,0,28.2,12.7,28.2,28.2
			C-332.1,136.9-344.8,149.6-360.3,149.6z M-360.3,93.3c-15.5,0-28,12.6-28,28c0,15.5,12.6,28,28,28c15.5,0,28-12.6,28-28
			C-332.3,105.9-344.9,93.3-360.3,93.3z"/>
		<path class="st21" d="M-360.3,152.7c-17.3,0-31.3-14.1-31.3-31.3c0-17.3,14.1-31.3,31.3-31.3c17.3,0,31.3,14.1,31.3,31.3
			C-329,138.7-343,152.7-360.3,152.7z M-360.3,90.4c-17.1,0-31,13.9-31,31c0,17.1,13.9,31,31,31c17.1,0,31-13.9,31-31
			C-329.3,104.3-343.2,90.4-360.3,90.4z"/>
		<path class="st21" d="M-360.3,148.2c-14.8,0-26.8-12-26.8-26.8c0-14.8,12-26.8,26.8-26.8c14.8,0,26.8,12,26.8,26.8
			C-333.5,136.2-345.5,148.2-360.3,148.2z M-360.3,95.5c-14.3,0-25.9,11.6-25.9,25.9c0,14.3,11.6,25.9,25.9,25.9
			s25.9-11.6,25.9-25.9C-334.4,107.1-346,95.5-360.3,95.5z"/>
		<path class="st21" d="M-382.4,144.8c-0.5-0.4-0.9-0.9-1.3-1.3l-1.2,1.2c0,0-0.8,0.1-1.6,0.3c0.6,0.6,1.1,1.2,1.7,1.8
			c0.5-0.1,0.9-0.2,0.9-0.2L-382.4,144.8z"/>
		<path class="st21" d="M-386.1,140.6c-0.4-0.5-0.7-1-1.1-1.6l-1.4,0.9c0,0-0.8,0-1.6,0c0.4,0.7,0.9,1.4,1.4,2.1
			c0.6,0,0.9-0.1,0.9-0.1L-386.1,140.6z"/>
		<path class="st21" d="M-373.1,150.9c-0.6-0.3-1.2-0.5-1.7-0.8l-0.8,1.5c0,0-0.7,0.4-1.4,0.8c0.7,0.4,1.5,0.7,2.2,1.1
			c0.5-0.3,0.8-0.5,0.8-0.5L-373.1,150.9z"/>
		<path class="st21" d="M-379.3,150.2l1.3-1.9c-0.5-0.3-1-0.7-1.6-1.1l-1,1.3c0,0-0.7,0.3-1.6,0.6c0.6,0.5,1.3,1,2,1.5
			c0.1,0,0.2-0.1,0.2-0.1C-379.5,150.3-379.3,150.2-379.3,150.2z"/>
		<path class="st21" d="M-389.1,135.8c-0.3-0.6-0.6-1.1-0.8-1.7l-1.6,0.7c0,0-0.2,0-0.6-0.1c-0.3-0.1-0.7-0.1-1-0.2
			c0.3,0.8,0.6,1.5,1,2.3c0.6,0.1,0.9,0.1,0.9,0.1L-389.1,135.8z"/>
		<path class="st21" d="M-392.5,119.5c0-0.6,0.1-1.3,0.2-1.9l-1.7-0.2c0,0-0.6-0.5-1.2-1.1c-0.1,0.8-0.2,1.6-0.3,2.5
			c0.4,0.3,0.8,0.6,0.8,0.6L-392.5,119.5z"/>
		<path class="st21" d="M-367.8,152.7c-0.6-0.1-1.2-0.3-1.8-0.5l-0.5,1.6c0,0-0.2,0.2-0.4,0.4c-0.2,0.2-0.5,0.4-0.8,0.7
			c0.8,0.3,1.6,0.5,2.4,0.7c0.4-0.4,0.7-0.6,0.7-0.6L-367.8,152.7z"/>
		<path class="st21" d="M-391.2,130.6c-0.2-0.6-0.3-1.2-0.5-1.8l-1.6,0.4c0,0-0.7-0.3-1.6-0.6c0.2,0.8,0.4,1.6,0.6,2.4
			c0.5,0.2,0.9,0.3,0.9,0.3L-391.2,130.6z"/>
		<path class="st21" d="M-391.6,114c0.1-0.6,0.3-1.2,0.5-1.8l-1.6-0.5c0,0-0.2-0.2-0.4-0.4c-0.2-0.2-0.4-0.5-0.7-0.8
			c-0.3,0.8-0.5,1.6-0.7,2.4c0.4,0.4,0.6,0.7,0.6,0.7L-391.6,114z"/>
		<path class="st21" d="M-389.9,108.6c0.3-0.6,0.5-1.2,0.8-1.7l-1.5-0.8c0,0-0.4-0.7-0.8-1.4c-0.4,0.7-0.7,1.5-1.1,2.2
			c0.3,0.5,0.5,0.8,0.5,0.8L-389.9,108.6z"/>
		<path class="st21" d="M-392.3,125.1c-0.1-0.6-0.1-1.3-0.2-1.9l-1.7,0.1c0,0-0.7-0.4-1.4-0.8c0,0.8,0.1,1.7,0.2,2.5
			c0.5,0.2,0.8,0.4,0.8,0.4L-392.3,125.1z"/>
		<path class="st21" d="M-331.5,140.3l-1.9-1.3c-0.3,0.5-0.7,1-1.1,1.6l1.3,1c0,0,0.3,0.7,0.6,1.6c0.5-0.6,1-1.3,1.5-2
			c0-0.1-0.1-0.2-0.1-0.2C-331.4,140.6-331.5,140.3-331.5,140.3z"/>
		<path class="st21" d="M-330.8,134.1c-0.3,0.6-0.5,1.2-0.8,1.7l1.5,0.8c0,0,0.4,0.7,0.8,1.4c0.4-0.7,0.7-1.5,1.1-2.2
			c-0.3-0.5-0.5-0.8-0.5-0.8L-330.8,134.1z"/>
		<path class="st21" d="M-362.2,153.5c-0.6,0-1.3-0.1-1.9-0.2l-0.2,1.7c0,0-0.5,0.6-1.1,1.2c0.8,0.1,1.6,0.2,2.5,0.3
			c0.3-0.4,0.6-0.8,0.6-0.8L-362.2,153.5z"/>
		<path class="st21" d="M-336.9,143.5c-0.4,0.5-0.9,0.9-1.3,1.3l1.2,1.2c0,0,0.1,0.8,0.3,1.6c0.6-0.6,1.2-1.1,1.8-1.7
			c-0.1-0.5-0.2-0.9-0.2-0.9L-336.9,143.5z"/>
		<path class="st21" d="M-325.9,123.4l-2.3-0.1c0,0.6-0.1,1.3-0.2,1.9l1.7,0.2c0,0,0.6,0.5,1.2,1.1c0.1-0.8,0.2-1.6,0.3-2.5
			C-325.6,123.6-325.9,123.4-325.9,123.4z"/>
		<path class="st21" d="M-329,128.8c-0.1,0.6-0.3,1.2-0.5,1.8l1.6,0.5c0,0,0.2,0.2,0.4,0.4c0.2,0.2,0.4,0.5,0.7,0.8
			c0.3-0.8,0.5-1.6,0.7-2.4c-0.4-0.4-0.6-0.7-0.6-0.7L-329,128.8z"/>
		<path class="st21" d="M-351.1,152.2c-0.6,0.2-1.2,0.3-1.8,0.5l0.4,1.6c0,0-0.3,0.7-0.6,1.6c0.8-0.2,1.6-0.4,2.4-0.6
			c0.2-0.5,0.3-0.9,0.3-0.9L-351.1,152.2z"/>
		<path class="st21" d="M-356.6,153.3c-0.6,0.1-1.3,0.1-1.9,0.2l0.1,1.7c0,0-0.4,0.7-0.8,1.4c0.8,0,1.7-0.1,2.5-0.2
			c0.2-0.5,0.4-0.8,0.4-0.8L-356.6,153.3z"/>
		<path class="st21" d="M-345.9,150.1c-0.6,0.3-1.1,0.6-1.7,0.8l0.7,1.6c0,0,0,0.2-0.1,0.6c-0.1,0.3-0.1,0.7-0.2,1
			c0.8-0.3,1.5-0.6,2.3-1c0.1-0.5,0.1-0.9,0.1-0.9L-345.9,150.1z"/>
		<path class="st21" d="M-341.1,147.2c-0.5,0.4-1,0.7-1.6,1.1l0.9,1.4c0,0,0,0.8,0,1.6c0.7-0.4,1.4-0.9,2.1-1.4
			c0-0.6-0.1-0.9-0.1-0.9L-341.1,147.2z"/>
		<path class="st21" d="M-341.4,92.6l-1.3,1.9c0.5,0.3,1,0.7,1.6,1.1l1-1.3c0,0,0.7-0.3,1.6-0.6c-0.6-0.5-1.3-1-2-1.5
			c-0.1,0-0.2,0.1-0.2,0.1C-341.1,92.5-341.4,92.6-341.4,92.6z"/>
		<path class="st21" d="M-364.1,89.4c0.6-0.1,1.3-0.1,1.9-0.2l-0.1-1.7c0,0,0.4-0.7,0.8-1.4c-0.8,0-1.7,0.1-2.5,0.2
			c-0.2,0.5-0.4,0.8-0.4,0.8L-364.1,89.4z"/>
		<path class="st21" d="M-374.8,92.6c0.6-0.3,1.1-0.6,1.7-0.8l-0.7-1.6c0,0,0-0.2,0.1-0.6c0.1-0.3,0.1-0.7,0.2-1
			c-0.8,0.3-1.5,0.6-2.3,1c-0.1,0.6-0.1,0.9-0.1,0.9L-374.8,92.6z"/>
		<path class="st21" d="M-369.6,90.6c0.6-0.2,1.2-0.3,1.8-0.5l-0.4-1.6c0,0,0.3-0.7,0.6-1.6c-0.8,0.2-1.6,0.4-2.4,0.6
			c-0.2,0.5-0.3,0.9-0.3,0.9L-369.6,90.6z"/>
		<path class="st21" d="M-352.9,90.1c0.6,0.1,1.2,0.3,1.8,0.5l0.5-1.6c0,0,0.2-0.2,0.4-0.4c0.2-0.2,0.5-0.4,0.8-0.7
			c-0.8-0.3-1.6-0.5-2.4-0.7c-0.4,0.4-0.7,0.6-0.7,0.6L-352.9,90.1z"/>
		<path class="st21" d="M-334.5,102.2c0.4,0.5,0.7,1,1.1,1.6l1.4-0.9c0,0,0.8,0,1.6,0c-0.4-0.7-0.9-1.4-1.4-2.1
			c-0.6,0-0.9,0.1-0.9,0.1L-334.5,102.2z"/>
		<path class="st21" d="M-329.5,112.1c0.2,0.6,0.3,1.2,0.5,1.8l1.6-0.4c0,0,0.7,0.3,1.6,0.6c-0.2-0.8-0.4-1.6-0.6-2.4
			c-0.5-0.2-0.9-0.3-0.9-0.3L-329.5,112.1z"/>
		<path class="st21" d="M-358.5,89.3c0.6,0,1.3,0.1,1.9,0.2l0.2-1.7c0,0,0.5-0.6,1.1-1.2c-0.8-0.1-1.6-0.2-2.5-0.3
			c-0.3,0.4-0.6,0.8-0.6,0.8L-358.5,89.3z"/>
		<path class="st21" d="M-347.6,91.8c0.6,0.3,1.2,0.5,1.7,0.8l0.8-1.5c0,0,0.7-0.4,1.4-0.8c-0.7-0.4-1.5-0.7-2.2-1.1
			c-0.5,0.3-0.8,0.5-0.8,0.5L-347.6,91.8z"/>
		<path class="st21" d="M-331.6,106.9c0.3,0.6,0.6,1.1,0.8,1.7l1.6-0.7c0,0,0.2,0,0.6,0.1c0.3,0.1,0.7,0.1,1,0.2
			c-0.3-0.8-0.6-1.5-1-2.3c-0.6-0.1-0.9-0.1-0.9-0.1L-331.6,106.9z"/>
		<path class="st21" d="M-328.4,117.6c0.1,0.6,0.1,1.3,0.2,1.9l1.7-0.1c0,0,0.7,0.4,1.4,0.8c0-0.8-0.1-1.7-0.2-2.5
			c-0.5-0.2-0.8-0.4-0.8-0.4L-328.4,117.6z"/>
		<path class="st21" d="M-379.5,95.6c0.5-0.4,1-0.7,1.6-1.1l-0.9-1.4c0,0,0-0.8,0-1.6c-0.7,0.4-1.4,0.9-2.1,1.4
			c0,0.6,0.1,0.9,0.1,0.9L-379.5,95.6z"/>
		<path class="st21" d="M-338.3,98c0.5,0.4,0.9,0.9,1.3,1.3l1.2-1.2c0,0,0.8-0.1,1.6-0.3c-0.6-0.6-1.1-1.2-1.7-1.8
			c-0.5,0.1-0.9,0.2-0.9,0.2L-338.3,98z"/>
		<g>
			<path class="st21" d="M-383.8,95.1c-0.6,0.6-1.2,1.1-1.8,1.7c0.1,0.5,0.2,0.9,0.2,0.9l1.7,1.6c0.4-0.5,0.9-0.9,1.3-1.3l-1.2-1.2
				C-383.6,96.7-383.7,95.9-383.8,95.1z"/>
			<path class="st23" d="M-360.3,111.2c-5.6,0-10.2,4.6-10.2,10.2c0,5.6,4.6,10.2,10.2,10.2s10.2-4.6,10.2-10.2
				C-350.2,115.8-354.7,111.2-360.3,111.2z M-356.4,115.4c0.6-0.6,1.5-0.6,2.1,0c0.6,0.6,0.6,1.5,0,2.1c-0.6,0.6-1.5,0.6-2.1,0
				C-357,116.9-357,116-356.4,115.4z M-360.3,114.3c0.5,0,0.8,0.4,0.8,0.8c0,0.5-0.4,0.8-0.8,0.8s-0.8-0.4-0.8-0.8
				C-361.2,114.7-360.8,114.3-360.3,114.3z M-366.3,115.4c0.6-0.6,1.5-0.6,2.1,0c0.6,0.6,0.6,1.5,0,2.1c-0.6,0.6-1.5,0.6-2.1,0
				C-366.8,116.9-366.8,116-366.3,115.4z M-367.4,121.4c0-0.5,0.4-0.8,0.8-0.8c0.5,0,0.8,0.4,0.8,0.8c0,0.5-0.4,0.8-0.8,0.8
				C-367,122.2-367.4,121.8-367.4,121.4z M-364.2,127.3c-0.6,0.6-1.5,0.6-2.1,0c-0.6-0.6-0.6-1.5,0-2.1c0.6-0.6,1.5-0.6,2.1,0
				C-363.7,125.8-363.7,126.8-364.2,127.3z M-360.3,128.5c-0.5,0-0.8-0.4-0.8-0.8c0-0.5,0.4-0.8,0.8-0.8s0.8,0.4,0.8,0.8
				C-359.5,128.1-359.9,128.5-360.3,128.5z M-360.3,125.2c-2.1,0-3.9-1.7-3.9-3.9c0-2.1,1.7-3.9,3.9-3.9c2.1,0,3.9,1.7,3.9,3.9
				C-356.5,123.5-358.2,125.2-360.3,125.2z M-354.4,127.3c-0.6,0.6-1.5,0.6-2.1,0c-0.6-0.6-0.6-1.5,0-2.1c0.6-0.6,1.5-0.6,2.1,0
				C-353.8,125.8-353.8,126.8-354.4,127.3z M-354.1,122.2c-0.5,0-0.8-0.4-0.8-0.8c0-0.5,0.4-0.8,0.8-0.8c0.5,0,0.8,0.4,0.8,0.8
				C-353.2,121.8-353.6,122.2-354.1,122.2z"/>
		</g>
		<path class="st19" d="M-360.3,136.9c-8.6,0-15.5-7-15.5-15.5c0-8.6,7-15.5,15.5-15.5c8.6,0,15.5,7,15.5,15.5
			C-344.8,130-351.8,136.9-360.3,136.9z M-360.3,106.5c-8.2,0-14.9,6.7-14.9,14.9c0,8.2,6.7,14.9,14.9,14.9
			c8.2,0,14.9-6.7,14.9-14.9C-345.4,113.2-352.1,106.5-360.3,106.5z"/>
		<path class="st23" d="M-360.3,97.8c-13,0-23.5,10.5-23.5,23.5s10.5,23.5,23.5,23.5s23.5-10.5,23.5-23.5S-347.3,97.8-360.3,97.8z
			 M-344.2,109.5c1.2-0.7,2.8-0.4,3.4,0.6c0.6,1.1,0.1,2.5-1.1,3.2c-1.2,0.7-2.8,0.4-3.4-0.6C-346,111.7-345.5,110.2-344.2,109.5z
			 M-344.2,121.4c0,8.9-7.2,16.2-16.2,16.2c-8.9,0-16.2-7.2-16.2-16.2c0-8.9,7.2-16.2,16.2-16.2
			C-351.4,105.2-344.2,112.4-344.2,121.4z M-352.3,103c0.7-1.2,2.2-1.8,3.2-1.1c1.1,0.6,1.3,2.1,0.6,3.4s-2.2,1.8-3.2,1.1
			C-352.8,105.8-353,104.3-352.3,103z M-360.3,98.9c1.2,0,2.2,1.2,2.2,2.6s-1,2.6-2.2,2.6s-2.2-1.2-2.2-2.6S-361.6,98.9-360.3,98.9z
			 M-371.6,101.9c1.1-0.6,2.5-0.1,3.2,1.1c0.7,1.2,0.4,2.8-0.6,3.4c-1.1,0.6-2.5,0.1-3.2-1.1C-372.9,104-372.6,102.5-371.6,101.9z
			 M-379.8,110.1c0.6-1.1,2.1-1.3,3.4-0.6c1.2,0.7,1.8,2.2,1.1,3.2c-0.6,1.1-2.1,1.3-3.4,0.6C-379.9,112.6-380.4,111.2-379.8,110.1z
			 M-382.8,121.4c0-1.2,1.2-2.2,2.6-2.2c1.4,0,2.6,1,2.6,2.2s-1.2,2.2-2.6,2.2C-381.6,123.6-382.8,122.6-382.8,121.4z M-376.4,133.2
			c-1.2,0.7-2.8,0.4-3.4-0.6c-0.6-1.1-0.1-2.5,1.1-3.2c1.2-0.7,2.8-0.4,3.4,0.6C-374.7,131.1-375.2,132.5-376.4,133.2z
			 M-368.3,139.7c-0.7,1.2-2.2,1.8-3.2,1.1c-1.1-0.6-1.3-2.1-0.6-3.4c0.7-1.2,2.2-1.8,3.2-1.1C-367.9,137-367.6,138.5-368.3,139.7z
			 M-360.3,143.9c-1.2,0-2.2-1.2-2.2-2.6c0-1.4,1-2.6,2.2-2.6s2.2,1.2,2.2,2.6C-358.1,142.7-359.1,143.9-360.3,143.9z M-349.1,140.8
			c-1.1,0.6-2.5,0.1-3.2-1.1c-0.7-1.2-0.4-2.8,0.6-3.4c1.1-0.6,2.5-0.1,3.2,1.1C-347.7,138.7-348,140.2-349.1,140.8z M-340.9,132.6
			c-0.6,1.1-2.1,1.3-3.4,0.6c-1.2-0.7-1.8-2.2-1.1-3.2c0.6-1.1,2.1-1.3,3.4-0.6C-340.8,130.1-340.2,131.6-340.9,132.6z
			 M-340.5,123.6c-1.4,0-2.6-1-2.6-2.2s1.2-2.2,2.6-2.2c1.4,0,2.6,1,2.6,2.2S-339,123.6-340.5,123.6z"/>
		<path class="st19" d="M-360.3,145.8c-13.5,0-24.4-11-24.4-24.4c0-13.5,11-24.4,24.4-24.4c13.5,0,24.4,11,24.4,24.4
			C-335.9,134.9-346.9,145.8-360.3,145.8z M-360.3,97.8c-13,0-23.5,10.6-23.5,23.5c0,13,10.6,23.5,23.5,23.5s23.5-10.6,23.5-23.5
			C-336.8,108.4-347.3,97.8-360.3,97.8z"/>
		<path class="st19" d="M-360.3,132.6c-6.2,0-11.2-5-11.2-11.2c0-6.2,5-11.2,11.2-11.2c6.2,0,11.2,5,11.2,11.2
			C-349.1,127.5-354.2,132.6-360.3,132.6z M-360.3,110.6c-5.9,0-10.7,4.8-10.7,10.7c0,5.9,4.8,10.7,10.7,10.7
			c5.9,0,10.7-4.8,10.7-10.7C-349.6,115.5-354.4,110.6-360.3,110.6z"/>
	</g>
	<g class="st20">
		<path class="st24" d="M-326.1,130c0.1,0.1,0.2,0.2,0.3,0.3c0-0.2,0.1-0.4,0.1-0.5C-325.9,129.9-326,130-326.1,130z"/>
		<path class="st24" d="M-326.8,132.4c0.3-0.8,0.5-1.5,0.7-2.3c-5.7,3.1-12.3,4.9-19.4,4.9c-21.8,0-39.5-17.1-40.2-38.4
			c0,0,0-0.1,0-0.1c-0.9,0.9-1.7,1.8-2.5,2.8c0,0.1,0.1,0.2,0.1,0.2c0,0.1,0,0.1,0.1,0.2c-0.5,0.6-1,1.3-1.5,2
			c-0.1-0.1-0.1-0.3-0.2-0.4c-0.7,1-1.4,2.1-2,3.2c0,0.1,0.1,0.1,0.1,0.2c0,0.1,0.1,0.1,0.1,0.2c-0.4,0.7-0.7,1.5-1.1,2.2
			c-0.1-0.1-0.1-0.2-0.2-0.4c-0.5,1.1-1,2.3-1.4,3.5c0.1,0.1,0.1,0.1,0.2,0.2c0,0,0.1,0.1,0.1,0.1c-0.3,0.8-0.5,1.6-0.7,2.4
			c-0.1-0.1-0.2-0.2-0.3-0.3c-0.3,1.2-0.6,2.4-0.7,3.6c0.1,0.1,0.1,0.1,0.2,0.2c0,0,0.1,0.1,0.1,0.1c-0.1,0.8-0.2,1.6-0.3,2.5
			c-0.1-0.1-0.2-0.2-0.3-0.3c-0.1,0.9-0.1,1.9-0.1,2.8c0,0.3,0,0.6,0,0.9c0.1,0,0.2,0.1,0.2,0.1c0,0,0.1,0.1,0.1,0.1
			c0,0.8,0.1,1.7,0.2,2.5c-0.1-0.1-0.2-0.1-0.4-0.2c0.1,1.2,0.3,2.5,0.5,3.7c0.1,0,0.1,0.1,0.2,0.1c0.1,0,0.1,0,0.2,0.1
			c0.2,0.8,0.4,1.6,0.6,2.4c-0.1,0-0.3-0.1-0.4-0.1c0.3,1.2,0.7,2.4,1.2,3.5c0.1,0,0.2,0,0.3,0.1c0.1,0,0.1,0,0.2,0
			c0.3,0.8,0.6,1.5,1,2.3c-0.1,0-0.3,0-0.4-0.1c0.5,1.1,1.1,2.2,1.8,3.3c0.1,0,0.2,0,0.3,0c0.1,0,0.1,0,0.2,0
			c0.4,0.7,0.9,1.4,1.4,2.1c-0.1,0-0.3,0-0.4,0c0.7,1,1.5,2,2.3,2.9c0.1,0,0.2,0,0.3,0c0.1,0,0.1,0,0.2,0c0.6,0.6,1.1,1.2,1.7,1.8
			c-0.1,0-0.3,0.1-0.4,0.1c0.9,0.9,1.8,1.7,2.8,2.5c0.1,0,0.2-0.1,0.2-0.1c0.1,0,0.1,0,0.2-0.1c0.6,0.5,1.3,1,2,1.5
			c-0.1,0.1-0.3,0.1-0.4,0.2c1,0.7,2.1,1.4,3.2,2c0.1,0,0.1-0.1,0.2-0.1c0.1,0,0.1-0.1,0.2-0.1c0.7,0.4,1.5,0.7,2.2,1.1
			c-0.1,0.1-0.2,0.1-0.4,0.2c1.1,0.5,2.3,1,3.5,1.4c0.1-0.1,0.1-0.1,0.2-0.2c0,0,0.1-0.1,0.1-0.1c0.8,0.3,1.6,0.5,2.4,0.7
			c-0.1,0.1-0.2,0.2-0.3,0.3c1.2,0.3,2.4,0.6,3.6,0.7c0.1-0.1,0.1-0.1,0.2-0.2c0,0,0.1-0.1,0.1-0.1c0.8,0.1,1.6,0.2,2.5,0.3
			c-0.1,0.1-0.2,0.2-0.3,0.3c0.9,0.1,1.9,0.1,2.8,0.1c0.3,0,0.6,0,0.9,0c0-0.1,0.1-0.2,0.1-0.2c0,0,0.1-0.1,0.1-0.1
			c0.8,0,1.7-0.1,2.5-0.2c-0.1,0.1-0.1,0.2-0.2,0.4c1.2-0.1,2.5-0.3,3.7-0.5c0-0.1,0.1-0.1,0.1-0.2c0-0.1,0-0.1,0.1-0.2
			c0.8-0.2,1.6-0.4,2.4-0.6c0,0.1-0.1,0.3-0.1,0.4c1.2-0.3,2.4-0.7,3.5-1.2c0-0.1,0-0.2,0.1-0.3c0-0.1,0-0.1,0-0.2
			c0.8-0.3,1.5-0.6,2.3-1c0,0.1,0,0.3-0.1,0.4c1.1-0.5,2.2-1.1,3.3-1.8c0-0.1,0-0.2,0-0.3c0-0.1,0-0.1,0-0.2
			c0.7-0.4,1.4-0.9,2.1-1.4c0,0.1,0,0.3,0,0.4c1-0.7,2-1.5,2.9-2.3c0-0.1,0-0.2,0-0.3c0-0.1,0-0.1,0-0.2c0.6-0.6,1.2-1.1,1.8-1.7
			c0,0.1,0.1,0.3,0.1,0.4c0.9-0.9,1.7-1.8,2.5-2.8c0-0.1-0.1-0.2-0.1-0.2c0-0.1,0-0.1-0.1-0.2c0.5-0.6,1-1.3,1.5-2
			c0.1,0.1,0.1,0.3,0.2,0.4c0.7-1,1.4-2.1,2-3.2c0-0.1-0.1-0.1-0.1-0.2c0-0.1-0.1-0.1-0.1-0.2c0.4-0.7,0.7-1.5,1.1-2.2
			c0.1,0.1,0.1,0.2,0.2,0.4c0.5-1.1,1-2.3,1.4-3.5c-0.1-0.1-0.1-0.1-0.2-0.2C-326.8,132.5-326.8,132.4-326.8,132.4z M-380.2,123.6
			c-1.4,0-2.6-1-2.6-2.2s1.2-2.2,2.6-2.2c1.4,0,2.6,1,2.6,2.2S-378.8,123.6-380.2,123.6z M-376.4,133.2c-1.2,0.7-2.8,0.4-3.4-0.6
			c-0.6-1.1-0.1-2.5,1.1-3.2c1.2-0.7,2.8-0.4,3.4,0.6C-374.7,131.1-375.2,132.5-376.4,133.2z M-368.3,139.7
			c-0.7,1.2-2.2,1.8-3.2,1.1c-1.1-0.6-1.3-2.1-0.6-3.4c0.7-1.2,2.2-1.8,3.2-1.1C-367.9,137-367.6,138.5-368.3,139.7z M-360.3,143.9
			c-1.2,0-2.2-1.2-2.2-2.6c0-1.4,1-2.6,2.2-2.6s2.2,1.2,2.2,2.6C-358.1,142.7-359.1,143.9-360.3,143.9z M-349.1,140.8
			c-1.1,0.6-2.5,0.1-3.2-1.1c-0.7-1.2-0.4-2.8,0.6-3.4c1.1-0.6,2.5-0.1,3.2,1.1C-347.7,138.7-348,140.2-349.1,140.8z"/>
	</g>
</g>
<g>
	<g>
		<g>
			<rect x="-231" y="133.3" class="st25" width="5.8" height="1.8"/>
			<path class="st26" d="M-231.8,138.3v-0.1l-32.4,8.9c-0.4,0.1-0.7,0.5-0.6,0.7l1.7,6.1c0.1,0.3,0.5,0.4,0.9,0.3l33.6-12.3
				C-230.5,141.7-231.8,140.1-231.8,138.3z"/>
			<path class="st27" d="M-224.4,134.3h-7.5v3.8v0.1c0,1.9,1.4,3.4,3.1,3.7c0.2,0,0.4,0.1,0.6,0.1c1.1,0,2.1-0.5,2.8-1.3
				c0.3-0.4,0.6-0.9,0.7-1.4c0.1-0.3,0.2-0.7,0.2-1.1V134.3z"/>
			<path class="st18" d="M-226.8,138.9c0,0.7-0.6,1.3-1.3,1.3l0,0c-0.7,0-1.3-0.6-1.3-1.3l0,0c0-0.7,0.6-1.3,1.3-1.3l0,0
				C-227.4,137.7-226.8,138.2-226.8,138.9L-226.8,138.9z"/>
			
				<rect x="-281.9" y="89.6" transform="matrix(0.9239 -0.3827 0.3827 0.9239 -66.4877 -98.3836)" class="st26" width="2.8" height="56.7"/>
			
				<rect x="-275" y="131.2" transform="matrix(0.9239 -0.3827 0.3827 0.9239 -72.9933 -94.034)" class="st27" width="4.3" height="10.5"/>
			<path class="st26" d="M-264.2,148.6l-6.2,2.6c-0.8,0.3-1.7,0-2-0.8l-4.1-9.9c-0.3-0.8,0-1.7,0.8-2l6.2-2.6c0.8-0.3,1.7,0,2,0.8
				l4.1,9.9C-263,147.4-263.4,148.3-264.2,148.6z"/>
			<path id="XMLID_1_" class="st23" d="M-288.5,96.6l-1.6,0.7c-0.5,0.2-1.2-0.2-1.4-0.9l-4.9-11.9c-0.3-0.7-0.1-1.4,0.4-1.6l1.6-0.7
				c0.5-0.2,1.2,0.2,1.4,0.9l4.9,11.9C-287.8,95.6-288,96.3-288.5,96.6z"/>
			<g>
				
					<rect x="-296.2" y="84.2" transform="matrix(0.9239 -0.3826 0.3826 0.9239 -54.7966 -106.1736)" class="st19" width="3.7" height="0.9"/>
				
					<rect x="-295.5" y="85.9" transform="matrix(0.9239 -0.3827 0.3827 0.9239 -55.4038 -105.7829)" class="st19" width="3.7" height="0.9"/>
				
					<rect x="-294.8" y="87.6" transform="matrix(0.9239 -0.3827 0.3827 0.9239 -56.0145 -105.3962)" class="st19" width="3.7" height="0.9"/>
				
					<rect x="-294.1" y="89.3" transform="matrix(0.9239 -0.3827 0.3827 0.9239 -56.6027 -104.982)" class="st19" width="3.7" height="0.9"/>
				
					<rect x="-293.4" y="91" transform="matrix(0.9239 -0.3827 0.3827 0.9239 -57.2135 -104.5951)" class="st19" width="3.7" height="0.9"/>
				
					<rect x="-292.7" y="92.7" transform="matrix(0.9239 -0.3827 0.3827 0.9239 -57.8015 -104.181)" class="st19" width="3.7" height="0.9"/>
				
					<rect x="-292" y="94.5" transform="matrix(0.9239 -0.3825 0.3825 0.9239 -58.3731 -103.7481)" class="st19" width="3.7" height="0.9"/>
			</g>
			<path class="st27" d="M-226.8,155.6h-50c-0.6,0-1.1-0.5-1.1-1.1V144c0-0.6,0.5-1.1,1.1-1.1l50,6.3c0.6,0,1.1,0.5,1.1,1.1v4.2
				C-225.8,155.1-226.2,155.6-226.8,155.6z"/>
			<path class="st23" d="M-273,154.2c0,1.5-1.2,2.8-2.8,2.8c-1.5,0-2.8-1.2-2.8-2.8c0-1.5,1.2-2.8,2.8-2.8
				C-274.3,151.5-273,152.7-273,154.2z"/>
			<circle class="st19" cx="-275.8" cy="154.2" r="2.1"/>
			<path class="st18" d="M-275.1,154.2c0,0.4-0.3,0.7-0.7,0.7c-0.4,0-0.7-0.3-0.7-0.7c0-0.4,0.3-0.7,0.7-0.7
				C-275.4,153.6-275.1,153.9-275.1,154.2z"/>
			<circle class="st23" cx="-228.7" cy="152.7" r="4.3"/>
			<circle class="st19" cx="-228.7" cy="152.7" r="3.2"/>
			<path class="st18" d="M-227.6,152.7c0,0.6-0.5,1.1-1.1,1.1c-0.6,0-1.1-0.5-1.1-1.1c0-0.6,0.5-1.1,1.1-1.1
				C-228.1,151.6-227.6,152.1-227.6,152.7z"/>
		</g>
	</g>
	<path class="st28" d="M-232.9,152c-23.1,0-38.6-8.7-41.8-20.1l-20.6-49.4l-0.8,0.3c-0.5,0.2-0.7,0.9-0.4,1.6l0.2,0.5l0.3,0.7l0.4,1
		l0.4,0.9l0.7,1.7l0,0l0.4,0.8l0.2,0.5l0.5,1.2l0,0.1l1.9,4.5c0.2,0.5,0.5,0.8,0.9,0.9l14.5,34.9l-0.7,0.3l2.3,5.6l-1.1,0.5
		c-0.8,0.3-1.2,1.2-0.8,2l1.1,2.6l-1.4-0.2c-0.6,0-1.1,0.5-1.1,1.1v8.5c-0.4,0.5-0.7,1.1-0.7,1.8c0,1.5,1.2,2.8,2.8,2.8
		c1,0,1.9-0.6,2.4-1.4h41.5c0.8,0.9,1.9,1.4,3.2,1.4c2.4,0,4.3-1.9,4.3-4.3c0-0.4-0.1-0.8-0.2-1.2C-227.2,151.8-230,152-232.9,152z"
		/>
</g>
<g>
	<g>
		<rect x="-172.3" y="84.1" class="st29" width="12.3" height="3.3"/>
		<path class="st30" d="M-177.2,147.3c-0.3-26.6,4.9-55.3,15.3-58.2c-14.1-7.2-21.2,26.6-20.9,57.5c0,2.3,0,4.5,0,6.5
			c0.1,2.2,1.5,4,3.3,4h3.7c-0.8-0.7-1.4-1.9-1.4-3.2C-177.3,151.8-177.3,149.6-177.2,147.3z"/>
		<path class="st31" d="M-158.9,91v-3.7c0-0.3-0.3-0.6-0.6-0.6h-13.2c-0.3,0-0.6,0.3-0.6,0.6v4.1c0,0.3,0.3,0.6,0.6,0.6h6.5
			c-0.7,0.7-1.3,1.6-1.9,2.5c-0.4,0-0.9-0.1-1.4-0.1h-0.3c0,0,0,0,0,0.1c-0.1,0-0.1-0.1-0.2-0.1h-4.5c-0.2,0-0.4,0.1-0.5,0.3
			c-0.4,0.6-0.7,1.3-1,2c-0.2,0.4,0.1,0.9,0.6,0.9h3.7h0.8h1.4c-0.3,0.7-0.6,1.4-0.9,2.2h-1.9h-0.5h-4c-0.3,0-0.5,0.2-0.6,0.4
			c-0.2,0.7-0.5,1.3-0.7,2c-0.1,0.4,0.2,0.8,0.6,0.8h3.3h1.2h1.4c-0.2,0.7-0.5,1.4-0.7,2.2h-1.8h-1h-3.5c-0.3,0-0.5,0.2-0.6,0.4
			c-0.2,0.7-0.4,1.3-0.5,2c-0.1,0.4,0.2,0.8,0.6,0.8h2.9h1.5h1.5c-0.2,0.7-0.3,1.4-0.5,2.2h-1.8h-1.4h-3.1c-0.3,0-0.5,0.2-0.6,0.5
			c-0.1,0.7-0.3,1.3-0.4,2c-0.1,0.4,0.2,0.7,0.6,0.7h2.7h1.8h1.5c-0.1,0.7-0.3,1.4-0.4,2.2h-1.7h-1.6h-2.8c-0.3,0-0.6,0.2-0.6,0.5
			c-0.1,0.7-0.2,1.3-0.3,2c-0.1,0.4,0.2,0.7,0.6,0.7h2.5h1.9h1.5c-0.1,0.7-0.2,1.4-0.3,2.2h-1.7h-1.9h-2.6c-0.3,0-0.6,0.2-0.6,0.5
			c-0.1,0.7-0.2,1.3-0.2,2c0,0,0,0.1,0,0.1c-0.8,7.2-1.2,14.9-1.1,22.5c0,2.3,0,4.5,0,6.5c0.1,2.2,1.5,4,3.3,4h4.7h31.6h1
			c1.3,0,2.6-1,3-2.6c0.6-2.2,0.9-4.8,0.8-7.8C-139,133.2-145.7,101.4-158.9,91z M-148.6,121.8h-9.1c-0.7,0-1.2-0.6-1.2-1.2v-23
			c0-1.2,1.5-1.7,2.2-0.8c0,0,0,0,0,0c0.5,0.7,0.3,2,0.8,2.8c0.5,0.8,1.7,1.1,2.1,1.9c0.4,0.8,0.1,2,0.5,2.8
			c0.4,0.8,1.6,1.3,1.9,2.1c0.4,0.8-0.1,2,0.3,2.9c0.3,0.8,1.5,1.4,1.8,2.2c0.3,0.9-0.2,2,0.1,2.9c0.3,0.9,1.4,1.5,1.7,2.3
			c0.3,0.9-0.3,2-0.1,2.9c0,0.1,0.1,0.2,0.1,0.3C-147.1,120.8-147.6,121.8-148.6,121.8z"/>
		<g>
			<path class="st31" d="M-159.4,84.8v-7.1c0-0.7-0.5-1.2-1.2-1.2h-11c-0.7,0-1.2,0.5-1.2,1.2v7.1H-159.4z"/>
		</g>
		<path class="st30" d="M-159.4,82.6v-4c0-0.5-0.4-0.8-0.8-0.8c-0.5,0-0.8,0.4-0.8,0.8v4h-0.7v-4c0-0.5-0.4-0.8-0.8-0.8
			s-0.8,0.4-0.8,0.8v4h-0.7v-4c0-0.5-0.4-0.8-0.8-0.8c-0.5,0-0.8,0.4-0.8,0.8v4h-0.7v-4c0-0.5-0.4-0.8-0.8-0.8
			c-0.5,0-0.8,0.4-0.8,0.8v4h-0.7v-4c0-0.5-0.4-0.8-0.8-0.8c-0.5,0-0.8,0.4-0.8,0.8v4h-0.7v-4c0-0.5-0.4-0.8-0.8-0.8
			c-0.5,0-0.8,0.4-0.8,0.8v4h-0.4v2.1h14.2v-2.1H-159.4z"/>
		<path class="st32" d="M-176.2,125c-1.7,0-3.1,1.3-3.2,3c-0.4,5.2-0.6,10.5-0.5,15.8c0,2.1,0,4,0,5.8c0,2,1.2,3.5,2.7,3.5h30.7
			c1.1,0,2.1-0.9,2.5-2.3c0.5-2,0.7-4.2,0.7-7c0.1-4-0.5-9.8-1.7-16.2c-0.3-1.5-1.6-2.6-3.2-2.6H-176.2z"/>
		<path class="st29" d="M-152.7,139.4l2.4-0.9l-0.2-1.6l-2.5-0.3l-0.5-1.4l1.7-1.9l-0.9-1.3l-2.4,0.9l-1.1-1l0.6-2.5l-1.5-0.8
			l-1.7,1.9l-1.5-0.4l-0.6-2.5h-1.6l-0.6,2.5l-1.5,0.4l-1.7-1.9l-1.5,0.8l0.6,2.5l-1.1,1l-2.4-0.9l-0.9,1.3l1.7,1.9l-0.5,1.4
			l-2.5,0.3l-0.2,1.6l2.4,0.9l0.2,1.5l-2.1,1.4l0.6,1.5l2.5-0.3l0.9,1.2l-1.2,2.2l1.2,1.1l2.1-1.5l1.3,0.7l0,2.5l1.6,0.4l1.2-2.3
			h1.5l1.2,2.3l1.6-0.4l0-2.5l1.3-0.7l2.1,1.5l1.2-1.1l-1.2-2.2l0.9-1.2l2.5,0.3l0.6-1.5l-2.1-1.4L-152.7,139.4z M-161.6,143.1
			c-2.2,0-4-1.8-4-4c0-1.9,1.3-3.4,3-3.9v-1h2v1c1.7,0.5,3,2,3,3.9C-157.6,141.3-159.4,143.1-161.6,143.1z"/>
		<path class="st30" d="M-161.6,145.8c-3.7,0-6.8-3-6.8-6.8c0-3.7,3-6.8,6.8-6.8c3.7,0,6.8,3,6.8,6.8
			C-154.8,142.8-157.8,145.8-161.6,145.8z M-161.6,132.7c-3.5,0-6.3,2.8-6.3,6.3c0,3.5,2.8,6.3,6.3,6.3c3.5,0,6.3-2.8,6.3-6.3
			C-155.2,135.6-158.1,132.7-161.6,132.7z"/>
	</g>
	<path class="st28" d="M-143.3,146.2c-17.5,0-32.1-17.7-35-41h-0.5c-0.3,0-0.5,0.2-0.6,0.4c-0.2,0.7-0.4,1.3-0.5,2
		c-0.1,0.4,0.2,0.8,0.6,0.8h0.2c-0.2,0.7-0.3,1.4-0.5,2.2h-0.5c-0.3,0-0.5,0.2-0.6,0.5c-0.1,0.7-0.3,1.3-0.4,2
		c-0.1,0.4,0.2,0.7,0.6,0.7h0.3c-0.1,0.7-0.3,1.4-0.4,2.2h-0.5c-0.3,0-0.6,0.2-0.6,0.5c-0.1,0.7-0.2,1.3-0.3,2
		c-0.1,0.4,0.2,0.7,0.6,0.7h0.3c-0.1,0.7-0.2,1.4-0.3,2.2h-0.5c-0.3,0-0.6,0.2-0.6,0.5c-0.1,0.7-0.2,1.3-0.2,2c0,0,0,0.1,0,0.1
		c-0.8,7.2-1.2,14.9-1.1,22.5c0,2.3,0,4.5,0,6.5c0.1,2.2,1.5,4,3.3,4h37.3c1.3,0,2.6-1,3-2.6c0.6-2.2,0.9-4.8,0.8-7.8
		c0-0.2,0-0.4,0-0.6C-140.7,146.1-142,146.2-143.3,146.2z"/>
</g>
<g>
	<g>
		<polygon class="st23" points="-361.6,264.6 -367.4,264.6 -370.1,229.2 -358.9,229.2 		"/>
		<path class="st23" d="M-335.7,195.3h-5.5c-1.4,0-2.5,0.9-3,2.1h3h5.5c0.6,0,1.1,0.5,1.1,1.1v22.6c0,0.6-0.5,1.1-1.1,1.1h-4.8
			h-10.1l-1.2,2.1h16.1c1.8,0,3.2-1.4,3.2-3.2v-22.6C-332.5,196.7-333.9,195.3-335.7,195.3z"/>
		<polygon class="st33" points="-340.8,205.2 -388.2,205.2 -370.8,235.3 -358.2,235.3 -351.8,224.3 -350.6,222.2 		"/>
		<rect x="-388.2" y="197.3" class="st34" width="47.4" height="7.9"/>
		<rect x="-346.1" y="197.3" class="st35" width="3.9" height="7.9"/>
		<polygon class="st35" points="-359.4,235.3 -359.4,235.3 -346.1,205.2 -342.2,205.2 		"/>
	</g>
	<path class="st28" d="M-382.2,203.8c-0.9-2.1-1.7-4.3-2.3-6.5h-3.7v7.9h0l17.4,30.1h1.2l2.2,29.3h5.8l2.2-29.3h1.2l3-5.3
		C-366.2,226.5-376.5,217.1-382.2,203.8z"/>
</g>
<g>
	<g>
		<path class="st36" d="M-271,249l3.5-1.3l-0.3-2.4l-3.7-0.4l-0.8-2l2.5-2.7l-1.3-1.9l-3.4,1.4l-1.6-1.4l0.9-3.6l-2.1-1.1l-2.4,2.8
			l-2.1-0.5l-0.8-3.6h-2.4l-0.8,3.6l-2.1,0.5l-2.4-2.8l-2.1,1.1l0.9,3.6l-1.6,1.4l-3.4-1.4l-1.3,1.9l2.5,2.7l-0.8,2l-3.7,0.4
			l-0.3,2.4l3.5,1.3l0.3,2.2l-3.1,2.1l0.8,2.2l3.6-0.5l1.2,1.8l-1.8,3.2l1.8,1.6l3-2.1l1.9,1l0,3.7l2.3,0.6l1.7-3.3h2.2l1.7,3.3
			l2.3-0.6l0-3.7l1.9-1l3,2.1l1.8-1.6l-1.8-3.2l1.2-1.8l3.6,0.5l0.8-2.2l-3.1-2.1L-271,249z M-283.9,254.2c-3.2,0-5.8-2.6-5.8-5.8
			c0-2.7,1.8-4.9,4.3-5.6v-1.4h2.9v1.4c2.5,0.7,4.3,2.9,4.3,5.6C-278.1,251.6-280.7,254.2-283.9,254.2z"/>
		<path class="st37" d="M-283.9,258.1c-5.4,0-9.7-4.4-9.7-9.7c0-5.4,4.4-9.7,9.7-9.7c5.4,0,9.7,4.4,9.7,9.7
			C-274.2,253.8-278.5,258.1-283.9,258.1z M-283.9,239.2c-5.1,0-9.2,4.1-9.2,9.2c0,5.1,4.1,9.2,9.2,9.2c5.1,0,9.2-4.1,9.2-9.2
			C-274.6,243.3-278.8,239.2-283.9,239.2z"/>
	</g>
	<path class="st38" d="M-246.9,247.6l-32.7-32.7c-1.1-1.1-1.5-2.6-1.4-4.2c0.4-4.3-1.2-9.4-7.9-10.9c-0.5-0.1-2-0.5-1.6,0.1
		c1.3,2.3,2.4,4.3,3.7,6.6c0.2,0.4,0.2,1-0.1,1.4c-1.7,2-4.1,3.4-6.8,3.8c-0.5,0.1-1-0.2-1.3-0.6c-1.2-2.1-2.3-4.2-3.5-6.3
		c-0.1-0.2-0.4-0.2-0.5,0c-2,3.8-1.2,8.8,0.5,10.9c1.8,2.1,5.4,3.6,8.2,3.3c1.5-0.1,3,0.3,4,1.4l33.1,33.1c1,1,1.5,2.3,1.6,3.7
		c0.2,3.2,2.3,6.2,6.4,7.3c0.9,0.2,1.8,0.2,2.7,0c6.8-1.7,8.2-9.2,4.1-13.2c-1.4-1.4-3.2-2.2-5.1-2.3
		C-244.8,248.9-246,248.5-246.9,247.6z M-238.9,253.7l-0.6,0.8l0.4,1l0.9,0.2l0.1,1.2l-0.9,0.3l-0.2,1l0.7,0.7l-0.6,1.1l-0.9-0.2
		l-0.8,0.8l0.2,0.9l-1.1,0.6l-0.7-0.7l-1,0.2l-0.3,0.9l-1.2-0.1l-0.2-0.9l-1-0.4l-0.8,0.6l-1-0.7l0.3-0.9l-0.6-0.9l-0.9,0.1
		l-0.4-1.1l0.7-0.6l-0.1-1.1l-0.8-0.5l0.3-1.2l0.9-0.1l0.5-0.9l-0.4-0.8l0.9-0.9l0.8,0.4l0.9-0.5l0.1-0.9l1.2-0.3l0.5,0.8l1.1,0.1
		l0.6-0.7l1.1,0.4l-0.1,0.9l0.9,0.6l0.9-0.3L-238.9,253.7z"/>
	<path class="st38" d="M-236.3,236.2l-26.1-26.1c-0.9-0.9-1.2-2.1-1.1-3.3c0.3-3.4-0.9-7.5-6.3-8.7c-0.4-0.1-1.6-0.4-1.3,0.1
		c1,1.9,1.9,3.4,2.9,5.3c0.2,0.3,0.1,0.8-0.1,1.1c-1.4,1.6-3.3,2.7-5.4,3c-0.4,0.1-0.8-0.2-1-0.5c-0.9-1.7-1.9-3.3-2.8-5
		c-0.1-0.2-0.3-0.2-0.4,0c-1.6,3-1,7.1,0.4,8.7c1.4,1.7,4.4,2.9,6.5,2.7c1.2-0.1,2.4,0.3,3.2,1.1l26.5,26.5c0.8,0.8,1.2,1.9,1.3,3
		c0.2,2.5,1.9,5,5.1,5.8c0.7,0.2,1.4,0.2,2.1,0c5.4-1.4,6.6-7.3,3.3-10.6c-1.1-1.1-2.6-1.7-4.1-1.8
		C-234.6,237.3-235.5,236.9-236.3,236.2z M-229.8,241.1l-0.4,0.6l0.3,0.8l0.7,0.2l0.1,1l-0.7,0.3l-0.2,0.8l0.5,0.5l-0.5,0.9
		l-0.7-0.2l-0.6,0.6l0.2,0.7l-0.9,0.5l-0.5-0.5l-0.8,0.2l-0.3,0.7l-1-0.1l-0.2-0.7l-0.8-0.3l-0.6,0.4l-0.8-0.6l0.3-0.7l-0.5-0.7
		l-0.7,0l-0.3-0.9l0.6-0.5l-0.1-0.9l-0.7-0.4l0.2-1l0.7-0.1l0.4-0.7l-0.4-0.7l0.7-0.7l0.7,0.4l0.7-0.4l0.1-0.7l1-0.2l0.4,0.7
		l0.9,0.1l0.5-0.6l0.9,0.3l0,0.7l0.7,0.5l0.7-0.3L-229.8,241.1z"/>
	<path class="st38" d="M-227.6,227.4l-20.9-20.9c-0.7-0.7-1-1.7-0.9-2.7c0.3-2.8-0.7-6-5-7c-0.3-0.1-1.3-0.3-1.1,0.1
		c0.8,1.5,1.5,2.7,2.4,4.2c0.1,0.3,0.1,0.7-0.1,0.9c-1.1,1.3-2.6,2.1-4.3,2.4c-0.3,0-0.7-0.1-0.8-0.4c-0.7-1.3-1.5-2.7-2.2-4
		c-0.1-0.1-0.3-0.1-0.3,0c-1.3,2.4-0.8,5.7,0.3,7c1.2,1.4,3.5,2.3,5.2,2.1c1-0.1,1.9,0.2,2.6,0.9l21.2,21.2c0.6,0.6,1,1.5,1,2.4
		c0.1,2,1.5,4,4.1,4.6c0.6,0.1,1.1,0.1,1.7,0c4.4-1.1,5.2-5.9,2.7-8.5c-0.9-0.9-2.1-1.4-3.3-1.4C-226.3,228.3-227.1,228-227.6,227.4
		z M-222.5,231.3l-0.4,0.5l0.2,0.6l0.6,0.1l0.1,0.8l-0.6,0.2l-0.1,0.7l0.4,0.4l-0.4,0.7l-0.6-0.1l-0.5,0.5l0.1,0.6l-0.7,0.4
		l-0.4-0.4l-0.7,0.1l-0.2,0.6l-0.8-0.1l-0.1-0.6l-0.6-0.2l-0.5,0.4l-0.6-0.5l0.2-0.6l-0.4-0.5l-0.6,0l-0.3-0.7l0.5-0.4l0-0.7
		l-0.5-0.3l0.2-0.8l0.6,0l0.3-0.6l-0.3-0.5l0.6-0.6l0.5,0.3l0.6-0.3l0-0.6l0.8-0.2l0.3,0.5l0.7,0l0.4-0.5l0.7,0.3l0,0.6l0.5,0.4
		l0.6-0.2L-222.5,231.3z"/>
	<path class="st39" d="M-250,247.6c0.7,0.7,0.7,2-0.1,2.8l0,0c-0.8,0.8-2.1,0.9-2.8,0.1l-32.5-32.5c-0.7-0.7-0.7-2,0.1-2.8l0,0
		c0.8-0.8,2.1-0.9,2.8-0.1L-250,247.6z"/>
	<path class="st39" d="M-238.7,236.2c0.6,0.6,0.6,1.6-0.1,2.3l0,0c-0.6,0.6-1.7,0.7-2.3,0.1l-26-26c-0.6-0.6-0.6-1.6,0.1-2.3l0,0
		c0.6-0.6,1.7-0.7,2.3-0.1L-238.7,236.2z"/>
	<path class="st39" d="M-229.6,227.4c0.5,0.5,0.4,1.3-0.1,1.8l0,0c-0.5,0.5-1.3,0.6-1.8,0.1l-20.8-20.8c-0.5-0.5-0.4-1.3,0.1-1.8
		l0,0c0.5-0.5,1.3-0.6,1.8-0.1L-229.6,227.4z"/>
	<path class="st28" d="M-273.2,255.6c-2.2-1-4.3-2.1-6.3-3.5c-1.1,1.3-2.7,2.1-4.5,2.1c-3.2,0-5.8-2.6-5.8-5.8
		c0-1.5,0.6-2.9,1.6-3.9c-1.5-1.8-2.9-3.7-4.2-5.7l-1,0.8l-3.4-1.4l-1.3,1.9l2.5,2.7l-0.8,2l-3.7,0.4l-0.3,2.4l3.5,1.3l0.3,2.2
		l-3.1,2.1l0.8,2.2l3.6-0.5l1.2,1.8l-1.8,3.2l1.8,1.6l3-2.1l1.9,1l0,3.7l2.3,0.6l1.7-3.3h2.2l1.7,3.3l2.3-0.6l0-3.7l1.9-1l3,2.1
		l1.8-1.6l-1.8-3.2L-273.2,255.6z"/>
	<path class="st28" d="M-238.5,257l-0.5,0.2l-0.2,1l0.7,0.7l-0.6,1.1l-0.9-0.2l-0.8,0.8l0.2,0.9l-1.1,0.6l-0.7-0.7l-1,0.2l-0.3,0.9
		l-1.2-0.1l-0.2-0.9l-1-0.4l-0.8,0.6l-1-0.7l0.3-0.9l-0.6-0.9l-0.9,0.1l-0.4-1.1l0.7-0.6l-0.1-1.1l-0.8-0.5l0.3-1.2l0.9-0.1l0.5-0.9
		l-0.4-0.8l0.9-0.9l0.8,0.4l0.7-0.4c-8-5.6-16.6-12.8-25.1-21.3c-7-7-13.2-14.2-18.3-20.9c-1.3,0.8-2.8,1.4-4.3,1.7
		c-0.5,0.1-1-0.2-1.3-0.6c-1.2-2.1-2.3-4.2-3.5-6.3c-0.1-0.2-0.4-0.2-0.5,0c-2,3.8-1.2,8.8,0.5,10.9c1.8,2.1,5.4,3.6,8.2,3.3
		c1.5-0.1,3,0.3,4,1.4l33.1,33.1c1,1,1.5,2.3,1.6,3.7c0.2,3.2,2.3,6.2,6.4,7.3c0.9,0.2,1.8,0.2,2.7,0c3.6-0.9,5.7-3.5,6.2-6.2
		C-237,257.8-237.8,257.4-238.5,257z"/>
	<path class="st28" d="M-229.5,243.8l-0.4,0.1l-0.2,0.8l0.5,0.5l-0.5,0.9l-0.7-0.2l-0.6,0.6l0.2,0.7l-0.9,0.5l-0.5-0.5l-0.8,0.2
		l-0.3,0.7l-1-0.1l-0.2-0.7l-0.8-0.3l-0.6,0.4l-0.8-0.6l0.3-0.7l-0.5-0.7l-0.7,0l-0.3-0.9l0.6-0.5l-0.1-0.9l-0.7-0.4l0.2-1l0.7-0.1
		l0.4-0.7l-0.4-0.7l0.7-0.7l0.7,0.4l0.6-0.3c-6.4-4.4-13.3-10.2-20.1-17c-5.6-5.6-10.6-11.3-14.6-16.8c-1,0.7-2.2,1.1-3.5,1.4
		c-0.4,0.1-0.8-0.2-1-0.5c-0.9-1.7-1.9-3.3-2.8-5c-0.1-0.2-0.3-0.2-0.4,0c-1.6,3-1,7.1,0.4,8.7c1.4,1.7,4.4,2.9,6.5,2.7
		c1.2-0.1,2.4,0.3,3.2,1.1l26.5,26.5c0.8,0.8,1.2,1.9,1.3,3c0.2,2.5,1.9,5,5.1,5.8c0.7,0.2,1.4,0.2,2.1,0c2.9-0.7,4.5-2.8,5-5
		C-228.3,244.4-228.9,244.1-229.5,243.8z"/>
	<path class="st28" d="M-222.2,233.5l-0.3,0.1l-0.1,0.7l0.4,0.4l-0.4,0.7l-0.6-0.1l-0.5,0.5l0.1,0.6l-0.7,0.4l-0.4-0.4l-0.7,0.1
		l-0.2,0.6l-0.8-0.1l-0.1-0.6l-0.6-0.2l-0.5,0.4l-0.6-0.5l0.2-0.6l-0.4-0.5l-0.6,0l-0.3-0.7l0.5-0.4l0-0.7l-0.5-0.3l0.2-0.8l0.6,0
		l0.3-0.6l-0.3-0.5l0.6-0.6l0.5,0.3l0.5-0.3c-5.1-3.6-10.7-8.2-16.1-13.6c-4.5-4.5-8.4-9.1-11.7-13.4c-0.8,0.5-1.8,0.9-2.8,1.1
		c-0.3,0-0.7-0.1-0.8-0.4c-0.7-1.3-1.5-2.7-2.2-4c-0.1-0.1-0.3-0.1-0.3,0c-1.3,2.4-0.8,5.7,0.3,7c1.2,1.4,3.5,2.3,5.2,2.1
		c1-0.1,1.9,0.2,2.6,0.9l21.2,21.2c0.6,0.6,1,1.5,1,2.4c0.1,2,1.5,4,4.1,4.6c0.6,0.1,1.1,0.1,1.7,0c2.3-0.6,3.6-2.2,4-4
		C-221.3,234-221.7,233.7-222.2,233.5z"/>
</g>
<g>
	<g>
		<g>
			<rect x="-68.5" y="256.1" class="st23" width="4" height="3.4"/>
			<path class="st40" d="M-63.5,256.9h-6c-1.2,0-2.2-0.9-2.2-2l-1.3-35.1c0-1.2,1-2.2,2.2-2.2h8.6c1.3,0,2.3,1,2.2,2.2l-1.3,35.1
				C-61.3,256-62.3,256.9-63.5,256.9z"/>
			<path class="st23" d="M-55.1,222.8h-2.4h-17.8h-2.4c-0.4,0-0.7,0.3-0.7,0.8v5.8c0,0.4,0.3,0.8,0.7,0.8h2.4h17.8h2.4
				c0.4,0,0.7-0.3,0.7-0.8v-5.8C-54.4,223.2-54.7,222.8-55.1,222.8z"/>
			<g>
				<path class="st41" d="M-61.2,186.6v3.5h1.5v-3.5c0-2.3-1.9-4.1-4.2-4.1H-69v1.4h5.1C-62.4,183.9-61.2,185.1-61.2,186.6z"/>
			</g>
			<rect x="-69.8" y="185.5" class="st41" width="6.6" height="4.2"/>
			<rect x="-74.3" y="188.6" class="st42" width="15.6" height="34.2"/>
			<polygon class="st43" points="-57.7,192.5 -75.3,191.1 -75.3,189.6 -57.7,191.1 			"/>
			<polygon class="st43" points="-57.7,194.8 -75.3,193.3 -75.3,191.9 -57.7,193.3 			"/>
			<polygon class="st43" points="-57.7,197 -75.3,195.6 -75.3,194.2 -57.7,195.6 			"/>
			<polygon class="st43" points="-57.7,199.3 -75.3,197.9 -75.3,196.4 -57.7,197.9 			"/>
			<polygon class="st43" points="-57.7,201.6 -75.3,200.1 -75.3,198.7 -57.7,200.1 			"/>
			<polygon class="st43" points="-57.7,203.8 -75.3,202.4 -75.3,201 -57.7,202.4 			"/>
			<polygon class="st43" points="-57.7,206.1 -75.3,204.7 -75.3,203.2 -57.7,204.7 			"/>
			<polygon class="st43" points="-57.7,208.4 -75.3,206.9 -75.3,205.5 -57.7,206.9 			"/>
			<polygon class="st43" points="-57.7,210.6 -75.3,209.2 -75.3,207.8 -57.7,209.2 			"/>
			<path class="st23" d="M-58.4,222.8h-16.2c-0.7,0-1.3-0.7-1.3-1.5V214c0-0.9,0.6-1.5,1.3-1.5h16.2c0.7,0,1.3,0.7,1.3,1.5v7.3
				C-57.1,222.1-57.7,222.8-58.4,222.8z"/>
			<path class="st44" d="M-61,229.8c-3.7,0-7.4,0-11,0c-0.2,0-0.6-0.3-0.7-0.7c-0.8-1.7-0.8-3.6,0-5.3c0.2-0.4,0.5-0.7,0.7-0.7
				c3.7,0,7.4,0,11,0c0.2,0,0.6,0.3,0.7,0.7c0.8,1.7,0.8,3.6,0,5.3C-60.4,229.5-60.8,229.8-61,229.8z"/>
			<path class="st44" d="M-54.4,229.1v-5.2c0-0.4-0.3-0.7-0.7-0.7h-2.4c-0.2,0-0.6,0.3-0.8,0.7c-0.9,1.7-0.9,3.6,0,5.3
				c0.2,0.4,0.6,0.7,0.8,0.7h2.4C-54.7,229.8-54.4,229.5-54.4,229.1z"/>
			<path class="st44" d="M-74.6,229.1c0.9-1.7,0.9-3.6,0-5.3c-0.2-0.4-0.6-0.7-0.8-0.7h-2.4c-0.4,0-0.7,0.3-0.7,0.7v5.2
				c0,0.4,0.3,0.7,0.7,0.7h2.4C-75.2,229.8-74.8,229.5-74.6,229.1z"/>
			<g>
				<polygon class="st17" points="-61.2,253 -71.8,253 -71.7,254.3 -61.2,254.3 				"/>
				<polygon class="st17" points="-61.1,250.9 -71.9,250.9 -71.8,252.2 -61.2,252.2 				"/>
				<polygon class="st17" points="-61,248.8 -71.9,248.8 -71.9,250.1 -61.1,250.1 				"/>
				<polygon class="st17" points="-60.9,246.7 -72,246.7 -72,247.9 -61,247.9 				"/>
				<polygon class="st17" points="-60.9,244.6 -72.1,244.6 -72,245.8 -60.9,245.8 				"/>
			</g>
			<path class="st23" d="M-64.9,264.6c-1.1,0-2.1,0-3.2,0c-0.5,0-1-0.6-1.2-1.4c-0.1-0.9-0.1-1.8,0-2.7c0.1-0.8,0.7-1.4,1.2-1.4
				c1.1,0,2.1,0,3.2,0c0.5,0,1,0.6,1.2,1.4c0.1,0.9,0.1,1.8,0,2.7C-63.8,264-64.4,264.6-64.9,264.6z"/>
		</g>
		<rect x="-61.1" y="188.6" class="st45" width="1.5" height="23.8"/>
		<path class="st46" d="M-58.9,222.5h-0.6c-0.2,0-0.4-0.2-0.4-0.4v-8.6c0-0.2,0.2-0.4,0.4-0.4h0.6c0.2,0,0.4,0.2,0.4,0.4v8.6
			C-58.5,222.3-58.7,222.5-58.9,222.5z"/>
		<rect x="-57.4" y="223.2" class="st46" width="1.5" height="6.6"/>
		<path class="st46" d="M-62.6,255.4h-0.3c-0.4,0-0.6-0.3-0.6-0.6l0.7-23.5c0-0.3,0.3-0.6,0.6-0.6h0.3c0.4,0,0.6,0.3,0.6,0.6
			l-0.7,23.5C-62,255.2-62.2,255.4-62.6,255.4z"/>
		<path class="st46" d="M-64.7,263.7H-65c-0.3,0-0.5-0.2-0.5-0.5v-2.8c0-0.3,0.2-0.5,0.5-0.5h0.2c0.3,0,0.5,0.2,0.5,0.5v2.8
			C-64.2,263.5-64.4,263.7-64.7,263.7z"/>
	</g>
	<path class="st28" d="M-70.5,210.4c-1-7.6-1.2-15-0.7-21.8h-3.1v1.1l-1-0.1v1.4l1,0.1v0.8l-1-0.1v1.4l1,0.1v0.8l-1-0.1v1.4l1,0.1
		v0.8l-1-0.1v1.4l1,0.1v0.8l-1-0.1v1.4l1,0.1v0.8l-1-0.1v1.4l1,0.1v0.8l-1-0.1v1.4l1,0.1v0.8l-1-0.1v1.4l1,0.1v0.8l-1-0.1v1.4l1,0.1
		v3.2h-0.3c-0.7,0-1.3,0.7-1.3,1.5v7.3c0,0.9,0.6,1.5,1.3,1.5h0.3h1.4v0h-2.5h-2.4c-0.4,0-0.7,0.3-0.7,0.8v0.3v5.2v0.3
		c0,0.4,0.3,0.8,0.7,0.8h2.4h2.8l0.6,14.8l0,0.9h0l0,0.9l0,0.7l0.1,1.5l0,1.3l0.1,1.6l0,0.5l0,0.9l0,0l0,1.3h0l0,0.6
		c0,1.1,1,2,2.2,2h1v2.3c-0.3,0.2-0.7,0.7-0.7,1.3c-0.1,0.9-0.1,1.8,0,2.7c0.1,0.8,0.7,1.4,1.2,1.4c1.1,0,2.1,0,3.2,0
		c0.5,0,1-0.6,1.2-1.4c0.1-0.9,0.1-1.8,0-2.7c-0.1-0.6-0.4-1.1-0.7-1.3v-2.3h1c1.2,0,2.2-0.9,2.2-2l0.1-2.7l0-0.1l0.1-2.7l0-0.5
		l0.1-3l0-1.3l0.1-2.9C-65.4,233-68.8,222.2-70.5,210.4z"/>
</g>
<g>
	<g>
		<g>
			<g>
				<path class="st47" d="M-161.6,237.6C-161.6,237.6-161.6,237.6-161.6,237.6c-1.3,0-2,0-3.2-0.1c-8.2,0.2-12.6,14.5-5.8,18
					c3,1.1,5.7,1.6,9.1,1.6c0,0,0,0,0,0c0,0,0,0,0,0c3.4,0,6.1-0.6,9.1-1.6c6.8-3.5,2.3-17.7-5.8-18
					C-159.6,237.6-160.3,237.6-161.6,237.6C-161.6,237.6-161.6,237.6-161.6,237.6z M-161.6,261.8
					C-161.6,261.8-161.6,261.8-161.6,261.8c-17.6,0-32-13.4-33.7-30.6c1.4-1.6,3.1-3.1,5-4.4c0.1,0.5,0.2,0.9,0.6,1.2
					c3.2,2.1,13.3-9.4,28-9.4c0,0,0,0,0,0c0,0,0,0,0,0c14.7,0,24.7,11.5,28,9.4c0.4-0.3,0.6-0.7,0.6-1.2c2,1.4,3.7,2.8,5,4.4
					C-129.6,248.4-144,261.8-161.6,261.8C-161.6,261.8-161.6,261.8-161.6,261.8z M-184.4,246.3c7.4,5.7,11-9.3,6.6-8.9
					c-3.8-0.2-7.1-0.6-9.5-1.3c-1.2-0.3-2.2,0.8-1.8,2C-188,241.1-186.4,243.9-184.4,246.3z M-134.1,238.1c0.4-1.2-0.6-2.3-1.8-2
					c-2.4,0.7-5.7,1.1-9.5,1.3c-4.3-0.4-0.8,14.7,6.6,8.9C-136.8,243.9-135.2,241.1-134.1,238.1z"/>
				<path class="st48" d="M-161.6,198.7C-161.6,198.7-161.6,198.7-161.6,198.7c-1.1,0-2.2,0.7-3.2,0.8c-1.1,0.1-2.3-0.3-3.3-0.1
					c-1.1,0.2-1.9,1.1-3,1.5c-1,0.4-2.3,0.2-3.2,0.7c-1,0.5-1.6,1.5-2.5,2.1c-0.9,0.6-2.2,0.7-3,1.4c-0.8,0.7-1.2,1.9-2,2.6
					c-0.8,0.8-2,1.2-2.6,2c-0.7,0.8-0.8,2.1-1.4,3c-0.6,0.9-1.6,1.6-2.1,2.5c-0.5,1-0.3,2.2-0.7,3.2c-0.4,1-1.3,1.9-1.5,3
					c-0.2,1.1,0.2,2.2,0.1,3.3c-0.1,0.6-0.2,1.4-0.1,2c-2,1.4-3.7,2.8-5,4.4c-0.1-1.1-0.2-2.1-0.2-3.2c0-18.7,15.1-33.8,33.8-33.8
					c0,0,0,0,0,0c0,0,0,0,0,0c18.7,0,33.8,15.1,33.8,33.8c0,1.1-0.1,2.2-0.2,3.2c-1.4-1.6-3.1-3.1-5-4.4c0.1-0.7,0-1.4-0.1-2
					c-0.1-1.1,0.3-2.3,0.1-3.3c-0.2-1.1-1.1-1.9-1.5-3c-0.4-1-0.2-2.3-0.7-3.2c-0.5-1-1.5-1.6-2.1-2.5c-0.6-0.9-0.7-2.2-1.4-3
					c-0.7-0.8-1.9-1.2-2.6-2c-0.8-0.8-1.2-2-2-2.6c-0.8-0.7-2.1-0.8-3-1.4c-0.9-0.6-1.6-1.7-2.5-2.1c-1-0.5-2.2-0.3-3.2-0.7
					c-1-0.4-1.9-1.3-3-1.5c-1-0.2-2.2,0.2-3.3,0.1C-159.4,199.3-160.5,198.7-161.6,198.7C-161.6,198.7-161.6,198.7-161.6,198.7z"/>
			</g>
			<path class="st49" d="M-161.6,236.3c-5.1-0.1-11.3-0.3-14.6-2.4c-2.3-1.5-2.5-4.7-2.5-6.2c0-3.5,8.3-7.7,17.1-7.8
				c8.7,0.1,17.1,4.2,17.1,7.8c0,1.5-0.2,4.7-2.5,6.2C-150.3,236-156.4,236.2-161.6,236.3z"/>
			<path class="st49" d="M-179.1,233.8c0,1.2-2.4,1.1-5,0.7c-2.3-0.3-5.2-0.9-5.6-2c-0.6-1.7,4-4.3,7.1-4.4
				C-179.9,228-179.1,232.6-179.1,233.8z"/>
			<path class="st49" d="M-144.1,233.8c0,1.2,2.4,1.1,5,0.7c2.3-0.3,5.2-0.9,5.6-2c0.6-1.7-4-4.3-7.1-4.4
				C-143.3,228-144.1,232.6-144.1,233.8z"/>
			<path class="st48" d="M-161.6,235.2c-4.5,0-9.8-0.3-12.6-2.1c-2-1.3-2.2-4.1-2.2-5.4c0-3.1,7.2-6.7,14.8-6.7
				c7.6,0.1,14.8,3.7,14.8,6.7c0,1.3-0.2,4.1-2.2,5.4C-151.8,234.9-157.1,235.1-161.6,235.2z"/>
			<path class="st48" d="M-180.5,233.2c0,0.9-1.8,0.8-3.7,0.5c-1.7-0.2-3.9-0.6-4.1-1.5c-0.4-1.2,3-3.2,5.3-3.3
				C-181.1,228.9-180.5,232.3-180.5,233.2z"/>
			<path class="st48" d="M-142.7,233.2c0,0.9,1.8,0.8,3.7,0.5c1.7-0.2,3.9-0.6,4.1-1.5c0.4-1.2-3-3.2-5.3-3.3
				C-142.1,228.9-142.7,232.3-142.7,233.2z"/>
			<path class="st50" d="M-161.6,233.4c-2.9,0-5.3-2.4-5.3-5.3c0-2.9,2.4-5.3,5.3-5.3c2.9,0,5.3,2.4,5.3,5.3
				C-156.3,231-158.7,233.4-161.6,233.4z"/>
			<path class="st46" d="M-137.1,207.1c-5.1-6.2-11.4-8.8-11.2-9.1c0-0.3,6.4,2.1,12,8.5c5.2,6,6.5,13.3,6.3,13.3
				C-130.4,219.7-131.9,213.2-137.1,207.1z"/>
		</g>
	</g>
	<path class="st28" d="M-133.7,245.6c-1.5,0-3-0.1-4.4-0.2c-0.2,0.3-0.4,0.6-0.6,0.8c-3.5,2.7-6.1,0.8-7.5-1.9c-1.5-0.3-3-0.6-4.4-1
		c2.2,4.4,2.1,10.2-1.9,12.2c-3,1.1-5.7,1.6-9.1,1.6c0,0,0,0,0,0s0,0,0,0c-3.4,0-6.1-0.6-9.1-1.6c-6.8-3.5-2.3-17.7,5.8-18
		c0,0,0,0,0.1,0c-6.1-3.4-11.5-7.9-16-13c-4.3,2.4-7.3,4.4-8.8,3.4c-0.4-0.3-0.6-0.7-0.6-1.2c-0.1-0.7,0-1.4,0.1-2
		c0.1-1.1-0.3-2.3-0.1-3.3c0.2-1.1,1.1-1.9,1.5-3c0.4-1,0.2-2.3,0.7-3.2c0.1-0.2,0.3-0.4,0.4-0.6c-0.9-1.6-1.7-3.3-2.4-5
		c-3.4,5.3-5.4,11.6-5.4,18.3c0,1.1,0.1,2.2,0.2,3.2c1.6,17.2,16.1,30.6,33.6,30.6c0,0,0,0,0,0s0,0,0,0c12.2,0,22.9-6.5,28.8-16.2
		C-133.1,245.6-133.4,245.6-133.7,245.6z M-184.4,246.3c-2-2.4-3.6-5.2-4.7-8.2c-0.4-1.2,0.6-2.3,1.8-2c2.4,0.7,5.7,1.1,9.5,1.3
		C-173.5,237-177,252-184.4,246.3z"/>
</g>
<g>
	<g>
		<g>
			<path class="st51" d="M17.3,13.6H4.6c-0.7,0-1.2-0.6-1-1.2l3.1-9c0.1-0.4,0.6-0.7,1-0.7h9.6c0.6,0,1.1,0.4,1.1,1v9
				C18.4,13.2,17.9,13.6,17.3,13.6z"/>
			<path class="st52" d="M18.4,11.4V3.7c0-0.5-0.5-1-1.1-1H7.6c-0.5,0-0.9,0.3-1,0.7l-2.8,8.1c-0.6,0.3-1,1-1,1.7v9c0,1.1,0.9,2,2,2
				h12.8c1.1,0,2-0.9,2-2v-9C19.6,12.4,19.1,11.7,18.4,11.4z M7.5,3.7c0,0,0.1-0.1,0.1-0.1h9.7c0.1,0,0.1,0,0.1,0.1v7.5H4.9L7.5,3.7
				z"/>
			<path class="st53" d="M5.4,11.8c0.1,0.4-0.1,0.7-0.5,0.8c-0.4,0.1-0.8-0.1-0.9-0.4c-0.1-0.4,0.6-1.4,1-1.5
				C5.5,10.6,5.3,11.5,5.4,11.8z"/>
			<path class="st54" d="M5.4,8.7c0-0.2-0.2-0.3-0.4-0.2c-0.6,0.3-1,1-0.9,1.7c0,0.8,0.5,1.4,1.1,1.6c0.2,0.1,0.4-0.1,0.4-0.3
				L5.4,8.7z"/>
			<polygon class="st46" points="17.2,10.8 16.4,10.8 14.8,3.9 17.2,3.9 			"/>
			<path class="st54" d="M16.8,14.6h-2c-0.2,0-0.4-0.2-0.4-0.4v-0.7c0-0.2,0.2-0.4,0.4-0.4h2c0.2,0,0.4,0.2,0.4,0.4v0.7
				C17.2,14.4,17,14.6,16.8,14.6z"/>
			<path class="st23" d="M16.8,14.2H15c-0.2,0-0.3-0.2-0.3-0.3v-0.5c0-0.2,0.2-0.3,0.3-0.3h1.9c0.2,0,0.3,0.2,0.3,0.3v0.5
				C17.2,14.1,17,14.2,16.8,14.2z"/>
			<path class="st46" d="M16.7,13.1h-1.9c0,0,0,0,0,0l1.7,0.1c0.2,0,0.3,0.1,0.4,0.3l0.1,0.5c0,0,0-0.1,0-0.1v-0.5
				C17.1,13.3,16.9,13.1,16.7,13.1z"/>
			<polygon class="st46" points="19.7,12.3 19.7,12.3 19.7,12.3 19.7,12.3 19.7,12.3 19.7,12.3 19.7,12.3 19.7,12.3 19.7,12.3 
				19.7,12.3 19.7,12.3 19.7,12.3 19.7,12.3 19.7,12.3 19.7,12.3 19.7,12.3 19.7,12.3 19.7,12.3 19.7,12.3 19.7,12.3 19.7,12.3 
				19.7,12.3 			"/>
			<path class="st46" d="M19,12.7c-0.1-0.6-0.6-1.1-1.2-1.1H8.4L19,12.7z"/>
		</g>
	</g>
	<path class="st28" d="M15.8,19.9c-5.8,0-10.7-3.1-12.8-7.4c-0.1,0.2-0.2,0.5-0.2,0.8v9c0,1.1,0.9,2,2,2h12.8c1.1,0,2-0.9,2-2v-2.8
		C18.4,19.7,17.1,19.9,15.8,19.9z"/>
</g>
<g>
	<g>
		<g>
			
				<rect x="-281.7" y="311.2" transform="matrix(0.7607 -0.6491 0.6491 0.7607 -270.9956 -105.0488)" class="st55" width="7.4" height="7.7"/>
			
				<rect x="-282" y="312" transform="matrix(0.7607 -0.6491 0.6491 0.7607 -271.1592 -104.7659)" class="st56" width="8.8" height="6.8"/>
			<g>
				<path class="st57" d="M-277.1,309.7l-6.3,5.4c-0.3,0.3-0.8,0.2-1.1-0.1l-2.4-2.8c-0.3-0.3-0.2-0.8,0.1-1.1l6.3-5.4
					c0.3-0.3,0.8-0.2,1.1,0.1l2.4,2.8C-276.7,308.9-276.8,309.4-277.1,309.7z"/>
				<g>
					<path class="st58" d="M-281.3,306.8l1.7,2c0.3,0.3,0.8,0.4,1.1,0.1c0.3-0.3,0.4-0.8,0.1-1.1l-1.7-2L-281.3,306.8z"/>
					<path class="st58" d="M-283.1,308.4l1.7,2c0.3,0.3,0.8,0.4,1.1,0.1c0.3-0.3,0.4-0.8,0.1-1.1l-1.7-2L-283.1,308.4z"/>
					<path class="st58" d="M-284.9,309.9l1.7,2c0.3,0.3,0.8,0.4,1.1,0.1c0.3-0.3,0.4-0.8,0.1-1.1l-1.7-2L-284.9,309.9z"/>
					<path class="st58" d="M-286.7,311.4l1.7,2c0.3,0.3,0.8,0.4,1.1,0.1c0.3-0.3,0.4-0.8,0.1-1.1l-1.7-2L-286.7,311.4z"/>
				</g>
			</g>
			<path class="st56" d="M-268.2,310.8l1.8-1.6c0.5-0.5,1.2-0.7,1.9-0.7h13.7h2.2c0.8,0,1.5-0.3,2.1-0.9l0.1-0.1
				c0.7-0.7,1.5-1,2.5-1h-1.4h-6.8h-13.5c-0.7,0-1.4,0.3-1.9,0.7l-5.9,5.1c0.6-0.5,1.4-0.8,2.2-0.8h1.1
				C-269.5,311.5-268.8,311.3-268.2,310.8z"/>
			<path class="st26" d="M-241.1,305.7h-2.8c-0.9,0-1.8,0.4-2.5,1l-1,1l-2,2c-0.7,0.7-1.5,1-2.5,1h-17.2h-2.2
				c-0.8,0-1.6,0.3-2.2,0.8c0,0-0.1,0.1-0.1,0.1l-4.8,4.2l-3.8,3.3l-0.4,0.4c-0.8,0.7-1.2,1.6-1.2,2.6v44.3c0,0.3,0,0.5,0.1,0.8
				c0.2,0.8,0.6,1.5,1.3,2c0.6,0.5,1.3,0.7,2.1,0.7h39.2c1.9,0,3.5-1.6,3.5-3.5v-57.2c0-0.5-0.1-1-0.3-1.5
				C-238.6,306.5-239.8,305.7-241.1,305.7z"/>
			<g>
				<path class="st59" d="M-276,319.9c-0.3-0.5-1-0.6-1.5-0.2c-0.5,0.3-0.6,1-0.2,1.5l13.1,18c0.3,0.5,1,0.6,1.5,0.2
					c0.5-0.3,0.6-1,0.2-1.5L-276,319.9z"/>
				<path class="st59" d="M-256.9,339.2l13.1-18c0.3-0.5,0.2-1.1-0.2-1.5c-0.5-0.3-1.1-0.2-1.5,0.2l-13.1,18
					c-0.3,0.5-0.2,1.1,0.2,1.5C-257.9,339.7-257.2,339.6-256.9,339.2z"/>
				<path class="st59" d="M-264.6,344.1l-13.1,18c-0.3,0.5-0.2,1.1,0.2,1.5c0.5,0.3,1.1,0.2,1.5-0.2l13.1-18
					c0.3-0.5,0.2-1.1-0.2-1.5C-263.6,343.5-264.3,343.6-264.6,344.1z"/>
				<path class="st59" d="M-256.9,344.1c-0.3-0.5-1-0.6-1.5-0.2c-0.5,0.3-0.6,1-0.2,1.5l13.1,18c0.3,0.5,1,0.6,1.5,0.2
					c0.5-0.3,0.6-1,0.2-1.5L-256.9,344.1z"/>
			</g>
		</g>
	</g>
	<g class="st20">
		<path class="st60" d="M-238.6,360.2c-19.7,0-36.6-16.3-44.7-40c-0.3,0.6-0.6,1.2-0.6,1.9v44.3c0,0.3,0,0.5,0.1,0.8
			c0.2,0.8,0.6,1.5,1.3,2c0.6,0.5,1.3,0.7,2.1,0.7h39.2c1.9,0,3.5-1.6,3.5-3.5v-6.2C-238,360.2-238.3,360.2-238.6,360.2z"/>
	</g>
</g>
<g>
	<g>
		<g>
			<path class="st61" d="M-142.9,358.3v-0.8v-38.4h-2.2c0.1,0.1,0.1,0.3,0.1,0.4c0,2-8.2,3.6-18.3,3.6c-10.1,0-18.3-1.6-18.3-3.6
				c0-0.1,0.1-0.3,0.1-0.4h-2.6v38.4v0.8c0,3.6,9.2,6.5,20.5,6.5c9.5,0,17.5-2,19.8-4.8C-143.2,359.4-143,358.9-142.9,358.3
				C-142.9,358.3-142.9,358.3-142.9,358.3z"/>
			<path class="st62" d="M-163.5,316.5c-9,0-14.9,1.5-17.1,2.6c2.2,1.1,8.1,2.6,17.1,2.6c9,0,14.9-1.5,17.1-2.6
				C-148.6,318-154.5,316.5-163.5,316.5z"/>
			<path class="st62" d="M-167.8,327.1v37.5c0.8,0.1,1.5,0.1,2.3,0.1v-37.5C-166.2,327.1-166.9,327.1-167.8,327.1z"/>
			<path class="st62" d="M-170.9,326.8v37.5c0.7,0.1,1.4,0.2,2.1,0.2V327C-169.4,327-170.1,326.9-170.9,326.8z"/>
			<path class="st62" d="M-173.9,326.5v37.4c0.6,0.1,1.2,0.2,1.9,0.3v-37.4C-172.6,326.6-173.3,326.6-173.9,326.5z"/>
			<path class="st62" d="M-177,325.9v37.2c0.5,0.1,1.1,0.3,1.7,0.4v-37.3C-175.9,326.2-176.4,326.1-177,325.9z"/>
			<path class="st62" d="M-180,325.2v36.9c0.5,0.2,0.9,0.4,1.5,0.6v-37.1C-179.1,325.4-179.5,325.3-180,325.2z"/>
			<path class="st62" d="M-181.8,324.5c-0.4-0.2-0.9-0.4-1.3-0.6v36.3c0.3,0.3,0.8,0.7,1.3,1V324.5z"/>
			<path class="st62" d="M-163.5,327.2c-0.3,0-0.7,0-1.3,0v37.6c0.4,0,0.8,0,1.3,0c0.4,0,0.8,0,1.3,0v-37.6
				C-162.7,327.2-163.2,327.2-163.5,327.2z"/>
			<path class="st62" d="M-161.5,327.1v37.5c0.8,0,1.5-0.1,2.3-0.1v-37.5C-160,327.1-160.8,327.1-161.5,327.1z"/>
			<path class="st62" d="M-158.2,327v37.5c0.7-0.1,1.4-0.1,2.1-0.2v-37.5C-156.8,326.9-157.5,327-158.2,327z"/>
			<path class="st62" d="M-154.9,326.7v37.4c0.6-0.1,1.3-0.2,1.9-0.3v-37.4C-153.7,326.6-154.3,326.6-154.9,326.7z"/>
			<path class="st62" d="M-151.7,326.3v37.3c0.6-0.1,1.1-0.3,1.7-0.4v-37.2C-150.5,326.1-151.1,326.2-151.7,326.3z"/>
			<path class="st62" d="M-148.4,325.6v37.1c0.5-0.2,1-0.4,1.5-0.6v-36.9C-147.4,325.3-147.9,325.4-148.4,325.6z"/>
			<path class="st62" d="M-145.1,361.2c0.5-0.3,0.9-0.6,1.3-1v-36.3c-0.4,0.2-0.8,0.4-1.3,0.6V361.2z"/>
			<path class="st18" d="M-180,325.2c0.5,0.1,1,0.3,1.5,0.4c0.5,0.1,1.1,0.3,1.6,0.4c0.6,0.1,1.1,0.2,1.7,0.3
				c0.5,0.1,0.9,0.1,1.4,0.2c0.6,0.1,1.3,0.2,1.9,0.2c0.4,0,0.8,0.1,1.2,0.1c0.7,0.1,1.4,0.1,2.1,0.2c0.3,0,0.7,0,1,0.1
				c0.9,0,1.6,0.1,2.3,0.1c0.3,0,0.5,0,0.8,0c0.5,0,0.9,0,1.3,0c0.3,0,0.7,0,1.3,0c0.2,0,0.5,0,0.8,0c0.7,0,1.5,0,2.3-0.1
				c0.3,0,0.6,0,1-0.1c0.7,0,1.4-0.1,2.1-0.2c0.4,0,0.8-0.1,1.2-0.1c0.6-0.1,1.2-0.1,1.9-0.2c0.5-0.1,0.9-0.1,1.4-0.2
				c0.6-0.1,1.1-0.2,1.7-0.3c0.5-0.1,1.1-0.2,1.6-0.4c0.5-0.1,1-0.3,1.5-0.4c0.6-0.2,1.2-0.4,1.8-0.6c0.4-0.2,0.9-0.4,1.3-0.6
				c2.2-1.2,3.7-2.7,3.7-4.8c0-7.7-19.4-8.1-23.3-8.1s-23.3,0.4-23.3,8.1c0,2.1,1.5,3.7,3.7,4.8c0.4,0.2,0.8,0.4,1.3,0.6
				C-181.3,324.7-180.7,325-180,325.2z M-163.5,316.5c9,0,14.9,1.5,17.1,2.6c-2.2,1.1-8.1,2.6-17.1,2.6c-9,0-14.9-1.5-17.1-2.6
				C-178.3,318-172.4,316.5-163.5,316.5z"/>
			<path class="st18" d="M-142.9,357.5v0.8v0c0,0.7-0.3,1.3-0.9,1.9c-0.3,0.3-0.8,0.7-1.3,1c-0.5,0.3-1.1,0.6-1.8,0.9
				c-0.5,0.2-0.9,0.4-1.5,0.6c-0.5,0.2-1,0.3-1.6,0.5c-0.5,0.1-1.1,0.3-1.7,0.4c-0.4,0.1-0.9,0.2-1.4,0.3c-0.6,0.1-1.2,0.2-1.9,0.3
				c-0.4,0.1-0.8,0.1-1.2,0.2c-0.7,0.1-1.4,0.2-2.1,0.2c-0.3,0-0.6,0.1-1,0.1c-0.8,0.1-1.5,0.1-2.3,0.1c-0.2,0-0.5,0-0.8,0
				c-0.4,0-0.8,0-1.3,0c-0.4,0-0.8,0-1.3,0c-0.3,0-0.5,0-0.8,0c-0.8,0-1.5-0.1-2.3-0.1c-0.3,0-0.6,0-1-0.1c-0.7-0.1-1.4-0.1-2.1-0.2
				c-0.4,0-0.8-0.1-1.2-0.2c-0.6-0.1-1.3-0.2-1.9-0.3c-0.5-0.1-0.9-0.2-1.4-0.3c-0.6-0.1-1.1-0.3-1.7-0.4c-0.6-0.2-1.1-0.3-1.6-0.5
				c-0.5-0.2-1-0.4-1.5-0.6c-0.7-0.3-1.3-0.6-1.8-0.9c-0.5-0.3-0.9-0.6-1.3-1c-0.6-0.6-0.9-1.3-0.9-1.9v0v-0.8
				c-1.7,1.1-2.7,2.5-2.7,4.3c0,7.7,19.4,8.1,23.3,8.1s23.3-0.4,23.3-8.1C-140.2,360-141.3,358.6-142.9,357.5z"/>
			<path class="st46" d="M-147.6,315.1c-3.5-1.7-6.8-2.3-6.9-2.6c-0.1-0.3,3.4-0.4,7.5,1.2c4.2,1.5,6.6,4.1,6.1,4.4
				C-141.4,318.6-144.1,316.7-147.6,315.1z"/>
		</g>
	</g>
	<path class="st28" d="M-142.9,357.5v0.8c0,0,0,0,0,0c0,0,0,0,0,0v-5.7c-3.3,1.3-6.8,2.1-10.4,2.1c-13.2,0-24.8-9.7-30.7-24v26.8
		c-1.7,1.1-2.7,2.5-2.7,4.3c0,7.7,19.4,8.1,23.3,8.1c3.9,0,23.3-0.4,23.3-8.1C-140.2,360-141.3,358.6-142.9,357.5z"/>
</g>
<g>
	<g>
		<path class="st31" d="M-351,368.7h-23.4c-4.9,0-8.9-4-8.9-8.9V339c0-4.9,4-8.9,8.9-8.9h2.5c0.9,0,1.8,0.1,2.6,0.4l20.9,6.4
			c3.7,1.1,6.3,4.6,6.3,8.5v14.4C-342.1,364.7-346.1,368.7-351,368.7z"/>
		
			<rect x="-383.9" y="322.5" transform="matrix(0.297 -0.9549 0.9549 0.297 -560.7048 -112.2654)" class="st63" width="54.6" height="4.4"/>
		<path class="st29" d="M-351,369.9h-23.4c-5.6,0-10.1-4.5-10.1-10.1V339c0-5.6,4.5-10.1,10.1-10.1h2.5c1,0,2,0.1,2.9,0.4l20.9,6.4
			c4.3,1.3,7.1,5.2,7.1,9.6v14.4C-340.9,365.4-345.4,369.9-351,369.9z M-374.4,331.4c-4.2,0-7.6,3.4-7.6,7.6v20.8
			c0,4.2,3.4,7.6,7.6,7.6h23.4c4.2,0,7.6-3.4,7.6-7.6v-14.4c0-3.4-2.2-6.3-5.4-7.3l-20.9-6.4c-0.7-0.2-1.5-0.3-2.2-0.3H-374.4z"/>
		<path class="st32" d="M-376.9,346l-0.4,2.2l1.1,0.6l1.5-1.6l1.1,0.2l1,2l1.3-0.2l0.3-2.2l1-0.5l1.9,1.1l0.9-0.9l-1.1-1.9l0.5-1
			l2.2-0.3l0.2-1.3l-2-1l-0.2-1.1l1.6-1.5l-0.6-1.1l-2.2,0.4l-0.8-0.8l0.4-2.2l-1.1-0.6l-1.5,1.6l-1.1-0.2l-1-2l-1.3,0.2l-0.3,2.2
			l-1,0.5l-1.9-1.1l-0.9,0.9l1.1,1.9l-0.5,1l-2.2,0.3l-0.2,1.3l2,1l0.2,1.1l-1.6,1.5l0.6,1.1l2.2-0.4L-376.9,346z M-375.3,339.4
			c1-1,2.4-1.1,3.6-0.4l0.5-0.5l1,1l-0.5,0.5c0.7,1.1,0.5,2.6-0.4,3.6c-1.1,1.1-3,1.1-4.2,0C-376.4,342.4-376.4,340.6-375.3,339.4z"
			/>
		<path class="st32" d="M-346.3,346.1l1.8-1.3l-0.4-1.2l-2.2,0.1l-0.6-0.9l0.7-2.1l-1-0.7l-1.8,1.4l-1-0.3l-0.6-2.1h-1.3l-0.6,2.1
			l-1,0.3l-1.8-1.4l-1,0.7l0.7,2.1l-0.6,0.9l-2.2-0.1l-0.4,1.2l1.8,1.3v1.1l-1.8,1.3l0.4,1.2l2.2-0.1l0.6,0.9l-0.7,2.1l1,0.7
			l1.8-1.4l1,0.3l0.6,2.1h1.3l0.6-2.1l1-0.3l1.8,1.4l1-0.7l-0.7-2.1l0.6-0.9l2.2,0.1l0.4-1.2l-1.8-1.3V346.1z M-352.1,349.6
			c-1.4,0-2.5-0.9-2.8-2.2h-0.7v-1.5h0.7c0.3-1.3,1.5-2.2,2.8-2.2c1.6,0,2.9,1.3,2.9,2.9C-349.2,348.3-350.5,349.6-352.1,349.6z"/>
		<path class="st32" d="M-357.6,356.4l2.2-0.8l-0.2-1.5l-2.3-0.2l-0.5-1.3l1.5-1.7l-0.8-1.2l-2.1,0.8l-1-0.9l0.6-2.2l-1.3-0.7
			l-1.5,1.7l-1.3-0.3l-0.5-2.2h-1.5l-0.5,2.2l-1.3,0.3l-1.5-1.7l-1.3,0.7l0.6,2.2l-1,0.9l-2.1-0.8l-0.8,1.2l1.5,1.7l-0.5,1.3
			l-2.3,0.2l-0.2,1.5l2.2,0.8l0.2,1.3l-1.9,1.3l0.5,1.4l2.3-0.3l0.8,1.1l-1.1,2l1.1,1l1.9-1.3l1.2,0.6l0,2.3l1.4,0.4l1-2.1h1.4
			l1,2.1l1.4-0.4l0-2.3l1.2-0.6l1.9,1.3l1.1-1l-1.1-2l0.8-1.1l2.3,0.3l0.5-1.4l-1.9-1.3L-357.6,356.4z M-365.6,359.7
			c-2,0-3.6-1.6-3.6-3.6c0-1.7,1.1-3.1,2.7-3.5v-0.9h1.8v0.9c1.5,0.4,2.7,1.8,2.7,3.5C-362,358.1-363.6,359.7-365.6,359.7z"/>
		<path class="st29" d="M-365.6,362.2c-3.4,0-6.1-2.7-6.1-6.1c0-3.4,2.7-6.1,6.1-6.1c3.4,0,6.1,2.7,6.1,6.1
			C-359.5,359.5-362.2,362.2-365.6,362.2z M-365.6,350.4c-3.2,0-5.7,2.6-5.7,5.7c0,3.2,2.6,5.7,5.7,5.7c3.2,0,5.7-2.6,5.7-5.7
			C-359.9,352.9-362.5,350.4-365.6,350.4z"/>
		<g>
			<g>
				<path class="st29" d="M-352.1,351.2c-1.2,0-2.4-0.5-3.2-1.3c-1.8-1.8-1.8-4.7,0-6.5c0.9-0.9,2-1.3,3.2-1.3
					c1.2,0,2.4,0.5,3.2,1.3c0.9,0.9,1.3,2,1.3,3.2c0,1.2-0.5,2.4-1.3,3.2C-349.7,350.7-350.9,351.2-352.1,351.2z M-352.1,342.3
					c-1.2,0-2.3,0.5-3.1,1.3c-1.7,1.7-1.7,4.4,0,6.1c0.8,0.8,1.9,1.3,3.1,1.3c1.2,0,2.3-0.5,3.1-1.3c0.8-0.8,1.3-1.9,1.3-3.1
					c0-1.2-0.5-2.3-1.3-3.1C-349.8,342.7-350.9,342.3-352.1,342.3z"/>
			</g>
			<g>
				<path class="st29" d="M-352.1,351.2c-1.2,0-2.4-0.5-3.2-1.3c-1.8-1.8-1.8-4.7,0-6.5c0.9-0.9,2-1.3,3.2-1.3
					c1.2,0,2.4,0.5,3.2,1.3c0.9,0.9,1.3,2,1.3,3.2c0,1.2-0.5,2.4-1.3,3.2C-349.7,350.7-350.9,351.2-352.1,351.2z M-352.1,342.3
					c-1.2,0-2.3,0.5-3.1,1.3c-1.7,1.7-1.7,4.4,0,6.1c0.8,0.8,1.9,1.3,3.1,1.3c1.2,0,2.3-0.5,3.1-1.3c0.8-0.8,1.3-1.9,1.3-3.1
					c0-1.2-0.5-2.3-1.3-3.1C-349.8,342.7-350.9,342.3-352.1,342.3z"/>
			</g>
		</g>
		<g>
			<g>
				<path class="st29" d="M-373.2,346.1c-1.2,0-2.4-0.5-3.2-1.3c-1.8-1.8-1.8-4.7,0-6.5c0.9-0.9,2-1.3,3.2-1.3
					c1.2,0,2.4,0.5,3.2,1.3c0.9,0.9,1.3,2,1.3,3.2c0,1.2-0.5,2.4-1.3,3.2C-370.8,345.6-372,346.1-373.2,346.1z M-373.2,337.2
					c-1.2,0-2.3,0.5-3.1,1.3c-1.7,1.7-1.7,4.4,0,6.1c0.8,0.8,1.9,1.3,3.1,1.3c1.2,0,2.3-0.5,3.1-1.3c0.8-0.8,1.3-1.9,1.3-3.1
					c0-1.2-0.5-2.3-1.3-3.1C-370.9,337.6-372,337.2-373.2,337.2z"/>
			</g>
			<g>
				<path class="st29" d="M-373.2,346.1c-1.2,0-2.4-0.5-3.2-1.3c-1.8-1.8-1.8-4.7,0-6.5c0.9-0.9,2-1.3,3.2-1.3
					c1.2,0,2.4,0.5,3.2,1.3c0.9,0.9,1.3,2,1.3,3.2c0,1.2-0.5,2.4-1.3,3.2C-370.8,345.6-372,346.1-373.2,346.1z M-373.2,337.2
					c-1.2,0-2.3,0.5-3.1,1.3c-1.7,1.7-1.7,4.4,0,6.1c0.8,0.8,1.9,1.3,3.1,1.3c1.2,0,2.3-0.5,3.1-1.3c0.8-0.8,1.3-1.9,1.3-3.1
					c0-1.2-0.5-2.3-1.3-3.1C-370.9,337.6-372,337.2-373.2,337.2z"/>
			</g>
		</g>
		<g>
			<g>
				<path class="st29" d="M-350.3,321.7c-0.2,0.5-0.8,0.8-1.4,0.6l-7.7-2.4c-0.6-0.2-0.9-0.8-0.8-1.3l0,0c0.2-0.5,0.8-0.8,1.4-0.6
					l7.7,2.4C-350.5,320.6-350.1,321.2-350.3,321.7L-350.3,321.7z"/>
				<path class="st64" d="M-351,321.8l-7.7-2.4c-0.6-0.2-0.9-0.8-0.8-1.3c0,0,0,0,0,0c-0.3,0.1-0.6,0.3-0.7,0.6
					c-0.2,0.5,0.2,1.1,0.8,1.3l7.7,2.4c0.6,0.2,1.2-0.1,1.4-0.6C-350.5,321.8-350.8,321.8-351,321.8z"/>
			</g>
			<g>
				<path class="st29" d="M-350.1,323.8c-0.2,0.6-0.9,0.9-1.6,0.7l-9-2.8c-0.7-0.2-1.1-0.9-0.9-1.4l0,0c0.2-0.6,0.9-0.9,1.6-0.7
					l9,2.8C-350.3,322.6-349.9,323.3-350.1,323.8L-350.1,323.8z"/>
				<path class="st64" d="M-350.9,323.9l-9-2.8c-0.7-0.2-1.1-0.9-0.9-1.4c0,0,0,0,0-0.1c-0.4,0.1-0.7,0.3-0.8,0.7
					c-0.2,0.6,0.2,1.2,0.9,1.4l9,2.8c0.7,0.2,1.4-0.1,1.6-0.6C-350.3,324-350.6,324-350.9,323.9z"/>
			</g>
			<g>
				<path class="st29" d="M-349.9,326.1c-0.2,0.6-1,0.9-1.8,0.7l-10.2-3.2c-0.8-0.2-1.3-0.9-1.1-1.6l0,0c0.2-0.6,1-0.9,1.8-0.7
					l10.2,3.2C-350.2,324.8-349.7,325.5-349.9,326.1L-349.9,326.1z"/>
				<path class="st64" d="M-350.8,326.1L-361,323c-0.8-0.2-1.3-0.9-1.1-1.6c0,0,0,0,0-0.1c-0.4,0.1-0.7,0.3-0.9,0.7
					c-0.2,0.6,0.3,1.3,1.1,1.6l10.2,3.2c0.8,0.2,1.5,0,1.8-0.6C-350.2,326.2-350.5,326.2-350.8,326.1z"/>
			</g>
			<g>
				<path class="st29" d="M-349.8,328.6c-0.2,0.7-1.1,1-2,0.7l-11.5-3.6c-0.9-0.3-1.4-1-1.2-1.7l0,0c0.2-0.7,1.1-1,2-0.7l11.5,3.6
					C-350.1,327.2-349.6,327.9-349.8,328.6L-349.8,328.6z"/>
				<path class="st64" d="M-350.8,328.6l-11.5-3.6c-0.9-0.3-1.4-1-1.2-1.7c0,0,0,0,0-0.1c-0.5,0.1-0.8,0.4-1,0.8
					c-0.2,0.7,0.3,1.4,1.2,1.7l11.5,3.6c0.9,0.3,1.7,0,2-0.6C-350.1,328.7-350.5,328.7-350.8,328.6z"/>
			</g>
			<g>
				<path class="st29" d="M-349.7,331.2c-0.2,0.7-1.2,1-2.2,0.7l-12.7-4c-1-0.3-1.6-1.1-1.4-1.8l0,0c0.2-0.7,1.2-1,2.2-0.7l12.7,4
					C-350.1,329.6-349.5,330.5-349.7,331.2L-349.7,331.2z"/>
				<path class="st64" d="M-350.9,331.2l-12.7-4c-1-0.3-1.6-1.1-1.4-1.8c0,0,0,0,0-0.1c-0.5,0.1-0.9,0.4-1,0.8
					c-0.2,0.7,0.4,1.5,1.4,1.8l12.7,4c1,0.3,1.9,0,2.2-0.7C-350.1,331.3-350.5,331.3-350.9,331.2z"/>
			</g>
			<g>
				<path class="st29" d="M-349.7,333.9c-0.2,0.8-1.3,1.1-2.4,0.8l-14-4.3c-1.1-0.3-1.8-1.2-1.5-2l0,0c0.2-0.8,1.3-1.1,2.4-0.8
					l14,4.3C-350.1,332.3-349.4,333.2-349.7,333.9L-349.7,333.9z"/>
				<path class="st64" d="M-350.9,333.9l-14-4.3c-1.1-0.3-1.8-1.2-1.5-2c0,0,0,0,0-0.1c-0.6,0.1-1,0.4-1.1,0.8
					c-0.2,0.8,0.5,1.6,1.5,2l14,4.3c1,0.3,2.1,0,2.3-0.7C-350.1,334.1-350.5,334-350.9,333.9z"/>
			</g>
		</g>
		<path class="st65" d="M-343.7,300.5c0.4-1.1,0.5-2.5-0.1-4.1c-0.1-0.3-0.2-0.5-0.4-0.8c-3.1-3.6-8-2.2-9.2,1.5
			c0,0.1,0,0.1-0.1,0.2c-0.3,1.3,0.4,2.6,1.7,2.9l5.1,1.6C-345.5,302.3-344.1,301.7-343.7,300.5z"/>
		<path class="st46" d="M-343.9,297.4c0.2,1.2-0.2,2.3-0.9,2.4c-0.7,0.1-0.2-1-0.4-2.2c-0.2-1.2-1.1-2.1-0.4-2.2
			C-344.9,295.3-344.2,296.1-343.9,297.4z"/>
	</g>
	<path class="st28" d="M-345.8,362.8c-16.3,0-30.1-13.5-34.5-31.9c-2.5,1.8-4.2,4.8-4.2,8.1v20.8c0,5.6,4.5,10.1,10.1,10.1h23.4
		c4.6,0,8.5-3.2,9.7-7.4C-342.8,362.7-344.3,362.8-345.8,362.8z"/>
</g>
<g>
	<g>
		<g>
			<rect x="-391.8" y="426.8" class="st34" width="63.1" height="41.8"/>
			<g>
				<g>
					<rect x="-389.3" y="442.7" class="st66" width="7.5" height="23.6"/>
					<rect x="-379.2" y="442.7" class="st66" width="7.5" height="23.6"/>
					<rect x="-369" y="442.7" class="st66" width="7.5" height="23.6"/>
					<rect x="-358.9" y="442.7" class="st66" width="7.5" height="23.6"/>
					<rect x="-348.8" y="442.7" class="st66" width="7.5" height="23.6"/>
					<rect x="-338.6" y="442.7" class="st66" width="7.5" height="23.6"/>
				</g>
				<g>
					<rect x="-389.3" y="442.7" class="st66" width="7.5" height="23.6"/>
					<rect x="-379.2" y="442.7" class="st66" width="7.5" height="23.6"/>
					<rect x="-369" y="442.7" class="st66" width="7.5" height="23.6"/>
					<rect x="-358.9" y="442.7" class="st66" width="7.5" height="23.6"/>
					<rect x="-348.8" y="442.7" class="st66" width="7.5" height="23.6"/>
					<rect x="-338.6" y="442.7" class="st66" width="7.5" height="23.6"/>
				</g>
			</g>
			<polygon class="st66" points="-331.2,431.5 -331.2,426.3 -338.6,426.3 -338.6,431.5 -341.3,431.5 -341.3,426.3 -348.8,426.3 
				-348.8,431.5 -351.5,431.5 -351.5,426.3 -358.9,426.3 -358.9,431.5 -361.6,431.5 -361.6,426.3 -369,426.3 -369,431.5 
				-371.7,431.5 -371.7,426.3 -379.2,426.3 -379.2,431.5 -381.9,431.5 -381.9,426.3 -389.3,426.3 -389.3,431.5 -393.3,431.5 
				-393.3,441 -327.3,441 -327.3,431.5 			"/>
			<g>
				<g>
					<path class="st17" d="M-384.9,426.3h-1.3c-0.8,0-1.4-0.7-1.4-1.5v-3.2c0-0.8,0.6-1.5,1.4-1.5h1.3c0.8,0,1.4,0.7,1.4,1.5v3.2
						C-383.5,425.6-384.1,426.3-384.9,426.3z"/>
				</g>
				<rect x="-388.6" y="424.7" class="st19" width="6.1" height="1.5"/>
			</g>
			<g>
				<g>
					<path class="st17" d="M-334.3,426.3h-1.3c-0.8,0-1.4-0.7-1.4-1.5v-3.2c0-0.8,0.6-1.5,1.4-1.5h1.3c0.8,0,1.4,0.7,1.4,1.5v3.2
						C-332.8,425.6-333.5,426.3-334.3,426.3z"/>
				</g>
				<rect x="-338" y="424.7" class="st19" width="6.1" height="1.5"/>
			</g>
			<path class="st40" d="M-333.2,421.6c0.2,1.1,0.1,2.3-0.2,2.4c-0.3,0.1-0.3-0.9-0.5-2c-0.2-1.1-1-1.5-0.6-1.6
				S-333.4,420.5-333.2,421.6z"/>
			<path class="st40" d="M-383.8,421.6c0.2,1.1,0.1,2.3-0.2,2.4c-0.3,0.1-0.3-0.9-0.5-2c-0.2-1.1-1-1.5-0.6-1.6
				C-384.8,420.3-384,420.5-383.8,421.6z"/>
			<polygon class="st40" points="-382.6,434.5 -385,434.5 -385,432 -386.5,432 -386.5,434.5 -388.9,434.5 -388.9,436.1 
				-386.5,436.1 -386.5,438.5 -385,438.5 -385,436.1 -382.6,436.1 			"/>
			<rect x="-338.1" y="434.5" class="st40" width="6.3" height="1.6"/>
		</g>
	</g>
	<path class="st28" d="M-391.8,431.5h-1.5v9.5h1.5v27.5h63.1v-6.5C-361.9,460.9-388.6,448-391.8,431.5z"/>
</g>
<g>
	<g>
		<g>
			<g>
				<path class="st22" d="M-266.4,427.5v4.8h0.8v12.5c0,0.6,0.4,1.1,1.1,1.3v0.5c0,0.3,0.4,0.6,1,0.7v1c-0.5,0.3-0.8,0.7-0.8,1.2
					c0,0.5,0.3,0.9,0.8,1.2v0.8c-0.9,0.2-1.5,0.8-1.5,1.5c0,0.7,0.6,1.3,1.5,1.5v2.2c-0.9,0.2-1.5,0.8-1.5,1.5
					c0,0.7,0.6,1.3,1.5,1.5v0.9c0,0.9,0.4,1.7,0.9,1.9l0.1,2.2c0,0.6,0.7,2.7,1.2,3.9h1.7c0.5-1.2,1.2-3.2,1.2-3.9l0.1-2.2
					c0,0,0,0,0,0h0v-30.3h3h0.8v-4.8H-266.4z"/>
				<path class="st23" d="M-257.5,460.6v-0.9c0.9-0.2,1.5-0.8,1.5-1.5c0-0.7-0.6-1.3-1.5-1.5v-2.2c0.9-0.2,1.5-0.8,1.5-1.5
					c0-0.7-0.6-1.3-1.5-1.5v-0.8c0.5-0.3,0.8-0.7,0.8-1.2c0-0.5-0.3-0.9-0.8-1.2v-1c0.6-0.1,1-0.4,1-0.7v-0.5
					c0.6-0.3,1.1-0.7,1.1-1.3v-12.5h-3v30.3h0C-257.8,462.3-257.5,461.5-257.5,460.6z"/>
			</g>
			<path class="st23" d="M-260.5,466.6c-0.3-0.1-0.6-0.6-0.6-1.1v-32.8c0-0.6,0.2-1,0.6-1.1c0.3,0.1,0.6,0.6,0.6,1.1v32.8
				C-259.9,466.1-260.2,466.5-260.5,466.6z"/>
			<path class="st16" d="M-244.8,408.9c-0.2-0.3-0.4-0.6-0.6-0.9c-0.1-0.2-0.3-0.4-0.4-0.6c0,0,0,0,0-0.1c-3.5-4.6-9.6-5.1-14.7-5.4
				c-5.1,0.2-11.2,0.8-14.7,5.4c0,0,0,0,0,0.1c-0.1,0.2-0.3,0.4-0.4,0.6c-0.2,0.3-0.4,0.6-0.6,0.9c-3.3,6,3.2,21.5,15.7,21.6
				C-248,430.3-241.5,414.8-244.8,408.9z M-260,409.2c-0.2,0-0.3,0-0.5-0.1c-0.2,0-0.3,0-0.5,0.1c-3.6-0.4-6.2-1.3-6.2-2.5
				c0-1.2,2.6-2.1,6.2-2.5c0.2,0,0.3,0,0.5,0.1c0.2,0,0.3,0,0.5-0.1c3.6,0.4,6.2,1.3,6.2,2.5C-253.8,407.9-256.4,408.9-260,409.2z"
				/>
			<path class="st41" d="M-260.5,423.6c-3.4,0-6.8-0.3-10.2-1c-2-0.5-3.6-2.8-3.6-5l0,0c0-2.2,1.6-4.5,3.6-5c3.4-0.7,6.8-1,10.2-1
				c3.4,0,6.8,0.3,10.2,1c2,0.5,3.6,2.8,3.6,5l0,0c0,2.2-1.6,4.5-3.6,5C-253.7,423.3-257.1,423.6-260.5,423.6z"/>
		</g>
	</g>
	<path class="st28" d="M-256,453.1c0-0.7-0.6-1.3-1.5-1.5v-0.8c0.5-0.3,0.8-0.7,0.8-1.2c0-0.5-0.3-0.9-0.8-1.2v-1
		c0.6-0.1,1-0.4,1-0.7v-0.5c0,0,0,0,0,0c-6.7-9.7-11.2-25.4-11.3-43.3c-2.9,0.7-5.6,2-7.4,4.5c0,0,0,0,0,0.1
		c-0.1,0.2-0.3,0.4-0.4,0.6c-0.2,0.3-0.4,0.6-0.6,0.9c-2.7,4.9,1.3,16.4,9.8,20.2v3.1h0.8v12.5c0,0.6,0.4,1.1,1.1,1.3v0.5
		c0,0.3,0.4,0.6,1,0.7v1c-0.5,0.3-0.8,0.7-0.8,1.2c0,0.5,0.3,0.9,0.8,1.2v0.8c-0.9,0.2-1.5,0.8-1.5,1.5c0,0.7,0.6,1.3,1.5,1.5v2.2
		c-0.9,0.2-1.5,0.8-1.5,1.5c0,0.7,0.6,1.3,1.5,1.5v0.9c0,0.9,0.4,1.7,0.9,1.9l0.1,2.2c0,0.6,0.7,2.7,1.2,3.9h1.7
		c0.5-1.2,1.2-3.2,1.2-3.9l0.1-2.2c0,0,0,0,0,0c0.5-0.2,0.9-1,0.9-1.9v-0.9c0.9-0.2,1.5-0.8,1.5-1.5c0-0.7-0.6-1.3-1.5-1.5v-2.2
		C-256.6,454.3-256,453.8-256,453.1z"/>
</g>
<g>
	<g>
		<g>
			<path class="st19" d="M-170.4,459c0.3-3.8,3.4-6.8,7.3-6.8s7,3,7.3,6.8h0.4h0.5c-0.3-4.3-3.8-7.7-8.2-7.7c-4.4,0-8,3.4-8.2,7.7
				h0.5H-170.4z"/>
			<path class="st19" d="M-155.8,460.1c-0.3,3.8-3.5,6.8-7.3,6.8c-3.9,0-7-3-7.3-6.8h-0.4h-0.5c0.3,4.3,3.9,7.7,8.2,7.7
				c4.4,0,7.9-3.4,8.2-7.7h-0.5H-155.8z"/>
			<path class="st23" d="M-163.1,451.8c4.1,0,7.5,3.2,7.7,7.2h2.5v-3.7c0-2.1-1.7-3.8-3.9-3.8c-1.4,0-2.5-1.1-2.5-2.4l-0.6-23.1
				c0-0.9-0.8-1.6-1.7-1.6h-3.1c-0.9,0-1.6,0.7-1.7,1.6l-0.6,23.1c0,1.4-1.1,2.4-2.6,2.4c-2.1,0-3.8,1.7-3.8,3.8v3.7h2.5
				C-170.5,455-167.2,451.8-163.1,451.8z"/>
			<path class="st23" d="M-163.1,467.3c-4.1,0-7.4-3.2-7.7-7.2h-2.5v5.3c0,2.1,1.7,3.8,3.8,3.8h12.8c2.1,0,3.8-1.7,3.8-3.8v-5.3
				h-2.5C-155.6,464.1-159,467.3-163.1,467.3z"/>
			<path class="st22" d="M-152.9,459h-2h-0.5h-0.4c-0.3-3.8-3.4-6.8-7.3-6.8s-7,3-7.3,6.8h-0.4h-0.5h-2h-0.4v1.1h0.4h2h0.5h0.4
				c0.3,3.8,3.5,6.8,7.3,6.8c3.9,0,7-3,7.3-6.8h0.4h0.5h2h0.4V459H-152.9z M-163.1,465.5c-3.3,0-5.9-2.7-5.9-5.9
				c0-3.3,2.7-5.9,5.9-5.9c3.3,0,5.9,2.7,5.9,5.9C-157.1,462.8-159.8,465.5-163.1,465.5z"/>
			<g>
				<polygon class="st18" points="-148.1,403.8 -148.1,401.4 -178.1,401.4 -178.1,403.8 -148.7,403.8 				"/>
				<polygon class="st18" points="-148.1,406.8 -148.1,406.8 -148.1,405.8 -148.1,405.8 -148.1,405.8 -178.1,405.8 -178.1,406.8 
					-148.1,406.8 				"/>
				<path class="st18" d="M-148.1,408.7L-148.1,408.7l-30,0v22.6h2.1c1.5-2.9,6.7-5,12.9-5c6.2,0,11.4,2.1,12.9,5h2.1L-148.1,408.7
					L-148.1,408.7z M-151.2,421c0,0.9-0.9,1.8-1.9,2c-6.5,1.2-13.3,1.2-19.8,0c-1.1-0.2-1.9-1.1-1.9-2v-7.7c0-0.9,0.9-1.8,1.9-2
					c6.5-1.2,13.3-1.2,19.8,0c1.1,0.2,1.9,1.1,1.9,2V421z"/>
				<path class="st17" d="M-153.1,411.4c-6.5-1.2-13.3-1.2-19.8,0c-1.1,0.2-1.9,1.1-1.9,2c0,2.6,0,5.1,0,7.7c0,0.9,0.9,1.8,1.9,2
					c6.5,1.2,13.3,1.2,19.8,0c1.1-0.2,1.9-1.1,1.9-2c0-2.6,0-5.1,0-7.7C-151.2,412.5-152.1,411.6-153.1,411.4z M-163.1,421.7
					c-2.5,0-4.5-2-4.5-4.5c0-2.5,2-4.5,4.5-4.5c2.5,0,4.5,2,4.5,4.5C-158.6,419.7-160.6,421.7-163.1,421.7z"/>
				<path class="st19" d="M-163.1,412.8c-2.5,0-4.5,2-4.5,4.5c0,2.5,2,4.5,4.5,4.5c2.5,0,4.5-2,4.5-4.5
					C-158.6,414.7-160.6,412.8-163.1,412.8z M-163.1,420.1c-1.6,0-2.9-1.3-2.9-2.9c0-1.6,1.3-2.9,2.9-2.9c1.6,0,2.9,1.3,2.9,2.9
					C-160.1,418.8-161.4,420.1-163.1,420.1z"/>
			</g>
			<polygon class="st19" points="-148.7,405.7 -148.7,403.8 -177.5,403.8 -177.5,405.8 -148.7,405.8 -148.7,405.7 			"/>
			<rect x="-177.5" y="406.8" class="st19" width="28.8" height="2"/>
			<path class="st18" d="M-160.9,448.3c0,1-1,1.9-2.1,1.9l0,0c-1.2,0-2.1-0.8-2.1-1.9v-19.1c0-1,1-1.9,2.1-1.9l0,0
				c1.2,0,2.1,0.8,2.1,1.9V448.3z"/>
		</g>
		<path class="st28" d="M-174.3,401.4h-3.8v2.4h0.6v2h-0.6v1h0.6v2h-0.6v22.6h2.1c0.9-1.8,3.2-3.2,6.3-4.1
			C-172.3,419.6-174,410.8-174.3,401.4z"/>
	</g>
	<path class="st28" d="M-152.9,459v-3.7c0-2.1-1.7-3.8-3.9-3.8c-1.4,0-2.5-1.1-2.5-2.4l-0.1-3.5c-2.7-2.9-5.1-6.6-7.2-10.8
		l-0.4,14.3c0,1.4-1.1,2.4-2.6,2.4c-2.1,0-3.8,1.7-3.8,3.8v3.7h-0.4v1.1h0.4v5.3c0,2.1,1.7,3.8,3.8,3.8h12.8c2.1,0,3.8-1.7,3.8-3.8
		v-5.3h0.4V459H-152.9z M-163.1,465.4c-3.2,0-5.9-2.6-5.9-5.9c0-3.2,2.6-5.9,5.9-5.9c3.2,0,5.9,2.6,5.9,5.9
		C-157.2,462.8-159.8,465.4-163.1,465.4z"/>
	<polygon class="st46" points="-148.7,430.7 -150.3,428.9 -150.3,409.1 -148.7,409.1 	"/>
	<rect x="-150.3" y="405.9" class="st46" width="1.7" height="0.7"/>
	<rect x="-150.3" y="401.6" class="st46" width="1.7" height="1.8"/>
</g>
<g>
	<g>
		<g>
			<g>
				<path class="st16" d="M-75.1,406.9c-0.8,0-0.8-0.4-1.7-0.4c-0.8,0-0.8,0.4-1.7,0.4c-0.8,0-0.8-0.4-1.7-0.4
					c-0.8,0-0.8,0.4-1.7,0.4c-0.8,0-0.8-0.4-1.7-0.4c-0.8,0-0.8,0.4-1.7,0.4c-0.8,0-0.8-0.4-1.7-0.4c-0.8,0-0.8,0.4-1.7,0.4
					c-0.5,0-1.3-0.4-1.3-1.1v-2.4c0-0.7,0.7-1.2,1.4-1.2h13.2c0.8,0,1.4,0.6,1.4,1.2v2.4c0,0.3-0.2,0.6-0.4,0.9c0,0,0,0,0,0
					C-74.5,406.8-74.7,406.9-75.1,406.9z"/>
				<path class="st16" d="M-55.9,406.9c-0.8,0-0.8-0.4-1.7-0.4c-0.8,0-0.8,0.4-1.7,0.4c-0.8,0-0.8-0.4-1.7-0.4
					c-0.8,0-0.8,0.4-1.7,0.4c-0.8,0-0.8-0.4-1.7-0.4c-0.8,0-0.8,0.4-1.7,0.4c-0.8,0-0.8-0.4-1.7-0.4c-0.8,0-0.8,0.4-1.7,0.4
					c-0.5,0-1.3-0.4-1.3-1.1v-2.4c0-0.7,0.7-1.2,1.4-1.2h13.2c0.8,0,1.4,0.6,1.4,1.2v2.4c0,0.3-0.2,0.6-0.4,0.9c0,0,0,0,0,0
					C-55.2,406.8-55.5,406.9-55.9,406.9z"/>
			</g>
			<rect x="-73.5" y="408" class="st17" width="2.5" height="11.1"/>
			<rect x="-81.1" y="423.2" class="st26" width="17.5" height="42.4"/>
			<rect x="-82.9" y="420.3" class="st56" width="21.2" height="3.5"/>
			<rect x="-79.3" y="418" class="st26" width="13.8" height="2.3"/>
			<rect x="-86" y="465.1" class="st56" width="27.4" height="3.5"/>
			<path class="st56" d="M-69.5,408H-75c-1,0-1.8-0.8-1.8-1.8v-3.4c0-1,0.8-1.8,1.8-1.8h5.5c1,0,1.8,0.8,1.8,1.8v3.4
				C-67.7,407.2-68.5,408-69.5,408z"/>
			<path class="st16" d="M-62.4,462.9c-0.1,0-0.1,0-0.2,0l0-2.5c2,0,3.4-0.4,4.2-1.3c0.7-0.9,1-2.3,0.6-4.4
				c-0.1-0.4-0.2-0.9-0.4-1.5c-0.8-3.1-2.4-8.8,2.3-14c2.8-3,7.3-3.4,10.8-1.2c3.2,2.1,6.1,6.9,3.5,13.5c-0.8,2.5-1.3,6,1.5,7.5
				c2.6,1.4,6.4,0.5,7.5-0.9l2,1.6c-1.9,2.3-7.1,3.5-10.7,1.5c-1.9-1.1-4.8-3.8-2.6-10.5c2.1-5.3,0-8.9-2.4-10.5
				c-2.1-1.4-5.3-1.7-7.6,0.8c-3.8,4.2-2.5,8.6-1.7,11.6c0.2,0.7,0.3,1.2,0.4,1.7c0.5,2.8,0.1,5-1.2,6.5
				C-57.7,462.2-59.7,462.9-62.4,462.9z"/>
			<rect x="-63.6" y="459.2" class="st17" width="1" height="4.9"/>
			<path class="st17" d="M-31.6,460.5l-1.4-2c-0.2-0.3-0.1-0.6,0.1-0.8l4.7-3.2c0.3-0.2,0.6-0.1,0.8,0.1l1.4,2
				c0.2,0.3,0.1,0.6-0.1,0.8l-4.7,3.2C-31.1,460.9-31.5,460.8-31.6,460.5z"/>
		</g>
		<g class="st20">
			<path class="st24" d="M-83.5,406.4c0.8,0,0.8,0.4,1.7,0.4c0.8,0,0.8-0.4,1.6-0.4c0-1.4,0.1-2.9,0.2-4.3h-8.5
				c-0.8,0-1.4,0.6-1.4,1.2v2.4c0,0.7,0.8,1.1,1.3,1.1c0.8,0,0.8-0.4,1.7-0.4c0.8,0,0.8,0.4,1.7,0.4
				C-84.3,406.9-84.3,406.4-83.5,406.4z"/>
			<path class="st24" d="M-63.6,464.1h1v-1.2c0.1,0,0.1,0,0.2,0c2.2,0,4-0.5,5.2-1.5c-0.6-0.6-1.3-1.2-1.9-1.8
				c-0.8,0.5-2,0.7-3.5,0.7l0,1.2v-2.4h-1v-4.4c-4.9-6.1-9.2-13.6-12.2-22.1c-1.6-4.5-2.7-8.9-3.4-13.2v0.9h-3.7v3.5h1.8v41.4H-86
				v3.5h27.4v-3.5h-4.9V464.1z"/>
		</g>
	</g>
	<polygon class="st46" points="-64.5,451.6 -66.1,424.6 -64.5,424.6 	"/>
</g>
</svg>
