<?xml version="1.0" encoding="utf-8"?>
<!-- Generator: Adobe Illustrator 26.0.2, SVG Export Plug-In . SVG Version: 6.00 Build 0)  -->
<svg version="1.1" id="Layer_1" xmlns="http://www.w3.org/2000/svg" xmlns:xlink="http://www.w3.org/1999/xlink" x="0px" y="0px"
	 viewBox="0 0 104.6 105.5" style="enable-background:new 0 0 104.6 105.5;" xml:space="preserve">
<style type="text/css">
	.st0{fill:#5C718E;}
	.st1{fill:#24B1DF;}
	.st2{fill:#E52501;}
	.st3{fill:#FF5105;}
	.st4{fill:#8795A0;}
	.st5{fill:#DAE3EA;}
	.st6{fill:#FF9813;}
	.st7{fill:#FFDF21;}
	.st8{fill:#EBEFF0;}
	.st9{fill:#C3D0D8;}
	.st10{fill:#6F8499;}
	.st11{fill:#24AEF7;}
	.st12{fill:#008EE1;}
	.st13{fill:#9CA9B9;}
	.st14{fill:#4A5460;}
	.st15{fill:#555E6D;}
	.st16{fill:#C3CCD5;}
	.st17{fill:#8A9AAA;}
	.st18{fill:#425C73;}
	.st19{fill:#446783;}
	.st20{fill:#86BAB0;}
	.st21{fill:#424B59;}
	.st22{fill:#97A7B4;}
	.st23{fill:#A0CFC7;}
	.st24{fill:#B6DDD5;}
	.st25{fill:#BFC9D2;}
	.st26{fill:#B0BBC7;}
	.st27{fill:#FFFFFF;}
	.st28{fill:#0079B5;}
	.st29{fill:#2F4556;}
</style>
<g>
	<rect x="311.8" y="-129.9" class="st0" width="85.6" height="60.6"/>
	<g>
		<g>
			<rect x="323.8" y="-137.1" class="st1" width="2.3" height="3.2"/>
			<rect x="383.1" y="-137.1" class="st1" width="2.3" height="3.2"/>
		</g>
		<polygon class="st2" points="387.4,-137.1 387.4,-134.7 381.2,-134.7 381.2,-137.1 328,-137.1 328,-134.7 321.8,-134.7 
			321.8,-137.1 314.2,-137.1 314.2,-132.8 395,-132.8 395,-137.1 		"/>
		<rect x="309.4" y="-133.4" class="st3" width="90.4" height="4.6"/>
		<g>
			<path class="st4" d="M398.5-125.2v4.5c1.2,0,2.3-1,2.3-2.3C400.7-124.2,399.7-125.2,398.5-125.2z"/>
			<path class="st4" d="M308.5-122.9c0,1.2,1,2.3,2.3,2.3v-4.5C309.5-125.2,308.5-124.2,308.5-122.9z"/>
		</g>
		<path class="st5" d="M397.6-71.7c0,1.1-0.9,1.9-1.9,1.9c-1.1,0-1.9-0.9-1.9-1.9h-31.3c0,1.1-0.9,1.9-1.9,1.9
			c-1.1,0-1.9-0.9-1.9-1.9h-8c0,1.1-0.9,1.9-1.9,1.9c-1.1,0-1.9-0.9-1.9-1.9h-31.3c0,1.1-0.9,1.9-1.9,1.9c-1.1,0-1.9-0.9-1.9-1.9
			h-2.2v4.6h90.4v-4.6H397.6z"/>
		<rect x="311.1" y="-98.6" class="st4" width="87" height="25.7"/>
		<rect x="311.1" y="-127.6" class="st5" width="87" height="27.3"/>
		<g>
			<path class="st6" d="M326.6-114.2H322v-2.8h-2.8v-4.6h2.8v-2.8h4.6v2.8h2.8v4.6h-2.8V-114.2z M323-115.2h2.6v-2.8h2.8v-2.6h-2.8
				v-2.8H323v2.8h-2.8v2.6h2.8V-115.2z"/>
		</g>
		<g>
			<path class="st6" d="M390-117h-10.2v-4.6H390V-117z M380.8-118h8.2v-2.6h-8.2V-118z"/>
		</g>
		<polygon class="st7" points="328.9,-117.5 326.1,-117.5 326.1,-114.7 322.5,-114.7 322.5,-117.5 319.7,-117.5 319.7,-121.1 
			322.5,-121.1 322.5,-124 326.1,-124 326.1,-121.1 328.9,-121.1 		"/>
		<rect x="380.3" y="-121.1" class="st7" width="9.2" height="3.6"/>
	</g>
	<rect x="310.7" y="-125.2" class="st0" width="0.4" height="4.5"/>
	<rect x="398.1" y="-125.2" class="st0" width="0.4" height="4.5"/>
</g>
<g>
	<path class="st5" d="M206.5-144.2c-24.3,0-43.9,19.7-43.9,43.9c0,24.3,19.7,43.9,43.9,43.9c24.3,0,43.9-19.7,43.9-43.9
		C250.4-124.5,230.8-144.2,206.5-144.2z M206.5-91.9c-4.5,0-8.1-3.6-8.1-8.1c0-4.5,3.6-8.1,8.1-8.1c4.5,0,8.1,3.6,8.1,8.1
		C214.6-95.5,211-91.9,206.5-91.9z"/>
	<g>
		<g>
			<path class="st8" d="M236-121.9c-0.4,0-0.9-0.2-1.2-0.6c-2.1-2.6-4.5-4.9-7.1-6.9c-0.7-0.5-0.8-1.4-0.3-2.1
				c0.5-0.7,1.4-0.8,2.1-0.3c2.9,2.1,5.5,4.6,7.7,7.4c0.5,0.7,0.4,1.6-0.3,2.1C236.6-122,236.3-121.9,236-121.9z"/>
		</g>
	</g>
	<g>
		<g>
			<path class="st8" d="M243.8-94.9c-0.1,0-0.1,0-0.2,0c-0.8-0.1-1.4-0.8-1.3-1.6c0.1-1.2,0.2-2.5,0.2-3.7c0-2-0.2-4.1-0.5-6.2
				c-0.1-0.8,0.4-1.6,1.2-1.7c0.8-0.1,1.6,0.4,1.7,1.2c0.4,2.2,0.6,4.5,0.6,6.7c0,1.3-0.1,2.7-0.2,4
				C245.2-95.5,244.6-94.9,243.8-94.9z"/>
		</g>
	</g>
	<g>
		<g>
			<path class="st8" d="M183.3-69.2c-0.3,0-0.7-0.1-0.9-0.3c-2.8-2.2-5.3-4.8-7.4-7.7c-0.5-0.7-0.3-1.6,0.3-2.1
				c0.7-0.5,1.6-0.3,2.1,0.3c1.9,2.7,4.3,5.1,6.9,7.1c0.7,0.5,0.8,1.5,0.3,2.1C184.2-69.4,183.8-69.2,183.3-69.2z"/>
		</g>
	</g>
	<g>
		<g>
			<path class="st8" d="M230-69.5c-0.4,0-0.9-0.2-1.2-0.6c-0.5-0.6-0.4-1.6,0.2-2.1c2.6-2.1,4.9-4.5,6.8-7.2
				c0.5-0.7,1.4-0.8,2.1-0.4c0.7,0.5,0.8,1.4,0.4,2.1c-2.1,2.9-4.6,5.6-7.3,7.8C230.7-69.6,230.4-69.5,230-69.5z"/>
		</g>
	</g>
	<g>
		<g>
			<path class="st8" d="M206.5-61.2c-1.6,0-3.3-0.1-5-0.3c-0.8-0.1-1.4-0.9-1.3-1.7c0.1-0.8,0.9-1.4,1.7-1.3
				c3.4,0.4,6.6,0.4,9.9-0.1c0.8-0.1,1.6,0.4,1.7,1.3c0.1,0.8-0.4,1.6-1.3,1.7C210.3-61.4,208.4-61.2,206.5-61.2z"/>
		</g>
	</g>
	<g>
		<g>
			<g>
				<path class="st8" d="M168.4-106.4c0.1,0,0.1,0,0.2,0c0.8,0.1,1.4,0.8,1.3,1.6c-0.1,1.2-0.2,2.5-0.2,3.7c0,2,0.2,4.1,0.5,6.2
					c0.1,0.8-0.4,1.6-1.2,1.7c-0.8,0.1-1.6-0.4-1.7-1.2c-0.4-2.2-0.6-4.5-0.6-6.7c0-1.3,0.1-2.7,0.2-4
					C166.9-105.8,167.6-106.4,168.4-106.4z"/>
			</g>
		</g>
		<g>
			<g>
				<path class="st8" d="M205.7-140.1c1.6,0,3.3,0.1,5,0.3c0.8,0.1,1.4,0.9,1.3,1.7c-0.1,0.8-0.9,1.4-1.7,1.3
					c-3.4-0.4-6.6-0.4-9.9,0.1c-0.8,0.1-1.6-0.4-1.7-1.3c-0.1-0.8,0.4-1.6,1.3-1.7C201.9-139.9,203.8-140.1,205.7-140.1z"/>
			</g>
		</g>
	</g>
	<path class="st9" d="M214.7-143.4l-3.7,3.7l-2.7,2.7l-38.5,38.5l-2.7,2.7l-3.7,3.7c-0.5-2.7-0.8-5.4-0.8-8.2
		c0-24.3,19.7-43.9,43.9-43.9C209.3-144.2,212-143.9,214.7-143.4z"/>
	<g>
		<g>
			<path class="st5" d="M169.8-104.8c-0.1,1.2-0.2,2.5-0.2,3.7c0,0.9,0,1.7,0.1,2.6l-2.7,2.7c-0.2-1.8-0.4-3.6-0.4-5.3
				c0-1.3,0.1-2.7,0.2-4c0.1-0.8,0.7-1.3,1.5-1.3h0.2C169.3-106.3,169.9-105.6,169.8-104.8z"/>
		</g>
		<g>
			<g>
				<path class="st5" d="M211-139.7c-0.1,0-0.2-0.1-0.3-0.1c-1.7-0.2-3.4-0.3-5-0.3c-1.9,0-3.8,0.1-5.7,0.4
					c-0.8,0.1-1.4,0.9-1.3,1.7c0.1,0.8,0.9,1.4,1.7,1.3c2.6-0.4,5.2-0.5,7.9-0.3L211-139.7z"/>
			</g>
		</g>
	</g>
	<g>
		<path class="st10" d="M236.8-99.6c0-16.7-13.6-30.3-30.3-30.3c-16.7,0-30.3,13.6-30.3,30.3c0,16.7,13.6,30.3,30.3,30.3
			C223.2-69.3,236.8-82.9,236.8-99.6z M195-99.6c0-6.4,5.2-11.5,11.5-11.5c6.4,0,11.5,5.2,11.5,11.5c0,6.4-5.2,11.5-11.5,11.5
			C200.1-88.1,195-93.3,195-99.6z"/>
		<g>
			<g>
				<path class="st4" d="M225.3-118.8c-10.4-10.4-27.2-10.4-37.6,0c-10.4,10.4-10.4,27.2,0,37.6c10.4,10.4,27.2,10.4,37.6,0
					C235.6-91.6,235.6-108.4,225.3-118.8z M231.3-101.3c0.7,0,1.3,0.6,1.3,1.3c0,0.7-0.6,1.3-1.3,1.3c-0.7,0-1.3-0.6-1.3-1.3
					C230.1-100.7,230.6-101.3,231.3-101.3z M224.9-118.4c0.5,0.5,0.5,1.3,0,1.8c-0.5,0.5-1.3,0.5-1.8,0c-0.5-0.5-0.5-1.3,0-1.8
					C223.6-118.9,224.4-118.9,224.9-118.4z M206.5-126.1c0.7,0,1.3,0.6,1.3,1.3c0,0.7-0.6,1.3-1.3,1.3c-0.7,0-1.3-0.6-1.3-1.3
					C205.2-125.5,205.8-126.1,206.5-126.1z M188.1-116.7c-0.5-0.5-0.5-1.3,0-1.8c0.5-0.5,1.3-0.5,1.8,0c0.5,0.5,0.5,1.3,0,1.8
					C189.3-116.2,188.6-116.2,188.1-116.7z M181.7-98.8c-0.7,0-1.3-0.6-1.3-1.3c0-0.7,0.6-1.3,1.3-1.3c0.7,0,1.3,0.6,1.3,1.3
					C182.9-99.3,182.4-98.8,181.7-98.8z M188.1-81.6c-0.5-0.5-0.5-1.3,0-1.8c0.5-0.5,1.3-0.5,1.8,0c0.5,0.5,0.5,1.3,0,1.8
					C189.3-81.1,188.6-81.1,188.1-81.6z M206.5-73.9c-0.7,0-1.3-0.6-1.3-1.3c0-0.7,0.6-1.3,1.3-1.3c0.7,0,1.3,0.6,1.3,1.3
					C207.8-74.5,207.2-73.9,206.5-73.9z M190.2-83.7c-9-9-9-23.6,0-32.5c9-9,23.6-9,32.5,0c9,9,9,23.6,0,32.5
					C213.8-74.8,199.2-74.8,190.2-83.7z M223.2-81.6c-0.5-0.5-0.5-1.3,0-1.8c0.5-0.5,1.3-0.5,1.8,0c0.5,0.5,0.5,1.3,0,1.8
					C224.4-81.1,223.6-81.1,223.2-81.6z"/>
			</g>
		</g>
		<path class="st9" d="M227.9-100c0-11.8-9.6-21.4-21.4-21.4c-11.8,0-21.4,9.6-21.4,21.4c0,11.8,9.6,21.4,21.4,21.4
			C218.3-78.6,227.9-88.2,227.9-100z M223.4-100c0,1.4-1.1,2.5-2.5,2.5c-1.4,0-2.5-1.1-2.5-2.5c0-1.4,1.1-2.5,2.5-2.5
			C222.3-102.5,223.4-101.4,223.4-100z M204-114.5c0-1.4,1.1-2.5,2.5-2.5c1.4,0,2.5,1.1,2.5,2.5c0,1.4-1.1,2.5-2.5,2.5
			C205.1-112,204-113.1,204-114.5z M189.6-100c0-1.4,1.1-2.5,2.5-2.5c1.4,0,2.5,1.1,2.5,2.5c0,1.4-1.1,2.5-2.5,2.5
			C190.7-97.6,189.6-98.7,189.6-100z M198.4-100c0-4.5,3.6-8.1,8.1-8.1c4.5,0,8.1,3.6,8.1,8.1c0,4.5-3.6,8.1-8.1,8.1
			C202-91.9,198.4-95.5,198.4-100z M204-85.5c0-1.4,1.1-2.5,2.5-2.5c1.4,0,2.5,1.1,2.5,2.5s-1.1,2.5-2.5,2.5
			C205.1-83.1,204-84.2,204-85.5z"/>
		<g>
			<path class="st11" d="M158.3-97.1c0,2.8,1.8,3.4,3.8,1.5l48.7-48.7c2-2,1.3-3.8-1.5-3.8c-13.2,0-26.2,4.9-36.2,14.9
				C163.3-123.4,158.3-110.3,158.3-97.1z M201.3-145.2c0.8,0.8,0.8,2.2,0,3c-0.8,0.8-2.2,0.8-3,0c-0.8-0.8-0.8-2.2,0-3
				C199.2-146,200.5-146,201.3-145.2z M173.8-129.7c-0.8-0.8-0.8-2.2,0-3c0.8-0.8,2.2-0.8,3,0c0.8,0.8,0.8,2.2,0,3
				C176-128.8,174.7-128.8,173.8-129.7z M161.4-105.2c-0.8-0.8-0.8-2.2,0-3c0.8-0.8,2.2-0.8,3,0c0.8,0.8,0.8,2.2,0,3
				C163.5-104.3,162.2-104.3,161.4-105.2z"/>
		</g>
		<g>
			<path class="st4" d="M199.2-143c0.3,0.3,0.9,0.3,1.2,0c0.2-0.2,0.3-0.5,0.2-0.7c-0.6,0.1-1.2,0.2-1.7,0.3
				C199-143.3,199.1-143.2,199.2-143z"/>
			<path class="st4" d="M174.7-130.6C174.7-130.6,174.7-130.6,174.7-130.6c0.4,0.4,0.9,0.4,1.3,0c0.3-0.3,0.3-0.9,0-1.2c0,0,0,0,0,0
				c-0.2,0.2-0.4,0.4-0.6,0.6C175.1-131,174.9-130.8,174.7-130.6z"/>
			<path class="st4" d="M163.5-106.1c0.3-0.3,0.3-0.9,0-1.2c-0.1-0.1-0.3-0.2-0.5-0.2c-0.1,0.6-0.2,1.2-0.3,1.7
				C163-105.8,163.3-105.9,163.5-106.1z"/>
		</g>
	</g>
	<path class="st12" d="M169.1-109.2l-0.2-0.5c-0.6-1.3-1.7-2.4-3-3l-0.3-0.2l0.1-0.3c1.5-4.2,3.6-8.2,6.3-11.7l0.2-0.2l0.3,0.1
		c2.6,1.2,5.6,0.6,7.6-1.4c2-2,2.5-5,1.4-7.6l-0.1-0.3l0.2-0.2c3.6-2.7,7.5-4.8,11.7-6.3l0.3-0.1l0.1,0.3c0.7,1.3,1.7,2.3,3,3
		l0.5,0.2L169.1-109.2z"/>
</g>
<g>
	<g>
		<g>
			<polygon class="st13" points="62.4,-76.2 60,-73.9 78.8,-55.1 81.1,-57.5 			"/>
			<polygon class="st13" points="78.7,-92.6 76.4,-90.2 95.1,-71.5 97.5,-73.8 			"/>
		</g>
	</g>
	
		<rect x="13.2" y="-136.7" transform="matrix(0.7071 -0.7071 0.7071 0.7071 94.9434 -13.3923)" class="st14" width="36.2" height="30.7"/>
	<g>
		<g>
			<g>
				<path class="st13" d="M67.9-91.1l-23.8-23.8c-1.3,0.7-2.5,1.7-3.6,2.8c-1.1,1.1-2,2.3-2.8,3.6l23.4,23.4c3.8,3.8,4.2,9.8,1,14
					l4,4l2.7-2.7c-1.7-3.9-0.9-8.6,2.3-11.8c3.2-3.2,7.9-4,11.8-2.3l2.7-2.7L82-90.1C77.8-86.9,71.8-87.2,67.9-91.1z"/>
			</g>
			<g>
				<path class="st15" d="M69.6-83c-1.6,1.6-2.7,3.5-3.3,5.6c0-3.3-1.3-6.6-3.7-9.1l-22.2-22.2c1-1.4,2.1-2.5,3.5-3.5l22.6,22.6
					c2.1,2.1,4.9,3.4,7.7,3.7C72.5-85.3,70.9-84.4,69.6-83z"/>
			</g>
			
				<rect x="2.3" y="-134.4" transform="matrix(0.7071 -0.7071 0.7071 0.7071 98.912 -22.9643)" class="st16" width="38.9" height="7"/>
			
				<rect x="6.2" y="-128.2" transform="matrix(0.7071 -0.7071 0.7071 0.7071 97.2782 -19.0264)" class="st16" width="38.9" height="2.5"/>
			
				<rect x="8.5" y="-125.9" transform="matrix(0.7071 -0.7071 0.7071 0.7071 96.3176 -16.7034)" class="st16" width="38.9" height="2.5"/>
			
				<rect x="81.1" y="-66.7" transform="matrix(0.7071 -0.7071 0.7071 0.7071 71.5185 43.1637)" class="st16" width="13.5" height="3.9"/>
			<g>
				
					<rect x="67.7" y="-77.5" transform="matrix(0.7069 -0.7073 0.7073 0.7069 67.2905 30.3112)" class="st16" width="5.1" height="23"/>
				<rect x="84" y="-93.9" transform="matrix(0.707 -0.7072 0.7072 0.707 83.6321 37.0847)" class="st16" width="5.1" height="23"/>
			</g>
			<g>
				
					<rect x="77.9" y="-57.8" transform="matrix(0.7067 -0.7075 0.7075 0.7067 63.4762 39.6091)" class="st16" width="3.3" height="2.2"/>
				
					<rect x="94.2" y="-74.2" transform="matrix(0.7074 -0.7068 0.7068 0.7074 79.7188 46.3658)" class="st16" width="3.3" height="2.2"/>
			</g>
			<g>
				
					<rect x="59.3" y="-76.4" transform="matrix(0.7074 -0.7068 0.7068 0.7074 71.0695 21.026)" class="st16" width="3.3" height="2.2"/>
				
					<rect x="75.6" y="-92.8" transform="matrix(0.7073 -0.707 0.707 0.7073 87.4367 27.7975)" class="st16" width="3.3" height="2.2"/>
			</g>
			<g>
				<g>
					<path class="st13" d="M70.8-81.8c-4.8,4.8-4.8,12.7,0,17.5c4.8,4.8,12.7,4.8,17.5,0c4.8-4.8,4.8-12.7,0-17.5
						C83.5-86.7,75.6-86.7,70.8-81.8z M85.3-67.3c-3.2,3.2-8.4,3.2-11.6,0c-3.2-3.2-3.2-8.4,0-11.6c3.2-3.2,8.4-3.2,11.6,0
						C88.5-75.7,88.5-70.5,85.3-67.3z"/>
				</g>
			</g>
			<g>
				<path class="st16" d="M33.1-119.5c-1.6,1.6-1.6,4.2,0,5.8c1.6,1.6,4.2,1.6,5.8,0s1.6-4.2,0-5.8
					C37.3-121.1,34.7-121.1,33.1-119.5z"/>
				<path class="st16" d="M15.8-109.3l18.7,18.7l3.8-3.8c-1.1-5.4,0.5-11.1,4.7-15.3c4.2-4.2,9.9-5.7,15.3-4.7l3.8-3.8l-18.7-18.7
					L15.8-109.3z M40-112.6c-2.2,2.2-5.8,2.2-8,0c-2.2-2.2-2.2-5.8,0-8c2.2-2.2,5.8-2.2,8,0C42.2-118.4,42.2-114.8,40-112.6z"/>
				
					<rect x="2.3" y="-134.4" transform="matrix(0.7071 -0.7071 0.7071 0.7071 98.912 -22.9643)" class="st16" width="38.9" height="7"/>
				
					<rect x="6.2" y="-128.2" transform="matrix(0.7071 -0.7071 0.7071 0.7071 97.2782 -19.0264)" class="st16" width="38.9" height="2.5"/>
				
					<rect x="8.5" y="-125.9" transform="matrix(0.7071 -0.7071 0.7071 0.7071 96.3176 -16.7034)" class="st16" width="38.9" height="2.5"/>
				<path class="st16" d="M15.8-109.3l18.7,18.7l3.8-3.8c-1.1-5.4,0.5-11.1,4.7-15.3c4.2-4.2,9.9-5.7,15.3-4.7l3.8-3.8l-18.7-18.7
					L15.8-109.3z M40-112.6c-2.2,2.2-5.8,2.2-8,0c-2.2-2.2-2.2-5.8,0-8c2.2-2.2,5.8-2.2,8,0C42.2-118.4,42.2-114.8,40-112.6z"/>
			</g>
		</g>
	</g>
	
		<rect x="11.8" y="-134.4" transform="matrix(0.7071 -0.7071 0.7071 0.7071 98.9123 -22.9645)" class="st16" width="19.8" height="7"/>
	
		<rect x="15.8" y="-128.2" transform="matrix(0.7072 -0.7071 0.7071 0.7072 97.2706 -19.0211)" class="st16" width="19.8" height="2.5"/>
	
		<rect x="18.1" y="-125.9" transform="matrix(0.7071 -0.7072 0.7072 0.7071 96.323 -16.7068)" class="st16" width="19.8" height="2.5"/>
	
		<rect x="12.2" y="-132.5" transform="matrix(0.7071 -0.7072 0.7072 0.7071 98.7694 -22.6132)" class="st8" width="19.8" height="4"/>
	
		<rect x="15.8" y="-127.2" transform="matrix(0.7072 -0.7071 0.7071 0.7072 97.2704 -19.021)" class="st8" width="19.8" height="0.5"/>
	
		<rect x="18.1" y="-124.9" transform="matrix(0.7071 -0.7072 0.7072 0.7071 96.323 -16.7068)" class="st8" width="19.8" height="0.5"/>
	<path class="st8" d="M37.2-129.4l-7,7l-7,7l13.5,13.5c0.6-3.4,2.1-6.7,4.8-9.3c2.6-2.6,5.9-4.2,9.3-4.8L37.2-129.4z M40-112.6
		c-2.2,2.2-5.8,2.2-8,0c-2.2-2.2-2.2-5.8,0-8c2.2-2.2,5.8-2.2,8,0C42.2-118.4,42.2-114.8,40-112.6z"/>
</g>
<g>
	<g>
		<g>
			<path class="st17" d="M51.6,17.1c-19.6,0-35.6,16-35.6,35.6c0,19.6,16,35.6,35.6,35.6c19.6,0,35.6-16,35.6-35.6
				C87.2,33,71.3,17.1,51.6,17.1z M51.1,77.6c-13.8-0.3-24.8-11.7-24.5-25.5c0.3-13.8,11.7-24.8,25.5-24.5
				c13.8,0.3,24.8,11.7,24.5,25.5C76.4,66.9,64.9,77.9,51.1,77.6z"/>
		</g>
	</g>
	<path class="st18" d="M97.7,51.3L97,50.6c0-0.8-0.1-1.5-0.2-2.3c0.1,0.1,0.2,0.1,0.3,0.1c0.2,0,0.4-0.2,0.4-0.4c0,0,0-0.1,0-0.1
		l-0.3-2c0-0.1-0.1-0.2-0.2-0.3l-0.7-0.6c-0.1-0.7-0.3-1.5-0.5-2.2c0.1,0.1,0.2,0.1,0.2,0.1c0.2,0,0.4-0.2,0.4-0.4
		c0-0.1,0-0.1,0-0.2l-0.5-2c0-0.1-0.1-0.2-0.2-0.3l-0.8-0.5c-0.2-0.7-0.5-1.5-0.7-2.2c0.1,0,0.1,0,0.2,0.1c0.2,0,0.4-0.2,0.4-0.4
		c0-0.1,0-0.2-0.1-0.2l-0.8-1.9c0-0.1-0.1-0.2-0.2-0.2L93.1,34c-0.3-0.7-0.6-1.4-1-2.1l0,0c0.1,0,0.1,0,0.2,0c0,0,0,0,0,0
		c0.2,0,0.4-0.2,0.4-0.4c0-0.1,0-0.2-0.1-0.3l-1-1.8c-0.1-0.1-0.1-0.2-0.2-0.2L90.4,29c-0.4-0.7-0.8-1.3-1.2-1.9l0,0
		c0,0,0.1,0,0.1,0c0.2,0,0.4-0.2,0.4-0.4c0-0.1-0.1-0.2-0.1-0.3l-1.2-1.7c-0.1-0.1-0.2-0.1-0.3-0.2l-1-0.2c-0.5-0.6-1-1.2-1.5-1.7
		l0,0c0,0,0,0,0.1,0c0.2,0,0.4-0.2,0.4-0.4c0-0.1-0.1-0.3-0.2-0.3l-1.4-1.5c-0.1-0.1-0.2-0.1-0.3-0.1l-1-0.1c-0.5-0.5-1.1-1-1.7-1.5
		h0c0.2,0,0.3-0.1,0.4-0.3c0.1-0.2,0-0.4-0.1-0.5l-1.6-1.4c-0.1-0.1-0.2-0.1-0.3-0.1l-1,0.1c-0.6-0.5-1.2-0.9-1.9-1.3
		c0.2,0,0.3-0.2,0.4-0.3c0-0.2,0-0.4-0.2-0.5l-1.8-1.1c-0.1-0.1-0.2-0.1-0.3-0.1l-1,0.2c-0.7-0.4-1.3-0.7-2-1.1
		c0.2,0,0.3-0.2,0.3-0.4c0-0.2-0.1-0.4-0.2-0.4l-1.9-0.9c-0.1,0-0.2-0.1-0.3,0l-0.9,0.3c-0.7-0.3-1.4-0.6-2.1-0.8
		c0.2-0.1,0.3-0.2,0.3-0.4c0-0.2-0.1-0.3-0.3-0.4l-2-0.7c-0.1,0-0.2,0-0.3,0l-0.9,0.4c-0.7-0.2-1.5-0.4-2.2-0.5l0,0
		c0.2-0.1,0.2-0.3,0.2-0.4c0-0.2-0.2-0.3-0.3-0.4l-2.1-0.4c-0.1,0-0.2,0-0.3,0.1l-0.8,0.5c-0.5-0.1-1-0.1-1.5-0.2
		c-0.3,0-0.5,0-0.8-0.1l0,0C56,7.3,56,7.2,56,7c-0.1-0.2-0.2-0.3-0.4-0.3l-2.1-0.1c-0.1,0-0.2,0-0.3,0.1l-0.8,0.6
		c-0.8,0-1.5,0-2.3,0l0,0c0.1-0.1,0.2-0.3,0.1-0.5c-0.1-0.2-0.2-0.3-0.4-0.3l-2.1,0.1c-0.1,0-0.2,0.1-0.3,0.1l-0.7,0.7
		c-0.8,0.1-1.5,0.2-2.3,0.3c0.1-0.1,0.1-0.3,0-0.5c-0.1-0.2-0.3-0.2-0.5-0.2L42,7.5c-0.1,0-0.2,0.1-0.3,0.2l-0.6,0.8
		c-0.7,0.2-1.5,0.4-2.2,0.6c0.1-0.2,0.1-0.3,0-0.5c-0.1-0.1-0.3-0.2-0.5-0.1l-2,0.7c-0.1,0-0.2,0.1-0.2,0.2l-0.5,0.8
		c-0.7,0.3-1.4,0.6-2.1,0.9c0.1-0.2,0-0.4-0.1-0.5c-0.1-0.1-0.3-0.2-0.5-0.1L31,11.4c-0.1,0-0.2,0.1-0.2,0.2l-0.4,0.9
		c-0.7,0.4-1.3,0.7-2,1.1v0c0.1-0.2,0-0.4-0.1-0.5c-0.1-0.1-0.3-0.1-0.5,0L26,14.3c-0.1,0.1-0.2,0.2-0.2,0.3l-0.2,1
		c-0.6,0.4-1.2,0.9-1.8,1.4v0c0-0.2-0.1-0.4-0.2-0.4c-0.2-0.1-0.4-0.1-0.5,0l-1.6,1.4c-0.1,0.1-0.1,0.2-0.2,0.3l-0.1,1
		c-0.6,0.5-1.1,1-1.7,1.6v0c0-0.2-0.1-0.3-0.3-0.4c-0.2-0.1-0.4,0-0.5,0.1l-1.5,1.6c-0.1,0.1-0.1,0.2-0.1,0.3v1
		c-0.5,0.6-1,1.2-1.4,1.8c0-0.2-0.1-0.3-0.3-0.4c-0.2,0-0.4,0-0.5,0.2l-1.3,1.7c-0.1,0.1-0.1,0.2-0.1,0.3l0.1,1
		c-0.4,0.6-0.8,1.3-1.2,1.9c0-0.2-0.2-0.3-0.4-0.3c-0.2,0-0.4,0.1-0.4,0.2l-1,1.9c-0.1,0.1-0.1,0.2,0,0.3l0.2,0.9
		c-0.3,0.7-0.7,1.4-1,2.1c-0.1-0.2-0.2-0.3-0.4-0.3c-0.2,0-0.3,0.1-0.4,0.3l-0.8,2c0,0.1,0,0.2,0,0.3l0.4,0.9
		c-0.2,0.7-0.5,1.5-0.7,2.2c-0.1-0.2-0.3-0.3-0.4-0.2c-0.2,0-0.3,0.1-0.4,0.3l-0.5,2.1c0,0.1,0,0.2,0,0.3l0.5,0.9
		c-0.2,0.7-0.3,1.5-0.4,2.3l0,0c-0.1-0.2-0.3-0.2-0.5-0.2c-0.2,0-0.3,0.2-0.3,0.4l-0.3,2.1c0,0.1,0,0.2,0.1,0.3L6.4,49
		c-0.1,0.8-0.1,1.5-0.1,2.3l0,0c-0.1-0.1-0.3-0.2-0.5-0.1c-0.2,0.1-0.3,0.2-0.3,0.4v2.1c0,0.1,0,0.2,0.1,0.3l0.7,0.7
		c0,0.8,0.1,1.5,0.2,2.3c-0.1-0.1-0.3-0.1-0.5-0.1c-0.2,0.1-0.3,0.3-0.2,0.4L6,59.5c0,0.1,0.1,0.2,0.2,0.3l0.7,0.6
		c0.1,0.7,0.3,1.5,0.5,2.2c-0.1-0.1-0.3-0.1-0.5,0c-0.1,0.1-0.2,0.3-0.2,0.5l0.5,2.1c0,0.1,0.1,0.2,0.2,0.3l0.8,0.5
		c0.2,0.7,0.5,1.5,0.7,2.2C8.8,68,8.6,68,8.5,68.2c-0.1,0.1-0.2,0.3-0.1,0.5l0.8,2c0,0.1,0.1,0.2,0.2,0.2l0.9,0.4
		c0.3,0.7,0.7,1.4,1,2.1l0,0c-0.2-0.1-0.4,0-0.5,0.1c-0.1,0.1-0.1,0.3-0.1,0.5l1,1.9c0.1,0.1,0.1,0.2,0.2,0.2l0.9,0.3
		c0.4,0.7,0.8,1.3,1.2,1.9l0,0c-0.2,0-0.4,0-0.5,0.2c-0.1,0.2-0.1,0.3,0,0.5l1.3,1.7c0.1,0.1,0.2,0.1,0.3,0.2l1,0.2
		c0.5,0.6,1,1.2,1.5,1.7l0,0c-0.2,0-0.4,0.1-0.4,0.2c-0.1,0.2-0.1,0.4,0.1,0.5l1.5,1.6c0.1,0.1,0.2,0.1,0.3,0.1l1,0.1
		c0.5,0.5,1.1,1,1.7,1.5h0c-0.2,0-0.3,0.1-0.4,0.3c-0.1,0.2,0,0.4,0.1,0.5l1.6,1.4c0.1,0.1,0.2,0.1,0.3,0.1l1-0.1
		c0.6,0.5,1.2,0.9,1.9,1.3c-0.2,0-0.3,0.2-0.4,0.3c0,0.2,0,0.4,0.2,0.5l1.8,1.1c0.1,0.1,0.2,0.1,0.3,0.1l1-0.2
		c0.7,0.4,1.3,0.7,2,1.1c-0.2,0-0.3,0.2-0.3,0.4c0,0.2,0.1,0.4,0.2,0.4l1.9,0.9c0.1,0,0.2,0.1,0.3,0l0.9-0.3
		c0.7,0.3,1.4,0.6,2.1,0.8c-0.2,0.1-0.3,0.2-0.3,0.4c0,0.2,0.1,0.3,0.3,0.4l2,0.7c0.1,0,0.2,0,0.3,0l0.9-0.4
		c0.7,0.2,1.5,0.4,2.2,0.5l0,0c-0.2,0.1-0.2,0.3-0.2,0.4c0,0.2,0.2,0.3,0.3,0.4l2.1,0.4c0.1,0,0.2,0,0.3-0.1l0.8-0.5
		c0.5,0.1,1,0.1,1.5,0.2c0.3,0,0.5,0,0.8,0.1l0,0c-0.1,0.1-0.2,0.3-0.2,0.5c0.1,0.2,0.2,0.3,0.4,0.3l2.1,0.1c0.1,0,0.2,0,0.3-0.1
		l0.8-0.6c0.3,0,0.6,0,0.8,0c0.5,0,1,0,1.5,0l0,0c-0.1,0.1-0.2,0.3-0.1,0.5c0.1,0.2,0.2,0.3,0.4,0.3c0,0,0,0,0,0l2.1-0.1
		c0.1,0,0.2-0.1,0.3-0.1l0.7-0.7c0.8-0.1,1.5-0.2,2.3-0.3c-0.1,0.1-0.1,0.3,0,0.5c0.1,0.2,0.3,0.2,0.4,0.2l2.1-0.4
		c0.1,0,0.2-0.1,0.3-0.2l0.6-0.8c0.7-0.2,1.5-0.4,2.2-0.6c-0.1,0.2-0.1,0.3,0,0.5c0.1,0.1,0.3,0.2,0.5,0.1l2-0.7
		c0.1,0,0.2-0.1,0.2-0.2l0.5-0.8c0.7-0.3,1.4-0.6,2.1-0.9c-0.1,0.2,0,0.4,0.1,0.5c0.1,0.1,0.3,0.2,0.5,0.1l1.9-0.9
		c0.1,0,0.2-0.1,0.2-0.2l0.4-0.9c0.7-0.4,1.3-0.7,2-1.1l0,0c-0.1,0.2,0,0.4,0.1,0.5c0.1,0.1,0.3,0.1,0.5,0l1.8-1.1
		c0.1-0.1,0.2-0.1,0.2-0.3l0.2-1c0.6-0.4,1.2-0.9,1.8-1.4l0,0c0,0.2,0.1,0.4,0.2,0.4c0.2,0.1,0.4,0.1,0.5,0l1.6-1.4
		c0.1-0.1,0.1-0.2,0.2-0.3l0.1-1c0.6-0.5,1.1-1,1.7-1.6v0c0,0.2,0.1,0.3,0.3,0.4c0.2,0.1,0.4,0,0.5-0.1l1.5-1.6
		c0.1-0.1,0.1-0.2,0.1-0.3v-1c0.5-0.6,1-1.2,1.4-1.8c0,0.2,0.1,0.3,0.3,0.4c0.2,0,0.4,0,0.5-0.2l1.3-1.7c0.1-0.1,0.1-0.2,0.1-0.3
		l-0.1-1c0.4-0.6,0.8-1.3,1.2-1.9c0,0.2,0.2,0.3,0.4,0.3c0.2,0,0.4-0.1,0.4-0.2l1-1.9c0.1-0.1,0.1-0.2,0-0.3l-0.2-0.9
		c0.3-0.7,0.7-1.4,1-2.1c0.1,0.2,0.2,0.3,0.4,0.3c0.2,0,0.3-0.1,0.4-0.3l0.8-2c0-0.1,0-0.2,0-0.3l-0.4-0.9c0.2-0.7,0.5-1.5,0.7-2.2
		c0.1,0.2,0.3,0.3,0.4,0.2c0.2,0,0.3-0.1,0.4-0.3l0.5-2.1c0-0.1,0-0.2,0-0.3l-0.5-0.9c0.2-0.7,0.3-1.5,0.4-2.3l0,0
		c0.1,0.2,0.3,0.2,0.5,0.2c0.2,0,0.3-0.2,0.3-0.4l0.3-2.1c0-0.1,0-0.2-0.1-0.3l-0.6-0.8C97,55.5,97,54.8,97,54l0,0
		c0.1,0.1,0.3,0.2,0.5,0.1s0.3-0.2,0.3-0.4v-2.1C97.8,51.5,97.7,51.4,97.7,51.3z M86,55.8c-1.6,17.6-16.7,31.4-34.3,31.4
		c-1,0-2.1,0-3.1-0.1c-9.2-0.8-17.5-5.2-23.4-12.3c-5.9-7.1-8.7-16-7.9-25.2C18.9,31.9,34,18.2,51.6,18.2c1,0,2.1,0,3.1,0.1
		C73.7,20,87.7,36.8,86,55.8z"/>
	<g>
		<g>
			<path class="st19" d="M51.6,8.8C27.5,8.8,7.9,28.4,7.9,52.5c0,24.1,19.6,43.7,43.7,43.7c24.1,0,43.7-19.6,43.7-43.7
				C95.4,28.4,75.8,8.8,51.6,8.8z M50.9,90.3C30,89.9,13.4,72.6,13.8,51.7c0.4-20.9,17.7-37.5,38.6-37.1
				C73.3,15,89.9,32.4,89.5,53.2C89.1,74.1,71.8,90.7,50.9,90.3z"/>
		</g>
	</g>
	<path class="st18" d="M51.8,26.3c-14.6,0-26.4,11.8-26.4,26.4c0,14.6,11.8,26.4,26.4,26.4c14.6,0,26.4-11.8,26.4-26.4
		C78.2,38.1,66.4,26.3,51.8,26.3z M51.8,72.7c-11.1,0-20.1-9-20.1-20.1c0-11.1,9-20.1,20.1-20.1c11.1,0,20.1,9,20.1,20.1
		C71.9,63.7,62.9,72.7,51.8,72.7z"/>
	<g>
		<g>
			<path class="st8" d="M51.6,85.3c-18,0-32.6-14.6-32.6-32.6S33.7,20,51.6,20s32.6,14.6,32.6,32.6S69.6,85.3,51.6,85.3z M51.6,21.3
				c-17.3,0-31.3,14.1-31.3,31.3S34.4,84,51.6,84S83,69.9,83,52.7S68.9,21.3,51.6,21.3z"/>
		</g>
		<g>
			<path class="st16" d="M51.6,17.1c-19.6,0-35.6,16-35.6,35.6c0,19.6,16,35.6,35.6,35.6c19.6,0,35.6-16,35.6-35.6
				C87.2,33,71.3,17.1,51.6,17.1z M51,85.8C32.7,85.5,18.1,70.3,18.5,52C18.8,33.7,34,19.1,52.3,19.5C70.6,19.8,85.2,35,84.8,53.3
				C84.5,71.6,69.3,86.2,51,85.8z"/>
		</g>
	</g>
	<g>
		<g>
			<path class="st13" d="M47.3,78.6c0-1.5,0-3.7-0.1-6.3c-5.5-1.2-10.2-4.7-13-9.5l-6,1.9C32,72.1,39.1,77.3,47.3,78.6z"/>
			<path class="st13" d="M51.6,26.3c-4.1,0-8.1,0.9-11.7,2.8l3.8,5.1c2.4-1,5.1-1.6,7.9-1.6c2.8,0,5.5,0.6,7.9,1.6l3.8-5.1
				C59.7,27.2,55.7,26.3,51.6,26.3z"/>
			<path class="st13" d="M31.5,52.7c0-5.1,1.9-9.8,5.1-13.4l-3.7-5.2c-4.9,4.9-7.6,11.6-7.6,18.5c0,1.3,0.1,2.5,0.3,3.8l6-2
				C31.5,53.8,31.5,53.2,31.5,52.7z"/>
			<path class="st13" d="M75.1,64.7l-6-1.9c-2.8,4.8-7.5,8.3-13,9.5L56,78.6C64.2,77.3,71.3,72.1,75.1,64.7z"/>
			<path class="st13" d="M77.7,56.4c0.2-1.3,0.3-2.5,0.3-3.8c0-6.9-2.8-13.6-7.6-18.5l-3.7,5.2c3.2,3.6,5.1,8.2,5.1,13.4
				c0,0.6,0,1.2-0.1,1.8L77.7,56.4z"/>
		</g>
		<path class="st16" d="M51.6,82.2c-16.3,0-29.5-13.2-29.5-29.5s13.2-29.5,29.5-29.5c16.3,0,29.5,13.2,29.5,29.5
			S67.9,82.2,51.6,82.2z M26.8,64.1c4,8.6,12.1,14.6,21.5,15.7c0-1.7-0.1-6-0.1-11.1c-0.1-5-3.2-8.4-7.8-8.4c-1,0-2,0.2-3.1,0.5
			L26.8,64.1z M62.8,60.3c-4.6,0-7.7,3.4-7.8,8.4L55,79.8c9.4-1.1,17.6-7.1,21.5-15.7L66,60.8C64.9,60.5,63.9,60.3,62.8,60.3z
			 M33.1,32.6c-5.6,5.2-8.8,12.5-8.8,20.1c0,1.7,0.2,3.4,0.5,5.1l10.4-3.5c2.9-1,4.9-2.8,5.6-5.2c0.8-2.4,0.2-5.1-1.5-7.5L33.1,32.6
			z M70.2,32.6l-6.3,8.9c-1.7,2.5-2.3,5.1-1.5,7.5c0.8,2.4,2.8,4.3,5.6,5.2l10.4,3.5c0.3-1.7,0.5-3.4,0.5-5.1
			C79,45.1,75.8,37.8,70.2,32.6z M38.4,28.7l6.5,8.7c1.8,2.4,4.2,3.8,6.7,3.8c2.5,0,4.9-1.3,6.7-3.8l6.5-8.7
			c-4-2.2-8.6-3.4-13.2-3.4C47,25.3,42.5,26.5,38.4,28.7z"/>
		<path class="st13" d="M51.6,45.8c-3.8,0-6.8,3.1-6.8,6.8c0,3.8,3.1,6.8,6.8,6.8c3.8,0,6.8-3.1,6.8-6.8
			C58.5,48.9,55.4,45.8,51.6,45.8z M51.6,56.5c-2.1,0-3.8-1.7-3.8-3.8c0-2.1,1.7-3.8,3.8-3.8c2.1,0,3.8,1.7,3.8,3.8
			C55.5,54.8,53.8,56.5,51.6,56.5z"/>
	</g>
	<path class="st16" d="M51.6,46.8c-3.2,0-5.8,2.6-5.8,5.8c0,3.2,2.6,5.8,5.8,5.8c3.2,0,5.8-2.6,5.8-5.8
		C57.5,49.4,54.9,46.8,51.6,46.8z M51.6,57.5c-2.7,0-4.8-2.2-4.8-4.8c0-2.7,2.2-4.8,4.8-4.8c2.7,0,4.8,2.2,4.8,4.8
		C56.5,55.3,54.3,57.5,51.6,57.5z"/>
	<g>
		<g>
			<g>
				<path class="st18" d="M18.1,77c5.2,7.2,12.5,12.6,20.9,15.3l0-1c-8-2.7-15-7.8-20-14.6L18.1,77z"/>
			</g>
			<g>
				<path class="st18" d="M38.9,13.7l0.5,0.7c7.8-2.5,16.5-2.5,24.3,0l0.5-0.7C56.2,11,47.1,11,38.9,13.7z"/>
			</g>
			<g>
				<path class="st18" d="M18.4,28.5c-5.1,7-8,15.6-8,24.3l0.9-0.3c0.1-8.4,2.8-16.5,7.7-23.2L18.4,28.5z"/>
			</g>
			<g>
				<path class="st18" d="M64.3,91.3l0,1c8.4-2.7,15.7-8.1,20.9-15.3l-0.9-0.3C79.3,83.5,72.3,88.7,64.3,91.3z"/>
			</g>
			<g>
				<path class="st18" d="M92.1,52.5l0.9,0.3c0-8.7-2.9-17.3-8-24.3l-0.5,0.8C89.3,36,92,44.1,92.1,52.5z"/>
			</g>
		</g>
	</g>
	<path class="st13" d="M53.2,63.1c0,0.9-0.7,1.6-1.6,1.6c-0.9,0-1.6-0.7-1.6-1.6c0-0.9,0.7-1.6,1.6-1.6
		C52.5,61.5,53.2,62.3,53.2,63.1z"/>
	<path class="st13" d="M46.7,44.1c0,0.9-0.7,1.6-1.6,1.6c-0.9,0-1.6-0.7-1.6-1.6c0-0.9,0.7-1.6,1.6-1.6C46,42.5,46.7,43.3,46.7,44.1
		z"/>
	<path class="st13" d="M59.8,44.1c0,0.9-0.7,1.6-1.6,1.6c-0.9,0-1.6-0.7-1.6-1.6c0-0.9,0.7-1.6,1.6-1.6
		C59.1,42.5,59.8,43.3,59.8,44.1z"/>
	<path class="st13" d="M43.2,55.8c0,0.9-0.7,1.6-1.6,1.6c-0.9,0-1.6-0.7-1.6-1.6c0-0.9,0.7-1.6,1.6-1.6
		C42.5,54.2,43.2,54.9,43.2,55.8z"/>
	<path class="st13" d="M63.3,55.8c0,0.9-0.7,1.6-1.6,1.6c-0.9,0-1.6-0.7-1.6-1.6c0-0.9,0.7-1.6,1.6-1.6
		C62.6,54.2,63.3,54.9,63.3,55.8z"/>
</g>
<g>
	
		<rect x="197.6" y="-256.2" transform="matrix(0.7072 -0.7071 0.7071 0.7072 239.8476 70.331)" class="st20" width="14.4" height="3.6"/>
	
		<rect x="186.7" y="-268.2" transform="matrix(0.7071 -0.7071 0.7071 0.7071 242.7657 63.3369)" class="st21" width="22.3" height="13.6"/>
	
		<rect x="189.6" y="-258.5" transform="matrix(0.7071 -0.7071 0.7071 0.7071 241.0994 67.3389)" class="st21" width="24.4" height="2.2"/>
	
		<rect x="176.3" y="-273" transform="matrix(0.7071 -0.7071 0.7071 0.7071 246.2864 54.8376)" class="st22" width="26" height="6.3"/>
	
		<rect x="168.9" y="-296.1" transform="matrix(0.7071 -0.7071 0.7071 0.7071 251.3325 42.6524)" class="st22" width="16.4" height="28.2"/>
	
		<rect x="184.6" y="-263.4" transform="matrix(0.7071 -0.7071 0.7071 0.7071 242.0514 65.0621)" class="st8" width="30" height="7.4"/>
	<g>
		
			<rect x="219.8" y="-243.5" transform="matrix(0.7072 -0.7071 0.7071 0.7072 231.2588 91.0641)" class="st20" width="11.6" height="19.8"/>
		
			<rect x="164.2" y="-295.5" transform="matrix(0.7068 -0.7074 0.7074 0.7068 256.4755 30.5584)" class="st3" width="1.7" height="2.8"/>
		
			<rect x="176.6" y="-271.4" transform="matrix(0.7072 -0.707 0.707 0.7072 245.3328 57.0701)" class="st16" width="30" height="7.4"/>
		
			<rect x="204.3" y="-257" transform="matrix(0.7071 -0.7072 0.7072 0.7071 237.1192 77.0289)" class="st23" width="14.4" height="18.6"/>
		
			<rect x="164.4" y="-294.8" transform="matrix(0.707 -0.7072 0.7072 0.707 255.6625 32.2934)" class="st22" width="4.8" height="4.8"/>
		
			<rect x="161" y="-298.3" transform="matrix(0.7071 -0.7071 0.7071 0.7071 257.6707 27.3532)" class="st3" width="1.7" height="1.8"/>
		<g>
			
				<rect x="193.4" y="-263.4" transform="matrix(0.707 -0.7072 0.7072 0.707 242.098 65.0565)" class="st16" width="12.4" height="7.4"/>
			
				<rect x="187.9" y="-255.3" transform="matrix(0.7071 -0.7071 0.7071 0.7071 233.9907 61.7252)" class="st13" width="7.2" height="7.4"/>
			
				<rect x="204" y="-271.4" transform="matrix(0.707 -0.7072 0.7072 0.707 250.172 68.3922)" class="st13" width="7.2" height="7.4"/>
		</g>
		<path class="st23" d="M217.7-232.8c-0.8,0.8-2.1,0.8-2.9,0l0,0c-0.8-0.8-0.8-2.1,0-2.9l8.7-8.7c0.8-0.8,2.1-0.8,2.9,0l0,0
			c0.8,0.8,0.8,2.1,0,2.9L217.7-232.8z"/>
		<path class="st23" d="M221.7-228.8c-0.8,0.8-2.1,0.8-2.9,0l0,0c-0.8-0.8-0.8-2.1,0-2.9l8.7-8.7c0.8-0.8,2.1-0.8,2.9,0l0,0
			c0.8,0.8,0.8,2.1,0,2.9L221.7-228.8z"/>
		<path class="st23" d="M225.7-224.8c-0.8,0.8-2.1,0.8-2.9,0l0,0c-0.8-0.8-0.8-2.1,0-2.9l8.7-8.7c0.8-0.8,2.1-0.8,2.9,0l0,0
			c0.8,0.8,0.8,2.1,0,2.9L225.7-224.8z"/>
		<path class="st23" d="M229.7-220.9c-0.8,0.8-2.1,0.8-2.9,0l0,0c-0.8-0.8-0.8-2.1,0-2.9l8.7-8.7c0.8-0.8,2.1-0.8,2.9,0l0,0
			c0.8,0.8,0.8,2.1,0,2.9L229.7-220.9z"/>
		
			<rect x="237.3" y="-220.7" transform="matrix(0.7072 -0.707 0.707 0.7072 225.016 106.1046)" class="st15" width="6.6" height="4.2"/>
		<path class="st23" d="M234.6-217.7l-3.6-3.6l7-7l3.6,3.6c1.2,1.2,1.2,3.2,0,4.5l-2.5,2.5C237.8-216.5,235.8-216.5,234.6-217.7z"/>
		
			<rect x="208" y="-257" transform="matrix(0.7071 -0.7071 0.7071 0.7071 237.1127 77.0292)" class="st24" width="7.2" height="18.6"/>
		<path class="st24" d="M219.9-235c-0.4,0.4-1.4,0.1-2.2-0.7l0,0c-0.8-0.8-1.1-1.8-0.7-2.2l4.3-4.3c0.4-0.4,1.4-0.1,2.2,0.7l0,0
			c0.8,0.8,1.1,1.8,0.7,2.2L219.9-235z"/>
		<path class="st24" d="M223.9-231c-0.4,0.4-1.4,0.1-2.2-0.7l0,0c-0.8-0.8-1.1-1.8-0.7-2.2l4.3-4.3c0.4-0.4,1.4-0.1,2.2,0.7l0,0
			c0.8,0.8,1.1,1.8,0.7,2.2L223.9-231z"/>
		<path class="st24" d="M227.9-227c-0.4,0.4-1.4,0.1-2.2-0.7l0,0c-0.8-0.8-1.1-1.8-0.7-2.2l4.3-4.3c0.4-0.4,1.4-0.1,2.2,0.7l0,0
			c0.8,0.8,1.1,1.8,0.7,2.2L227.9-227z"/>
		<path class="st24" d="M231.8-223c-0.4,0.4-1.4,0.1-2.2-0.7l0,0c-0.8-0.8-1.1-1.8-0.7-2.2l4.3-4.3c0.4-0.4,1.4-0.1,2.2,0.7l0,0
			c0.8,0.8,1.1,1.8,0.7,2.2L231.8-223z"/>
		<path class="st24" d="M236.3-219.5l-3.6-3.6l3.5-3.5l3.6,3.6c1.2,1.2,1.7,2.7,1.1,3.3l-1.2,1.2C239-217.7,237.5-218.2,236.3-219.5
			z"/>
		<path class="st16" d="M244.4-219.4l-4.6,4.6c-0.2,1.6,0.3,3.3,1.5,4.5c1,1,2.2,1.5,3.5,1.6l5.7-5.7c-0.1-1.3-0.6-2.5-1.6-3.5
			C247.7-219.1,246-219.6,244.4-219.4z"/>
		<g>
			<g>
				<path class="st22" d="M161.6-286.4l-1.3-1.3c-2.8-2.8-2.8-7.3,0-10.1l2.2-2.2l1.1,1.1l-2.2,2.2c-2.2,2.2-2.2,5.7,0,7.8l1.3,1.3
					L161.6-286.4z"/>
			</g>
			
				<rect x="157.9" y="-293.5" transform="matrix(0.7071 -0.7071 0.7071 0.7071 255.2475 33.2163)" class="st25" width="19.7" height="3.9"/>
			
				<rect x="176.6" y="-271.4" transform="matrix(0.7072 -0.707 0.707 0.7072 245.3328 57.0701)" class="st16" width="30" height="7.4"/>
			
				<rect x="184.6" y="-270.6" transform="matrix(0.7071 -0.7071 0.7071 0.7071 245.3633 57.0649)" class="st8" width="14" height="6"/>
			
				<rect x="163.1" y="-293" transform="matrix(0.7071 -0.7071 0.7071 0.7071 255.2485 33.2159)" class="st8" width="9.2" height="3"/>
		</g>
		<g>
			<polygon class="st25" points="196.8,-280.7 198.6,-281.8 197.5,-280 179.3,-261.7 177.4,-260.6 178.5,-262.4 			"/>
			<polygon class="st25" points="195.9,-281.6 197.7,-282.7 196.6,-280.9 178.3,-262.6 176.5,-261.5 177.6,-263.3 			"/>
		</g>
		<g>
			<polygon class="st25" points="176.7,-294.2 178.4,-295.4 177.3,-293.7 165.6,-281.9 163.9,-280.8 165,-282.5 			"/>
			<polygon class="st25" points="175.7,-295.3 177.4,-296.4 176.2,-294.7 164.5,-283 162.8,-281.9 163.9,-283.6 			"/>
			<polygon class="st25" points="179.9,-291.1 181.6,-292.2 180.5,-290.5 168.7,-278.7 167,-277.6 168.1,-279.3 			"/>
			<polygon class="st25" points="177.8,-293.2 179.5,-294.3 178.4,-292.6 166.6,-280.8 164.9,-279.7 166,-281.4 			"/>
			<polygon class="st25" points="181,-290 182.7,-291.1 181.5,-289.4 169.8,-277.7 168.1,-276.6 169.2,-278.3 			"/>
			<polygon class="st25" points="178.8,-292.1 180.5,-293.2 179.4,-291.5 167.7,-279.8 166,-278.7 167.1,-280.4 			"/>
			<polygon class="st25" points="183.1,-287.9 184.8,-289 183.7,-287.3 171.9,-275.6 170.2,-274.4 171.3,-276.1 			"/>
			<polygon class="st25" points="182,-288.9 183.7,-290.1 182.6,-288.4 170.9,-276.6 169.2,-275.5 170.3,-277.2 			"/>
			<polygon class="st25" points="185.2,-285.8 186.9,-286.9 185.8,-285.2 174,-273.4 172.3,-272.3 173.4,-274 			"/>
			<polygon class="st25" points="184.1,-286.8 185.8,-287.9 184.7,-286.2 173,-274.5 171.3,-273.4 172.4,-275.1 			"/>
			<polygon class="st25" points="188.4,-282.6 190.1,-283.7 189,-282 177.2,-270.3 175.5,-269.1 176.6,-270.8 			"/>
			<polygon class="st25" points="186.3,-284.7 187.9,-285.8 186.8,-284.1 175.1,-272.4 173.4,-271.3 174.5,-273 			"/>
			<polygon class="st25" points="189.4,-281.5 191.1,-282.6 190,-280.9 178.3,-269.2 176.6,-268.1 177.7,-269.8 			"/>
			<polygon class="st25" points="187.3,-283.6 189,-284.8 187.9,-283.1 176.2,-271.3 174.5,-270.2 175.6,-271.9 			"/>
			<polygon class="st25" points="191.5,-279.4 193.2,-280.5 192.1,-278.8 180.4,-267.1 178.7,-266 179.8,-267.7 			"/>
			<polygon class="st25" points="190.5,-280.5 192.2,-281.6 191.1,-279.9 179.3,-268.1 177.6,-267 178.7,-268.7 			"/>
		</g>
		<path class="st15" d="M188.6-254.9c-0.5,0.5-1.4,0.5-1.9,0l0,0c-0.5-0.5-0.5-1.4,0-1.9l15.7-15.7c0.5-0.5,1.4-0.5,1.9,0l0,0
			c0.5,0.5,0.5,1.4,0,1.9L188.6-254.9z"/>
		<path class="st15" d="M211.3-265.2L194-247.9c1,1,2.7,1,3.7,0l13.6-13.6C212.3-262.6,212.3-264.2,211.3-265.2z"/>
	</g>
	<polygon class="st20" points="222.7,-244.7 214.5,-236.5 213,-236 223.2,-246.2 	"/>
	<polygon class="st20" points="237.9,-228.2 231,-221.3 229.7,-220.9 238.3,-229.6 	"/>
	<path class="st8" d="M249.1-215.7c0.6,0.6,0.6,1.5,0,2l-3.6,3.6c-0.6,0.6-1.5,0.6-2,0l0,0c-0.6-0.6-0.6-1.5,0-2l3.6-3.6
		C247.7-216.3,248.6-216.3,249.1-215.7L249.1-215.7z"/>
</g>
<g>
	
		<rect x="27.8" y="-260.2" transform="matrix(0.707 -0.7072 0.7072 0.707 190.8965 -51.285)" class="st15" width="11.5" height="8.3"/>
	
		<rect x="44.6" y="-243.4" transform="matrix(0.707 -0.7072 0.7072 0.707 183.9272 -34.4563)" class="st15" width="11.5" height="8.3"/>
	
		<rect x="11.1" y="-293.3" transform="matrix(0.7072 -0.707 0.707 0.7072 209.6199 -72.8377)" class="st15" width="11.5" height="7.6"/>
	
		<rect x="78.2" y="-226.5" transform="matrix(0.7072 -0.7071 0.7071 0.7072 181.8293 -5.7492)" class="st15" width="11.5" height="8.3"/>
	
		<rect x="44.6" y="-260.1" transform="matrix(0.7071 -0.7072 0.7072 0.7071 195.7928 -39.3977)" class="st15" width="11.5" height="8.3"/>
	
		<rect x="61.4" y="-243.3" transform="matrix(0.707 -0.7072 0.7072 0.707 188.8246 -22.5717)" class="st15" width="11.5" height="8.3"/>
	
		<rect x="27.8" y="-277" transform="matrix(0.707 -0.7072 0.7072 0.707 202.7637 -56.2267)" class="st15" width="11.5" height="8.3"/>
	
		<rect x="27.8" y="-293.8" transform="matrix(0.7072 -0.707 0.707 0.7072 214.574 -61.1247)" class="st15" width="11.5" height="8.3"/>
	
		<rect x="78.2" y="-243.3" transform="matrix(0.7072 -0.707 0.707 0.7072 193.6827 -10.667)" class="st15" width="11.5" height="8.3"/>
	<g>
		<g>
			
				<rect x="88.5" y="-216.9" transform="matrix(0.7073 -0.7069 0.7069 0.7073 178.3315 2.6261)" class="st16" width="7.6" height="5.8"/>
			
				<rect x="8" y="-300.2" transform="matrix(0.7071 -0.7071 0.7071 0.7071 212.1292 -78.8706)" class="st16" width="5.7" height="9.5"/>
			
				<rect x="81.6" y="-220.7" transform="matrix(0.7072 -0.707 0.707 0.7072 179.5483 -0.2504)" class="st16" width="15.8" height="7.7"/>
		</g>
		<g>
			<g>
				<g>
					<g>
						<g>
							
								<rect x="27.8" y="-259.5" transform="matrix(0.707 -0.7072 0.7072 0.707 190.9188 -51.302)" class="st13" width="11.5" height="6.9"/>
						</g>
					</g>
				</g>
				<g>
					<g>
						
							<rect x="44.6" y="-242.7" transform="matrix(0.707 -0.7072 0.7072 0.707 183.9495 -34.4713)" class="st13" width="11.5" height="6.9"/>
					</g>
				</g>
			</g>
			<g>
				<g>
					<g>
						<g>
							
								<rect x="10.9" y="-293.2" transform="matrix(0.7072 -0.707 0.707 0.7072 209.6966 -73.0598)" class="st13" width="11.5" height="6.9"/>
						</g>
					</g>
				</g>
				<g>
					<g>
						<g>
							
								<rect x="78.2" y="-225.8" transform="matrix(0.7072 -0.707 0.707 0.7072 181.8239 -5.7467)" class="st13" width="11.5" height="6.9"/>
						</g>
					</g>
				</g>
				<g>
					<g>
						
							<rect x="44.6" y="-259.5" transform="matrix(0.7071 -0.7071 0.7071 0.7071 195.7758 -39.3864)" class="st13" width="11.5" height="6.9"/>
					</g>
				</g>
				<g>
					<g>
						<g>
							
								<rect x="61.4" y="-242.6" transform="matrix(0.7071 -0.7071 0.7071 0.7071 188.8061 -22.5613)" class="st13" width="11.5" height="6.9"/>
						</g>
					</g>
				</g>
				<g>
					<g>
						<g>
							
								<rect x="27.8" y="-276.3" transform="matrix(0.7072 -0.707 0.707 0.7072 202.723 -56.1946)" class="st13" width="11.5" height="6.9"/>
						</g>
					</g>
				</g>
			</g>
			<g>
				<g>
					<g>
						<g>
							
								<rect x="27.8" y="-293.1" transform="matrix(0.7072 -0.707 0.707 0.7072 214.5663 -61.1189)" class="st13" width="11.5" height="6.9"/>
						</g>
					</g>
				</g>
				<g>
					<g>
						
							<rect x="78.2" y="-242.6" transform="matrix(0.7072 -0.707 0.707 0.7072 193.679 -10.665)" class="st13" width="11.5" height="6.9"/>
					</g>
				</g>
			</g>
		</g>
		<g>
			<polygon class="st16" points="42.4,-290.4 41.1,-291.7 28.6,-279.2 24.6,-272 25.9,-270.7 38.4,-283.2 			"/>
			<polygon class="st16" points="42.5,-273.6 41.1,-275 28.6,-262.5 24.6,-255.3 26,-254 38.5,-266.5 			"/>
			<polygon class="st16" points="67.9,-248.2 69.3,-246.8 56.8,-234.3 49.6,-230.3 48.3,-231.7 60.8,-244.2 			"/>
			<polygon class="st16" points="84.7,-248.1 86,-246.7 73.5,-234.2 66.4,-230.2 65,-231.6 77.5,-244.1 			"/>
			<polygon class="st16" points="34.2,-298.5 35.6,-297.2 32,-293.6 17.5,-279.1 14.6,-282 27.1,-294.5 			"/>
			<polygon class="st16" points="32.8,-247.1 31.5,-248.5 35.1,-252.1 57.9,-274.9 60.8,-272 40,-251.1 			"/>
			<polygon class="st16" points="92.9,-239.9 91.5,-241.2 87.9,-237.6 65.1,-214.8 68,-211.9 88.9,-232.8 			"/>
			<polygon class="st16" points="41.5,-238.5 42.8,-237.1 46.4,-240.8 69.2,-263.6 66.3,-266.5 45.5,-245.6 			"/>
		</g>
		<g>
			<g>
				<g>
					<path class="st8" d="M12.9-293l0.5-0.5c0.4-0.4,0.4-1,0-1.4l-3.1-3.1c-0.4-0.4-1-0.4-1.4,0l-0.5,0.5c-0.4,0.4-0.4,1,0,1.4
						l3.1,3.1C11.9-292.6,12.5-292.6,12.9-293z"/>
				</g>
				<g>
					<path class="st8" d="M87.3-211.4L95-219c0.4-0.4,0.4-1,0-1.4l-1.9-1.9c-0.4-0.4-1-0.4-1.4,0l-7.6,7.6c-0.4,0.4-0.4,1,0,1.4
						l1.9,1.9C86.3-211,86.9-211,87.3-211.4z"/>
				</g>
				<g>
					<g>
						<path class="st8" d="M27.7-274.7l9.5-9.5l2-3.6l-9.5,9.5L27.7-274.7z"/>
					</g>
					<g>
						<path class="st8" d="M27.8-257.9l9.5-9.5l2-3.6l-9.5,9.5L27.8-257.9z"/>
					</g>
					<g>
						<path class="st8" d="M52.3-233.5l3.6-2l9.5-9.5l-3.6,2L52.3-233.5z"/>
					</g>
					<g>
						<path class="st8" d="M69-233.4l3.6-2l9.5-9.5l-3.6,2L69-233.4z"/>
					</g>
					<g>
						<path class="st8" d="M17.5-281.2l14.1-14.1l-3.6,2L16.7-282L17.5-281.2z"/>
					</g>
					<g>
						<path class="st8" d="M39.1-252.3L58.7-272l-0.8-0.8l-22.5,22.4L39.1-252.3z"/>
					</g>
					<g>
						<path class="st8" d="M67.2-214.8L68-214l19.6-19.6l2-3.6L67.2-214.8z"/>
					</g>
					<g>
						<path class="st8" d="M44.6-241.1l22.4-22.5l-0.8-0.8l-19.6,19.6L44.6-241.1z"/>
					</g>
				</g>
			</g>
		</g>
	</g>
	<path class="st16" d="M32-253.5l-1-1c-0.4-0.4-0.4-1,0-1.4l2.6-2.6c0.4-0.4,1-0.4,1.4,0l1,1c0.4,0.4,0.4,1,0,1.4l-2.6,2.6
		C33.1-253.1,32.4-253.1,32-253.5z"/>
	<path class="st16" d="M48.9-236.7l-1-1c-0.4-0.4-0.4-1,0-1.4l2.6-2.6c0.4-0.4,1-0.4,1.4,0l1,1c0.4,0.4,0.4,1,0,1.4l-2.6,2.6
		C49.9-236.3,49.3-236.3,48.9-236.7z"/>
	<path class="st16" d="M15.1-287.2l-1-1c-0.4-0.4-0.4-1,0-1.4l2.6-2.6c0.4-0.4,1-0.4,1.4,0l1,1c0.4,0.4,0.4,1,0,1.4l-2.6,2.6
		C16.1-286.8,15.5-286.8,15.1-287.2z"/>
	<path class="st16" d="M82.5-219.9l-1-1c-0.4-0.4-0.4-1,0-1.4l2.6-2.6c0.4-0.4,1-0.4,1.4,0l1,1c0.4,0.4,0.4,1,0,1.4l-2.6,2.6
		C83.5-219.5,82.8-219.5,82.5-219.9z"/>
	<path class="st16" d="M48.8-253.5l-1-1c-0.4-0.4-0.4-1,0-1.4l2.6-2.6c0.4-0.4,1-0.4,1.4,0l1,1c0.4,0.4,0.4,1,0,1.4l-2.6,2.6
		C49.9-253.1,49.2-253.1,48.8-253.5z"/>
	<path class="st16" d="M65.7-236.7l-1-1c-0.4-0.4-0.4-1,0-1.4l2.6-2.6c0.4-0.4,1-0.4,1.4,0l1,1c0.4,0.4,0.4,1,0,1.4l-2.6,2.6
		C66.7-236.3,66-236.3,65.7-236.7z"/>
	<path class="st16" d="M32-270.3l-1-1c-0.4-0.4-0.4-1,0-1.4l2.6-2.6c0.4-0.4,1-0.4,1.4,0l1,1c0.4,0.4,0.4,1,0,1.4l-2.6,2.6
		C33-269.9,32.4-269.9,32-270.3z"/>
	<path class="st16" d="M32-287.1l-1-1c-0.4-0.4-0.4-1,0-1.4l2.6-2.6c0.4-0.4,1-0.4,1.4,0l1,1c0.4,0.4,0.4,1,0,1.4l-2.6,2.6
		C33-286.7,32.4-286.7,32-287.1z"/>
	<path class="st16" d="M82.4-236.6l-1-1c-0.4-0.4-0.4-1,0-1.4l2.6-2.6c0.4-0.4,1-0.4,1.4,0l1,1c0.4,0.4,0.4,1,0,1.4l-2.6,2.6
		C83.5-236.2,82.8-236.2,82.4-236.6z"/>
</g>
<g>
	
		<rect x="342.5" y="-270.1" transform="matrix(0.7071 -0.7071 0.7071 0.7071 288.106 165.899)" class="st4" width="3.6" height="10.6"/>
	<path class="st13" d="M310.4-298.7c-2.6,2.6-2.6,6.7,0,9.2l19.5,19.5c2.6,2.6,6.7,2.6,9.2,0c2.6-2.6,2.6-6.7,0-9.2l-19.5-19.5
		C317.1-301.3,312.9-301.3,310.4-298.7z M317.6-291.5c-1.2,1.2-3.2,1.2-4.5,0c-1.2-1.2-1.2-3.2,0-4.5c1.2-1.2,3.2-1.2,4.5,0
		C318.8-294.8,318.8-292.8,317.6-291.5z"/>
	<path class="st16" d="M347.1-274l-12,12c-0.9,0.9-2.3,0.9-3.2,0l-11.3-11.3c-0.9-0.9-0.9-2.3,0-3.2l12-12c0.9-0.9,2.3-0.9,3.2,0
		l11.3,11.3C348-276.4,348-274.9,347.1-274z"/>
	<path class="st8" d="M343.9-270.8l-5.6,5.6c-0.4,0.4-1.5,0-2.3-0.9l-11.3-11.3c-0.9-0.9-1.3-1.9-0.9-2.3l5.6-5.6
		c0.4-0.4,1.5,0,2.3,0.9l11.3,11.3C343.9-272.3,344.3-271.2,343.9-270.8z"/>
	<path class="st8" d="M322.3-274.3c-0.2-0.2-0.2-0.5,0-0.7l0,0c0.2-0.2,0.5-0.2,0.7,0l10.5,10.5c0.2,0.2,0.2,0.5,0,0.7l0,0
		c-0.2,0.2-0.5,0.2-0.7,0L322.3-274.3z"/>
	<path class="st8" d="M343.3-255.5c0.4,0.4,0.4,1,0,1.4c-0.4,0.4-1,0.4-1.4,0c-0.4-0.4-0.4-1,0-1.4
		C342.2-255.9,342.9-255.9,343.3-255.5z"/>
	<path class="st8" d="M348.6-250.2c0.4,0.4,0.4,1,0,1.4c-0.4,0.4-1,0.4-1.4,0c-0.4-0.4-0.4-1,0-1.4
		C347.6-250.6,348.2-250.6,348.6-250.2z"/>
	<path class="st8" d="M354-244.8c0.4,0.4,0.4,1,0,1.4c-0.4,0.4-1,0.4-1.4,0c-0.4-0.4-0.4-1,0-1.4C352.9-245.2,353.6-245.2,354-244.8
		z"/>
	<path class="st8" d="M359.3-239.5c0.4,0.4,0.4,1,0,1.4c-0.4,0.4-1,0.4-1.4,0c-0.4-0.4-0.4-1,0-1.4
		C358.3-239.9,358.9-239.9,359.3-239.5z"/>
	<path class="st8" d="M364.7-234.1c0.4,0.4,0.4,1,0,1.4c-0.4,0.4-1,0.4-1.4,0c-0.4-0.4-0.4-1,0-1.4
		C363.6-234.5,364.3-234.5,364.7-234.1z"/>
	<path class="st8" d="M370-228.8c0.4,0.4,0.4,1,0,1.4c-0.4,0.4-1,0.4-1.4,0c-0.4-0.4-0.4-1,0-1.4C369-229.2,369.6-229.2,370-228.8z"
		/>
	<g>
		<g>
			
				<rect x="388.1" y="-221.5" transform="matrix(0.707 -0.7072 0.7072 0.707 268.9858 212.1857)" class="st4" width="5" height="5.9"/>
			<path class="st13" d="M391.7-221.7l-4.3,4.3c-0.9,0.9-2.3,0.9-3.2,0l-42-42c-0.9-0.9-0.9-2.3,0-3.2l4.3-4.3
				c0.9-0.9,2.3-0.9,3.2,0l42,42C392.6-224,392.6-222.6,391.7-221.7z"/>
			<path class="st26" d="M390.6-220.6l-2,2c-0.4,0.4-1.5,0-2.4-0.9l-42-42c-0.9-0.9-1.3-1.9-0.9-2.4l2-2c0.4-0.4,1.5,0,2.4,0.9
				l42,42C390.6-222,391-221,390.6-220.6z"/>
			<path class="st16" d="M350.8-272.4c0.8,0.4,1.2,1.4,0.8,2.2L344-254c-0.4,0.8-1.4,1.2-2.2,0.8l0,0c-0.8-0.4-1.2-1.4-0.8-2.2
				l7.5-16.2C349-272.4,349.9-272.8,350.8-272.4L350.8-272.4z"/>
			<path class="st16" d="M356.1-267.1c0.8,0.4,1.2,1.4,0.8,2.2l-7.5,16.2c-0.4,0.8-1.4,1.2-2.2,0.8l0,0c-0.8-0.4-1.2-1.4-0.8-2.2
				l7.5-16.2C354.3-267.1,355.3-267.4,356.1-267.1L356.1-267.1z"/>
			<path class="st16" d="M366.8-256.4c0.8,0.4,1.2,1.4,0.8,2.2l-7.5,16.2c-0.4,0.8-1.4,1.2-2.2,0.8l0,0c-0.8-0.4-1.2-1.4-0.8-2.2
				l7.6-16.2C365-256.4,366-256.7,366.8-256.4L366.8-256.4z"/>
			<path class="st16" d="M361.5-261.7c0.8,0.4,1.2,1.4,0.8,2.2l-7.5,16.2c-0.4,0.8-1.4,1.2-2.2,0.8l0,0c-0.8-0.4-1.2-1.4-0.8-2.2
				l7.5-16.2C359.7-261.7,360.6-262.1,361.5-261.7L361.5-261.7z"/>
			<path class="st16" d="M372.2-251c0.8,0.4,1.2,1.4,0.8,2.2l-7.5,16.2c-0.4,0.8-1.4,1.2-2.2,0.8l0,0c-0.8-0.4-1.2-1.4-0.8-2.2
				l7.5-16.2C370.4-251,371.3-251.4,372.2-251L372.2-251z"/>
			<path class="st16" d="M377.5-245.7c0.8,0.4,1.2,1.4,0.8,2.2l-7.5,16.2c-0.4,0.8-1.4,1.2-2.2,0.8l0,0c-0.8-0.4-1.2-1.4-0.8-2.2
				l7.5-16.2C375.7-245.7,376.7-246,377.5-245.7L377.5-245.7z"/>
			<path class="st16" d="M382.2-238.9c0.8,0.4,1.2,1.4,0.8,2.2l-6.2,13.4c-0.4,0.8-1.4,1.2-2.2,0.8l0,0c-0.8-0.4-1.2-1.4-0.8-2.2
				l6.2-13.4C380.4-238.9,381.4-239.3,382.2-238.9L382.2-238.9z"/>
			<path class="st16" d="M389.5-231c0.6,0.6,0.6,1.7,0,2.3l-9,9c-0.6,0.6-1.7,0.6-2.4,0l0,0c-0.6-0.6-0.6-1.7,0-2.3l9-9
				C387.7-231.7,388.8-231.7,389.5-231L389.5-231z"/>
			<path class="st13" d="M391.6-217.5c-2.1,2.1-2.1,5.5,0,7.5c2.1,2.1,5.5,2.1,7.5,0c2.1-2.1,2.1-5.5,0-7.5
				C397.1-219.6,393.7-219.6,391.6-217.5z M397.6-211.5c-1.2,1.2-3.1,1.2-4.3,0c-1.2-1.2-1.2-3.1,0-4.3c1.2-1.2,3.1-1.2,4.3,0
				C398.8-214.7,398.8-212.7,397.6-211.5z"/>
		</g>
		<path class="st27" d="M328.2-279c-0.5-0.5-0.5-1.4,0-1.9l0,0c0.5-0.5,1.4-0.5,1.9,0l9.3,9.3c0.5,0.5,0.5,1.4,0,1.9l0,0
			c-0.5,0.5-1.4,0.5-1.9,0L328.2-279z"/>
		<path class="st8" d="M376.1-224.9c0.4,0.4,0.4,1,0,1.4c-0.4,0.4-1,0.4-1.4,0c-0.4-0.4-0.4-1,0-1.4
			C375.1-225.3,375.7-225.3,376.1-224.9z"/>
		<path class="st8" d="M380-221.6c0.4,0.4,0.4,1,0,1.4c-0.4,0.4-1,0.4-1.4,0c-0.4-0.4-0.4-1,0-1.4C379-222,379.6-222,380-221.6z"/>
		<g>
			<path class="st16" d="M398.7-210.4c-0.9,0.9-2.2,1.4-3.5,1.3c-0.3,0-0.5-0.3-0.5-0.5c0-0.3,0.3-0.5,0.5-0.5c1,0.1,2-0.3,2.7-1
				c0.2-0.2,0.5-0.2,0.7,0C398.9-210.9,398.9-210.6,398.7-210.4z"/>
		</g>
		<g>
			<path class="st16" d="M318.6-297.7c-0.2-0.2-0.4-0.3-0.6-0.5v0.5c0.2,0.2,0.5,0.3,0.7,0.6c0.9,0.9,1.4,2.1,1.4,3.3
				c0,1.2-0.5,2.4-1.4,3.3l0,0c-0.2,0.2-0.4,0.4-0.7,0.6v5.9l4,4l0-14.2L318.6-297.7z"/>
			<polygon class="st16" points="327.7,-285.4 327.7,-288.5 325.7,-290.5 325.7,-283.4 			"/>
		</g>
		<g>
			<path class="st4" d="M318.1-291l-0.3-0.3L318.1-291c-0.7,0.7-1.7,1.1-2.7,1.1c-1,0-2-0.4-2.7-1.1c-0.7-0.7-1.1-1.7-1.1-2.7
				c0-1,0.4-2,1.1-2.7c0.7-0.7,1.7-1.1,2.7-1.1c1,0,2,0.4,2.7,1.1c0.7,0.7,1.1,1.7,1.1,2.7C319.2-292.7,318.8-291.8,318.1-291z
				 M313.1-296c-0.6,0.6-0.9,1.4-0.9,2.2c0,0.8,0.3,1.6,0.9,2.2c0.6,0.6,1.4,0.9,2.2,0.9c0.8,0,1.6-0.3,2.2-0.9l0,0
				c0.6-0.6,0.9-1.4,0.9-2.2c0-0.8-0.3-1.6-0.9-2.2c-0.6-0.6-1.4-0.9-2.2-0.9C314.5-296.9,313.7-296.6,313.1-296z"/>
		</g>
	</g>
</g>
<g>
	<rect x="477.5" y="-67.2" class="st15" width="89.7" height="58.2"/>
	<rect x="548.4" y="-9.9" class="st15" width="10.4" height="4.1"/>
	<rect x="485.9" y="-9.9" class="st15" width="10.4" height="4.1"/>
	<rect x="547.4" y="-7.6" class="st13" width="12.5" height="1.9"/>
	<rect x="484.9" y="-7.6" class="st13" width="12.5" height="1.9"/>
	<g>
		<g>
			<g>
				<g>
					<rect x="551.3" y="-72.5" class="st6" width="4.7" height="5.4"/>
				</g>
				<g>
					<g>
						<rect x="488.7" y="-72.5" class="st6" width="4.7" height="5.4"/>
					</g>
				</g>
			</g>
			<path class="st12" d="M475-8.9c-3.3,0-5.9-2.7-5.9-5.9v-44.3c0-3.3,2.6-5.9,5.9-5.9v2.5c-1.9,0-3.4,1.5-3.4,3.4v44.3
				c0,1.9,1.5,3.4,3.4,3.4V-8.9z"/>
			<g>
				<rect x="568" y="-12.3" class="st13" width="4.8" height="3.4"/>
			</g>
			<rect x="468.3" y="-58.1" class="st11" width="4.3" height="43.2"/>
			<g>
				<g>
					<rect x="479" y="-68" class="st13" width="86.8" height="1.7"/>
					<rect x="479" y="-10.6" class="st13" width="86.8" height="1.7"/>
					<rect x="479" y="-62.8" class="st13" width="86.8" height="1.7"/>
					<rect x="479" y="-15.8" class="st13" width="86.8" height="1.7"/>
				</g>
			</g>
		</g>
		<g>
			<g>
				<g>
					<path class="st2" d="M528.1-53.5c0,2.9-7.2,8.9-9.3,11c-2.1,2.1-1.4-8-1.4-11c0-2.9,2.4-5.3,5.3-5.3
						C525.7-58.9,528.1-56.5,528.1-53.5z"/>
					<path class="st2" d="M516.7-23.4c0-2.9,7.2-8.9,9.3-11c2.1-2.1,1.4,8,1.4,11s-2.4,5.3-5.3,5.3
						C519.1-18.1,516.7-20.4,516.7-23.4z"/>
					<path class="st2" d="M537.5-32.8c-2.9,0-8.9-7.2-11-9.3c-2.1-2.1,8-1.4,11-1.4c2.9,0,5.3,2.4,5.3,5.3
						C542.8-35.1,540.4-32.8,537.5-32.8z"/>
					<path class="st2" d="M507.3-44.2c2.9,0,8.9,7.2,11,9.3c2.1,2.1-8,1.4-11,1.4c-2.9,0-5.3-2.4-5.3-5.3
						C502-41.8,504.4-44.2,507.3-44.2z"/>
				</g>
			</g>
			<path class="st3" d="M522.4-44.6c-3.4,0-6.1,2.7-6.1,6.1s2.7,6.1,6.1,6.1c3.4,0,6.1-2.7,6.1-6.1S525.8-44.6,522.4-44.6z"/>
			<path class="st16" d="M522.4-36.8c-0.9,0-1.7-0.8-1.7-1.7s0.8-1.7,1.7-1.7c0.9,0,1.7,0.8,1.7,1.7S523.3-36.8,522.4-36.8z"/>
		</g>
		<g>
			<path class="st13" d="M505.6-52.3H479v1.7h25.6C504.9-51.2,505.3-51.8,505.6-52.3z"/>
			<path class="st13" d="M539.1-52.3c0.4,0.5,0.7,1.1,1.1,1.7h25.6v-1.7H539.1z"/>
		</g>
		<g>
			<path class="st13" d="M510.6-57.6H479v1.7h29.7C509.3-56.5,510-57,510.6-57.6z"/>
			<path class="st13" d="M534.2-57.6c0.7,0.5,1.3,1.1,1.9,1.7h29.7v-1.7H534.2z"/>
		</g>
		<g>
			<path class="st13" d="M501.8-47.1H479v1.7h22.3C501.4-46,501.6-46.6,501.8-47.1z"/>
			<path class="st13" d="M542.9-47.1c0.2,0.5,0.4,1.1,0.6,1.7h22.3v-1.7H542.9z"/>
		</g>
		<g>
			<path class="st13" d="M500.5-41.9H479v1.7h21.3C500.4-40.8,500.4-41.4,500.5-41.9z"/>
			<path class="st13" d="M544.3-41.9c0.1,0.5,0.1,1.1,0.2,1.7h21.3v-1.7H544.3z"/>
		</g>
		<g>
			<path class="st13" d="M500.3-36.7H479v1.7h21.5C500.4-35.6,500.4-36.1,500.3-36.7z"/>
			<path class="st13" d="M544.5-36.7c0,0.6-0.1,1.1-0.2,1.7h21.5v-1.7H544.5z"/>
		</g>
		<g>
			<path class="st13" d="M501.3-31.5H479v1.7h22.8C501.6-30.3,501.4-30.9,501.3-31.5z"/>
			<path class="st13" d="M543.5-31.5c-0.2,0.6-0.4,1.1-0.6,1.7h22.8v-1.7H543.5z"/>
		</g>
		<g>
			<path class="st13" d="M504.6-26.2H479v1.7h26.6C505.3-25.1,504.9-25.7,504.6-26.2z"/>
			<path class="st13" d="M540.2-26.2c-0.3,0.6-0.7,1.1-1.1,1.7h26.6v-1.7H540.2z"/>
		</g>
		<g>
			<path class="st13" d="M508.7-21H479v1.7h31.6C510-19.9,509.3-20.4,508.7-21z"/>
			<path class="st13" d="M536.1-21c-0.6,0.6-1.3,1.1-1.9,1.7h31.6V-21H536.1z"/>
		</g>
	</g>
	<path class="st16" d="M522.4-61.1c-12.5,0-22.7,10.1-22.7,22.7s10.1,22.7,22.7,22.7c12.5,0,22.7-10.1,22.7-22.7
		S534.9-61.1,522.4-61.1z M522.4-17.5c-11.6,0-21-9.4-21-21c0-11.6,9.4-21,21-21c11.6,0,21,9.4,21,21
		C543.4-26.9,534-17.5,522.4-17.5z"/>
	<rect x="475" y="-11.4" class="st28" width="0.8" height="2.5"/>
	<rect x="475" y="-65" class="st28" width="0.8" height="2.5"/>
	<rect x="565.6" y="-70.1" class="st16" width="3.3" height="61.2"/>
	<rect x="475.9" y="-70.1" class="st16" width="3.3" height="61.2"/>
</g>
<g>
	<g>
		<path class="st29" d="M506.4-181.5c-26.3,0-47.6,21.4-47.6,47.6c0,26.3,21.4,47.6,47.6,47.6c26.3,0,47.6-21.4,47.6-47.6
			C554-160.2,532.7-181.5,506.4-181.5z M506.4-95.9c-21,0-38-17.1-38-38c0-21,17.1-38,38-38s38,17.1,38,38
			C544.4-112.9,527.4-95.9,506.4-95.9z"/>
		<g>
			<g>
				<g>
					<path class="st19" d="M540.2-107.3c-8.2,10.4-20.6,16.4-33.8,16.4c-13.2,0-25.6-6-33.8-16.4c-1-1.3-2.9-1.6-4.3-0.6
						c8.3,12.1,22.3,20.1,38,20.1c15.8,0,29.7-8,38.1-20.1C543.1-108.8,541.2-108.6,540.2-107.3z"/>
					<path class="st19" d="M506.4-180c-23.7,0-43.3,18-45.8,41c1.6,0.2,3.2-0.9,3.5-2.5c3.7-20.5,21.5-35.4,42.4-35.4
						c20.8,0,38.7,14.9,42.4,35.4c0.3,1.5,1.6,2.5,3,2.5c0.1,0,0.3,0,0.4,0C549.7-162.1,530.1-180,506.4-180z"/>
				</g>
				<path class="st18" d="M551.8-137.3c-2.4,0-4.4-1.7-4.8-4c-3.5-19.7-20.6-33.9-40.6-33.9c-20,0-37.1,14.3-40.6,33.9
					c-0.4,2.3-2.4,4-4.8,4c-0.2,0-0.4,0-0.6,0c-0.1,1.1-0.1,2.3-0.1,3.4c0,9,2.6,17.5,7.1,24.6c0.8-0.6,1.8-0.9,2.8-0.9
					c1.5,0,2.9,0.7,3.8,1.8c7.9,10,19.7,15.7,32.4,15.7s24.5-5.7,32.4-15.7c0.9-1.2,2.3-1.8,3.8-1.8c1,0,2,0.3,2.8,0.9
					c4.5-7.1,7.1-15.6,7.1-24.6c0-1.1,0-2.3-0.1-3.4C552.2-137.3,552-137.3,551.8-137.3z M506.4-94.4c-21.8,0-39.5-17.7-39.5-39.5
					c0-21.8,17.7-39.5,39.5-39.5c21.8,0,39.5,17.7,39.5,39.5C545.9-112.1,528.2-94.4,506.4-94.4z"/>
			</g>
			<path class="st29" d="M543.5-124.6c-1.2,0.5-2.9,0-4.6-1.4c-0.9-0.7-1.8-1.4-2.8-2c-1.6-1-2.3-6.2-5-10.3c-1.6-2.4-4-4.5-7-5.4
				c-1.9-0.6-3.8-1.1-5.8-1.5c-3.2-0.7-5.9-5-5.9-10v-8.2c0-3.4,1.9-6.1,4.5-6.9c-3.3-1-6.9-1.5-10.5-1.5c-3.6,0-7.2,0.5-10.5,1.5
				c2.6,0.8,4.5,3.5,4.5,6.9v8.2c0,5-2.7,9.3-5.9,10c-1.9,0.4-3.9,0.9-5.8,1.5c-3,1-5.4,3-7,5.4c-2.7,4.2-3.4,9.3-5,10.3
				c-1,0.6-1.9,1.3-2.8,2c-1.7,1.4-3.4,1.9-4.6,1.4c1.6,6.5,4.9,12.4,9.3,17.1c-0.6-1.8-0.4-3.4,0.7-4.1c1.2-0.8,2.4-1.7,3.7-2.4
				c6.2-3.5,14.5-4.6,23.4-4.6c8.9,0,17.2,1,23.4,4.6c1.2,0.7,2.5,1.5,3.7,2.4c1,0.7,1.3,2.3,0.7,4.1
				C538.6-112.3,541.9-118.1,543.5-124.6z"/>
			<g>
				<g>
					<path class="st19" d="M472.6-122.4c1.1,3.3,2.7,6.3,4.7,9.2c0.2-0.2,0.4-0.4,0.6-0.5c1.5-1,2.7-1.8,3.9-2.5
						c5.8-3.3,13.7-4.9,24.6-4.9c11,0,18.8,1.6,24.7,4.9c1.2,0.7,2.4,1.5,3.9,2.5c0.2,0.2,0.4,0.3,0.6,0.5c2-2.8,3.6-5.9,4.7-9.2
						c-1-0.4-2-0.9-2.9-1.7c-0.8-0.6-1.7-1.3-2.6-1.9c-1.5-1-2.2-2.9-3.1-5.3c-0.7-1.9-1.4-4-2.6-5.8c-1.4-2.1-3.4-3.7-5.6-4.4
						c-1.8-0.6-3.7-1.1-5.5-1.5c-4.5-1-7.9-6.3-7.9-12.4v-8.2c0-2,0.5-3.9,1.5-5.5c-3.3-0.5-6.7-0.5-10,0c1,1.6,1.5,3.5,1.5,5.5v8.2
						c0,6.1-3.4,11.5-7.9,12.4c-1.9,0.4-3.7,0.9-5.5,1.5c-2.3,0.7-4.3,2.3-5.6,4.4c-1.2,1.8-1.9,3.9-2.6,5.8
						c-0.9,2.4-1.6,4.3-3.1,5.3c-0.9,0.6-1.8,1.2-2.6,1.9C474.5-123.3,473.6-122.7,472.6-122.4z"/>
				</g>
			</g>
			<ellipse class="st29" cx="506.4" cy="-134" rx="14.2" ry="7.9"/>
			<ellipse class="st19" cx="506.4" cy="-134" rx="11.7" ry="6.5"/>
			<polygon class="st29" points="506.2,-132.6 498.8,-132.6 497.6,-134.8 504.9,-134.8 			"/>
			<polygon class="st29" points="513.4,-132.6 508.6,-132.6 507.3,-134.8 512.1,-134.8 			"/>
		</g>
	</g>
	<polygon class="st27" points="506.5,-132.9 499.2,-132.9 497.9,-135.2 505.3,-135.2 	"/>
	<polygon class="st27" points="513.7,-132.9 508.9,-132.9 507.6,-135.2 512.4,-135.2 	"/>
</g>
</svg>
